%
M48
M72
T01C0.0200
T02C0.0335
T03C0.0866
%
T01
X10900Y4250
X10900Y4750
X10900Y5250
X10900Y5750
X10900Y6250
X10900Y6750
X10900Y7250
X10900Y7750
X10900Y8250
X10900Y8750
X10900Y9250
X10900Y9750
X10721Y10260
X10996Y10437
X9100Y12400
X13890Y13685
X14048Y13429
X16900Y14550
X17900Y14550
X17900Y15550
X17400Y16050
X16900Y15550
X16900Y16550
X16650Y17050
X17900Y16550
X20760Y17661
X20918Y17406
X21550Y17600
X21941Y17996
X21804Y18272
X21300Y18150
X17532Y19512
X17256Y19512
X17150Y20150
X17650Y20150
X17552Y20732
X17256Y20732
X14067Y17661
X13910Y17386
X11567Y19335
X11410Y19571
X11650Y20500
X11650Y21000
X11650Y21500
X11650Y22000
X11650Y22500
X11650Y23000
X11650Y23500
X11650Y24000
X11650Y24500
X11650Y25000
X11650Y25500
X11650Y26000
X11650Y26500
X17150Y26500
X17150Y26250
X17237Y25752
X17552Y25752
X17150Y26800
X26233Y20811
X26390Y20555
X26950Y21050
X27300Y21250
X27650Y21450
X28000Y21650
X28350Y21850
X20918Y13685
X20760Y13429
X21250Y12950
X21823Y12819
X21961Y13055
X21550Y13450
X17552Y11559
X17256Y11559
X17100Y10950
X17650Y10950
X17552Y10398
X17256Y10398
X17256Y5299
X17552Y5299
X17150Y4400
X17150Y4150
X26154Y10299
X26331Y10575
X27000Y10000
X27250Y9850
X27500Y9750
X27750Y9550
X28050Y9400
X28350Y9250
X6900Y19000
X2355Y19610
X2217Y19413
X1650Y19500
X1150Y19500
X650Y19500
X2847Y10437
X3044Y10299
X2650Y10000
X2150Y10000
X1650Y10000
X1150Y10000
X650Y10000
T02
X6309Y20200
X7491Y20200
T03
X10850Y19000
X14842Y17027
X17400Y18500
X19957Y17028
X22600Y18550
X25544Y20250
X17400Y21550
X17400Y24950
X2950Y19000
X14842Y14073
X17399Y12596
X19958Y14074
X22562Y12557
X25506Y10857
X17400Y9550
X17400Y6150
X10350Y11100
X3450Y11100
M30
