G75*
G70*
%OFA0B0*%
%FSLAX24Y24*%
%IPPOS*%
%LPD*%
%AMOC8*
5,1,8,0,0,1.08239X$1,22.5*
%
%ADD10C,0.0030*%
%ADD11C,0.0160*%
%ADD12C,0.0280*%
%ADD13R,0.0950X0.0320*%
%ADD14R,0.0356X0.0434*%
%ADD15C,0.1346*%
%ADD16C,0.0080*%
%ADD17R,0.0474X0.0533*%
%ADD18C,0.0415*%
%ADD19R,0.0780X0.1080*%
%ADD20C,0.3230*%
%ADD21R,0.0513X0.0474*%
%ADD22R,0.0552X0.0631*%
%ADD23C,0.0330*%
%ADD24C,0.0480*%
D10*
X016024Y011776D02*
X016595Y011614D01*
X016693Y011594D01*
X016792Y011579D01*
X017406Y011531D01*
X017508Y011535D01*
X017615Y011539D01*
X018217Y011614D01*
X018315Y011638D01*
X018410Y011661D01*
X018973Y011850D01*
X019063Y011890D01*
X019654Y012220D01*
X019737Y012276D01*
X020252Y012713D01*
X020319Y012780D01*
X020741Y013307D01*
X020796Y013386D01*
X021115Y013988D01*
X021150Y014083D01*
X021185Y014173D01*
X021347Y014744D01*
X021367Y014843D01*
X021382Y014945D01*
X021430Y015555D01*
X020780Y015555D01*
X020563Y015551D01*
X019693Y015551D01*
X019784Y015488D01*
X019867Y015417D01*
X019945Y015339D01*
X020012Y015252D01*
X020071Y015157D01*
X020122Y015063D01*
X020166Y014961D01*
X020197Y014854D01*
X020217Y014748D01*
X020229Y014638D01*
X020229Y014528D01*
X020217Y014417D01*
X020197Y014311D01*
X020166Y014205D01*
X020126Y014102D01*
X020079Y014008D01*
X020016Y013913D01*
X019949Y013827D01*
X019874Y013748D01*
X019792Y013677D01*
X019701Y013614D01*
X019607Y013559D01*
X019508Y013512D01*
X019402Y013476D01*
X019296Y013453D01*
X019185Y013437D01*
X019079Y013433D01*
X018969Y013437D01*
X018859Y013453D01*
X018752Y013480D01*
X018650Y013516D01*
X018552Y013563D01*
X018540Y013453D01*
X018520Y013343D01*
X018489Y013236D01*
X018449Y013134D01*
X018402Y013035D01*
X018343Y012945D01*
X018276Y012858D01*
X018197Y012776D01*
X018115Y012705D01*
X018028Y012638D01*
X017930Y012583D01*
X017831Y012539D01*
X017725Y012504D01*
X017619Y012476D01*
X017508Y012461D01*
X017402Y012453D01*
X017292Y012461D01*
X017181Y012476D01*
X017075Y012504D01*
X016969Y012539D01*
X016870Y012587D01*
X016776Y012642D01*
X016685Y012705D01*
X016603Y012780D01*
X016528Y012858D01*
X016461Y012949D01*
X016402Y013039D01*
X016351Y013138D01*
X016311Y013240D01*
X016284Y013346D01*
X016264Y013457D01*
X016256Y013567D01*
X016154Y013520D01*
X016052Y013484D01*
X015945Y013457D01*
X015835Y013441D01*
X015729Y013437D01*
X015619Y013441D01*
X015508Y013453D01*
X015402Y013480D01*
X015300Y013516D01*
X015197Y013559D01*
X015103Y013614D01*
X015016Y013677D01*
X014930Y013752D01*
X014855Y013831D01*
X014788Y013917D01*
X014729Y014008D01*
X014678Y014106D01*
X014638Y014209D01*
X014607Y014311D01*
X014587Y014421D01*
X014575Y014528D01*
X014575Y014638D01*
X014587Y014748D01*
X014607Y014854D01*
X014638Y014961D01*
X014681Y015063D01*
X014733Y015157D01*
X014792Y015252D01*
X014859Y015339D01*
X014937Y015417D01*
X015020Y015488D01*
X015111Y015551D01*
X014244Y015551D01*
X014032Y015555D01*
X013599Y015555D01*
X013382Y015555D01*
X013386Y015453D01*
X013390Y015350D01*
X013465Y014744D01*
X013485Y014646D01*
X013508Y014551D01*
X013701Y013988D01*
X013741Y013902D01*
X014071Y013307D01*
X014126Y013228D01*
X014563Y012713D01*
X014630Y012646D01*
X015158Y012220D01*
X015237Y012165D01*
X015839Y011850D01*
X015930Y011811D01*
X016024Y011776D01*
X015992Y011787D02*
X018785Y011787D01*
X018701Y011759D02*
X016082Y011759D01*
X016183Y011731D02*
X018616Y011731D01*
X018531Y011702D02*
X016283Y011702D01*
X016384Y011674D02*
X018447Y011674D01*
X018346Y011645D02*
X016484Y011645D01*
X016585Y011617D02*
X018229Y011617D01*
X018011Y011589D02*
X016730Y011589D01*
X017034Y011560D02*
X017782Y011560D01*
X017411Y011532D02*
X017403Y011532D01*
X017571Y012470D02*
X019966Y012470D01*
X019999Y012498D02*
X017702Y012498D01*
X017792Y012526D02*
X020033Y012526D01*
X020066Y012555D02*
X017866Y012555D01*
X017931Y012583D02*
X020100Y012583D01*
X020133Y012612D02*
X017981Y012612D01*
X018031Y012640D02*
X020167Y012640D01*
X020200Y012669D02*
X018068Y012669D01*
X018105Y012697D02*
X020234Y012697D01*
X020265Y012725D02*
X018139Y012725D01*
X018172Y012754D02*
X020294Y012754D01*
X020321Y012782D02*
X018204Y012782D01*
X018231Y012811D02*
X020344Y012811D01*
X020367Y012839D02*
X018258Y012839D01*
X018283Y012868D02*
X020390Y012868D01*
X020412Y012896D02*
X018305Y012896D01*
X018327Y012924D02*
X020435Y012924D01*
X020458Y012953D02*
X018348Y012953D01*
X018367Y012981D02*
X020480Y012981D01*
X020503Y013010D02*
X018385Y013010D01*
X018403Y013038D02*
X020526Y013038D01*
X020548Y013066D02*
X018417Y013066D01*
X018431Y013095D02*
X020571Y013095D01*
X020594Y013123D02*
X018444Y013123D01*
X018456Y013152D02*
X020616Y013152D01*
X020639Y013180D02*
X018467Y013180D01*
X018478Y013209D02*
X020662Y013209D01*
X020685Y013237D02*
X018489Y013237D01*
X018497Y013265D02*
X020707Y013265D01*
X020730Y013294D02*
X018506Y013294D01*
X018514Y013322D02*
X020751Y013322D01*
X020771Y013351D02*
X018522Y013351D01*
X018527Y013379D02*
X020791Y013379D01*
X020807Y013408D02*
X018532Y013408D01*
X018537Y013436D02*
X018999Y013436D01*
X019157Y013436D02*
X020822Y013436D01*
X020837Y013464D02*
X019348Y013464D01*
X019451Y013493D02*
X020852Y013493D01*
X020867Y013521D02*
X019528Y013521D01*
X019587Y013550D02*
X020882Y013550D01*
X020897Y013578D02*
X019639Y013578D01*
X019688Y013606D02*
X020912Y013606D01*
X020928Y013635D02*
X019731Y013635D01*
X019772Y013663D02*
X020943Y013663D01*
X020958Y013692D02*
X019809Y013692D01*
X019842Y013720D02*
X020973Y013720D01*
X020988Y013749D02*
X019875Y013749D01*
X019902Y013777D02*
X021003Y013777D01*
X021018Y013805D02*
X019929Y013805D01*
X019955Y013834D02*
X021033Y013834D01*
X021048Y013862D02*
X019977Y013862D01*
X019999Y013891D02*
X021063Y013891D01*
X021078Y013919D02*
X020020Y013919D01*
X020039Y013948D02*
X021093Y013948D01*
X021108Y013976D02*
X020058Y013976D01*
X020077Y014004D02*
X021121Y014004D01*
X021131Y014033D02*
X020092Y014033D01*
X020106Y014061D02*
X021142Y014061D01*
X021153Y014090D02*
X020120Y014090D01*
X020132Y014118D02*
X021164Y014118D01*
X021175Y014146D02*
X020143Y014146D01*
X020154Y014175D02*
X021186Y014175D01*
X021194Y014203D02*
X020165Y014203D01*
X020174Y014232D02*
X021202Y014232D01*
X021210Y014260D02*
X020182Y014260D01*
X020191Y014289D02*
X021218Y014289D01*
X021226Y014317D02*
X020198Y014317D01*
X020204Y014345D02*
X021234Y014345D01*
X021242Y014374D02*
X020209Y014374D01*
X020214Y014402D02*
X021250Y014402D01*
X021258Y014431D02*
X020218Y014431D01*
X020221Y014459D02*
X021266Y014459D01*
X021274Y014488D02*
X020224Y014488D01*
X020227Y014516D02*
X021282Y014516D01*
X021290Y014544D02*
X020229Y014544D01*
X020229Y014573D02*
X021298Y014573D01*
X021306Y014601D02*
X020229Y014601D01*
X020229Y014630D02*
X021314Y014630D01*
X021323Y014658D02*
X020227Y014658D01*
X020224Y014686D02*
X021331Y014686D01*
X021339Y014715D02*
X020220Y014715D01*
X020217Y014743D02*
X021347Y014743D01*
X021352Y014772D02*
X020213Y014772D01*
X020207Y014800D02*
X021358Y014800D01*
X021364Y014829D02*
X020202Y014829D01*
X020196Y014857D02*
X021369Y014857D01*
X021373Y014885D02*
X020188Y014885D01*
X020180Y014914D02*
X021378Y014914D01*
X021382Y014942D02*
X020171Y014942D01*
X020161Y014971D02*
X021384Y014971D01*
X021386Y014999D02*
X020149Y014999D01*
X020137Y015028D02*
X021389Y015028D01*
X021391Y015056D02*
X020125Y015056D01*
X020111Y015084D02*
X021393Y015084D01*
X021395Y015113D02*
X020095Y015113D01*
X020080Y015141D02*
X021397Y015141D01*
X021400Y015170D02*
X020064Y015170D01*
X020046Y015198D02*
X021402Y015198D01*
X021404Y015226D02*
X020028Y015226D01*
X020010Y015255D02*
X021406Y015255D01*
X021408Y015283D02*
X019988Y015283D01*
X019966Y015312D02*
X021411Y015312D01*
X021413Y015340D02*
X019944Y015340D01*
X019915Y015369D02*
X021415Y015369D01*
X021417Y015397D02*
X019887Y015397D01*
X019857Y015425D02*
X021419Y015425D01*
X021422Y015454D02*
X019824Y015454D01*
X019791Y015482D02*
X021424Y015482D01*
X021426Y015511D02*
X019751Y015511D01*
X019711Y015539D02*
X021428Y015539D01*
X021430Y015555D02*
X021213Y015555D01*
X020780Y015555D01*
X020563Y015551D01*
X019693Y015551D01*
X019788Y015614D01*
X019870Y015685D01*
X019949Y015764D01*
X020016Y015850D01*
X020079Y015941D01*
X020130Y016039D01*
X020174Y016142D01*
X020205Y016248D01*
X020229Y016354D01*
X020241Y016465D01*
X020241Y016575D01*
X020229Y016685D01*
X020209Y016795D01*
X020178Y016902D01*
X020138Y017004D01*
X020087Y017102D01*
X021121Y017102D01*
X021115Y017122D02*
X021075Y017213D01*
X020741Y017803D01*
X020685Y017886D01*
X020252Y018402D01*
X020181Y018469D01*
X019654Y018890D01*
X019575Y018945D01*
X018973Y019264D01*
X018882Y019299D01*
X018788Y019335D01*
X018217Y019496D01*
X018119Y019516D01*
X018020Y019531D01*
X017406Y019579D01*
X017304Y019579D01*
X017197Y019575D01*
X016595Y019496D01*
X016496Y019476D01*
X016402Y019453D01*
X015839Y019264D01*
X015752Y019224D01*
X015158Y018890D01*
X015079Y018835D01*
X014563Y018402D01*
X014493Y018331D01*
X014071Y017803D01*
X014016Y017724D01*
X013701Y017122D01*
X013662Y017031D01*
X013626Y016937D01*
X013465Y016366D01*
X013445Y016268D01*
X013430Y016169D01*
X013382Y015555D01*
X014032Y015555D01*
X014244Y015551D01*
X015111Y015551D01*
X015020Y015614D01*
X014933Y015685D01*
X014859Y015764D01*
X014792Y015850D01*
X014729Y015941D01*
X014678Y016035D01*
X014638Y016138D01*
X014607Y016244D01*
X014583Y016350D01*
X014571Y016461D01*
X014571Y016571D01*
X014583Y016677D01*
X014603Y016787D01*
X014634Y016890D01*
X014674Y016992D01*
X014721Y017091D01*
X014780Y017185D01*
X014851Y017268D01*
X014926Y017350D01*
X015008Y017421D01*
X015095Y017484D01*
X015189Y017539D01*
X015292Y017587D01*
X015394Y017622D01*
X015500Y017646D01*
X015611Y017661D01*
X015717Y017665D01*
X015827Y017661D01*
X015937Y017646D01*
X016044Y017622D01*
X016146Y017583D01*
X016244Y017539D01*
X016256Y017650D01*
X016276Y017760D01*
X016304Y017866D01*
X016343Y017969D01*
X016394Y018067D01*
X016453Y018161D01*
X016520Y018252D01*
X016595Y018331D01*
X016678Y018406D01*
X016768Y018469D01*
X016863Y018524D01*
X016965Y018571D01*
X017067Y018610D01*
X017178Y018634D01*
X017284Y018654D01*
X017398Y018657D01*
X017508Y018654D01*
X017615Y018638D01*
X017725Y018610D01*
X017827Y018575D01*
X017930Y018528D01*
X018024Y018472D01*
X018115Y018406D01*
X018197Y018335D01*
X018276Y018252D01*
X018343Y018165D01*
X018402Y018071D01*
X018449Y017972D01*
X018489Y017870D01*
X018520Y017764D01*
X018540Y017654D01*
X018548Y017543D01*
X018650Y017591D01*
X018752Y017626D01*
X018863Y017654D01*
X018969Y017669D01*
X019079Y017677D01*
X019189Y017673D01*
X019300Y017657D01*
X019410Y017634D01*
X019512Y017598D01*
X019615Y017551D01*
X019709Y017496D01*
X019800Y017433D01*
X019882Y017362D01*
X019961Y017283D01*
X020028Y017197D01*
X020087Y017102D01*
X020102Y017074D02*
X021131Y017074D01*
X021140Y017045D02*
X020117Y017045D01*
X020131Y017017D02*
X021150Y017017D01*
X021160Y016989D02*
X020144Y016989D01*
X020155Y016960D02*
X021169Y016960D01*
X021179Y016932D02*
X020166Y016932D01*
X020177Y016903D02*
X021188Y016903D01*
X021198Y016875D02*
X020185Y016875D01*
X020194Y016847D02*
X021208Y016847D01*
X021217Y016818D02*
X020202Y016818D01*
X020210Y016790D02*
X021227Y016790D01*
X021237Y016761D02*
X020215Y016761D01*
X020220Y016733D02*
X021246Y016733D01*
X021256Y016704D02*
X020225Y016704D01*
X020230Y016676D02*
X021265Y016676D01*
X021275Y016648D02*
X020233Y016648D01*
X020236Y016619D02*
X021285Y016619D01*
X021294Y016591D02*
X020239Y016591D01*
X020241Y016562D02*
X021304Y016562D01*
X021304Y016563D02*
X021115Y017122D01*
X021111Y017131D02*
X020069Y017131D01*
X020052Y017159D02*
X021098Y017159D01*
X021086Y017188D02*
X020034Y017188D01*
X020013Y017216D02*
X021073Y017216D01*
X021057Y017244D02*
X019991Y017244D01*
X019969Y017273D02*
X021041Y017273D01*
X021025Y017301D02*
X019943Y017301D01*
X019915Y017330D02*
X021009Y017330D01*
X020993Y017358D02*
X019886Y017358D01*
X019854Y017387D02*
X020977Y017387D01*
X020961Y017415D02*
X019821Y017415D01*
X019785Y017443D02*
X020944Y017443D01*
X020928Y017472D02*
X019744Y017472D01*
X019702Y017500D02*
X020912Y017500D01*
X020896Y017529D02*
X019653Y017529D01*
X019602Y017557D02*
X020880Y017557D01*
X020864Y017585D02*
X019540Y017585D01*
X019467Y017614D02*
X020848Y017614D01*
X020832Y017642D02*
X019370Y017642D01*
X019207Y017671D02*
X020816Y017671D01*
X020799Y017699D02*
X018532Y017699D01*
X018537Y017671D02*
X018989Y017671D01*
X018818Y017642D02*
X018541Y017642D01*
X018543Y017614D02*
X018717Y017614D01*
X018639Y017585D02*
X018545Y017585D01*
X018547Y017557D02*
X018577Y017557D01*
X018527Y017728D02*
X020783Y017728D01*
X020767Y017756D02*
X018521Y017756D01*
X018514Y017784D02*
X020751Y017784D01*
X020734Y017813D02*
X018506Y017813D01*
X018497Y017841D02*
X020715Y017841D01*
X020696Y017870D02*
X018489Y017870D01*
X018478Y017898D02*
X020675Y017898D01*
X020651Y017927D02*
X018467Y017927D01*
X018456Y017955D02*
X020627Y017955D01*
X020604Y017983D02*
X018444Y017983D01*
X018430Y018012D02*
X020580Y018012D01*
X020556Y018040D02*
X018417Y018040D01*
X018403Y018069D02*
X020532Y018069D01*
X020508Y018097D02*
X018386Y018097D01*
X018368Y018125D02*
X020484Y018125D01*
X020460Y018154D02*
X018350Y018154D01*
X018330Y018182D02*
X020436Y018182D01*
X020413Y018211D02*
X018308Y018211D01*
X018286Y018239D02*
X020389Y018239D01*
X020365Y018268D02*
X018261Y018268D01*
X018234Y018296D02*
X020341Y018296D01*
X020317Y018324D02*
X018207Y018324D01*
X018176Y018353D02*
X020293Y018353D01*
X020269Y018381D02*
X018143Y018381D01*
X018109Y018410D02*
X020244Y018410D01*
X020214Y018438D02*
X018070Y018438D01*
X018032Y018467D02*
X020184Y018467D01*
X020148Y018495D02*
X017985Y018495D01*
X017937Y018523D02*
X020113Y018523D01*
X020077Y018552D02*
X017877Y018552D01*
X017811Y018580D02*
X020042Y018580D01*
X020006Y018609D02*
X017729Y018609D01*
X017617Y018637D02*
X019970Y018637D01*
X019935Y018665D02*
X014878Y018665D01*
X014844Y018637D02*
X017195Y018637D01*
X017063Y018609D02*
X014810Y018609D01*
X014776Y018580D02*
X016989Y018580D01*
X016924Y018552D02*
X014742Y018552D01*
X014708Y018523D02*
X016862Y018523D01*
X016813Y018495D02*
X014675Y018495D01*
X014641Y018467D02*
X016765Y018467D01*
X016724Y018438D02*
X014607Y018438D01*
X014573Y018410D02*
X016684Y018410D01*
X016651Y018381D02*
X014543Y018381D01*
X014515Y018353D02*
X016619Y018353D01*
X016589Y018324D02*
X014488Y018324D01*
X014465Y018296D02*
X016562Y018296D01*
X016535Y018268D02*
X014442Y018268D01*
X014419Y018239D02*
X016511Y018239D01*
X016490Y018211D02*
X014397Y018211D01*
X014374Y018182D02*
X016469Y018182D01*
X016448Y018154D02*
X014351Y018154D01*
X014329Y018125D02*
X016431Y018125D01*
X016413Y018097D02*
X014306Y018097D01*
X014283Y018069D02*
X016395Y018069D01*
X016380Y018040D02*
X014261Y018040D01*
X014238Y018012D02*
X016365Y018012D01*
X016351Y017983D02*
X014215Y017983D01*
X014192Y017955D02*
X016338Y017955D01*
X016327Y017927D02*
X014170Y017927D01*
X014147Y017898D02*
X016316Y017898D01*
X016305Y017870D02*
X014124Y017870D01*
X014102Y017841D02*
X016297Y017841D01*
X016290Y017813D02*
X014079Y017813D01*
X014058Y017784D02*
X016282Y017784D01*
X016275Y017756D02*
X014038Y017756D01*
X014018Y017728D02*
X016270Y017728D01*
X016265Y017699D02*
X014003Y017699D01*
X013988Y017671D02*
X016260Y017671D01*
X016256Y017642D02*
X015952Y017642D01*
X016065Y017614D02*
X016252Y017614D01*
X016249Y017585D02*
X016139Y017585D01*
X016204Y017557D02*
X016246Y017557D01*
X015485Y017642D02*
X013973Y017642D01*
X013958Y017614D02*
X015371Y017614D01*
X015289Y017585D02*
X013943Y017585D01*
X013929Y017557D02*
X015228Y017557D01*
X015171Y017529D02*
X013914Y017529D01*
X013899Y017500D02*
X015122Y017500D01*
X015078Y017472D02*
X013884Y017472D01*
X013869Y017443D02*
X015039Y017443D01*
X015001Y017415D02*
X013854Y017415D01*
X013839Y017387D02*
X014968Y017387D01*
X014935Y017358D02*
X013825Y017358D01*
X013810Y017330D02*
X014907Y017330D01*
X014881Y017301D02*
X013795Y017301D01*
X013780Y017273D02*
X014855Y017273D01*
X014831Y017244D02*
X013765Y017244D01*
X013750Y017216D02*
X014806Y017216D01*
X014782Y017188D02*
X013735Y017188D01*
X013721Y017159D02*
X014764Y017159D01*
X014746Y017131D02*
X013706Y017131D01*
X013693Y017102D02*
X014728Y017102D01*
X014713Y017074D02*
X013680Y017074D01*
X013668Y017045D02*
X014699Y017045D01*
X014686Y017017D02*
X013656Y017017D01*
X013646Y016989D02*
X014672Y016989D01*
X014661Y016960D02*
X013635Y016960D01*
X013625Y016932D02*
X014650Y016932D01*
X014639Y016903D02*
X013617Y016903D01*
X013609Y016875D02*
X014630Y016875D01*
X014621Y016847D02*
X013601Y016847D01*
X013593Y016818D02*
X014612Y016818D01*
X014603Y016790D02*
X013585Y016790D01*
X013577Y016761D02*
X014598Y016761D01*
X014593Y016733D02*
X013569Y016733D01*
X013561Y016704D02*
X014588Y016704D01*
X014583Y016676D02*
X013553Y016676D01*
X013545Y016648D02*
X014580Y016648D01*
X014577Y016619D02*
X013537Y016619D01*
X013528Y016591D02*
X014573Y016591D01*
X014571Y016562D02*
X013520Y016562D01*
X013512Y016534D02*
X014571Y016534D01*
X014571Y016505D02*
X013504Y016505D01*
X013496Y016477D02*
X014571Y016477D01*
X014573Y016449D02*
X013488Y016449D01*
X013480Y016420D02*
X014576Y016420D01*
X014579Y016392D02*
X013472Y016392D01*
X013464Y016363D02*
X014582Y016363D01*
X014587Y016335D02*
X013459Y016335D01*
X013453Y016307D02*
X014593Y016307D01*
X014599Y016278D02*
X013447Y016278D01*
X013442Y016250D02*
X014605Y016250D01*
X014613Y016221D02*
X013438Y016221D01*
X013433Y016193D02*
X014622Y016193D01*
X014630Y016164D02*
X013429Y016164D01*
X013427Y016136D02*
X014639Y016136D01*
X014650Y016108D02*
X013425Y016108D01*
X013423Y016079D02*
X014661Y016079D01*
X014672Y016051D02*
X013420Y016051D01*
X013418Y016022D02*
X014685Y016022D01*
X014700Y015994D02*
X013416Y015994D01*
X013414Y015965D02*
X014715Y015965D01*
X014731Y015937D02*
X013412Y015937D01*
X013409Y015909D02*
X014751Y015909D01*
X014771Y015880D02*
X013407Y015880D01*
X013405Y015852D02*
X014791Y015852D01*
X014813Y015823D02*
X013403Y015823D01*
X013401Y015795D02*
X014835Y015795D01*
X014857Y015767D02*
X013399Y015767D01*
X013396Y015738D02*
X014883Y015738D01*
X014910Y015710D02*
X013394Y015710D01*
X013392Y015681D02*
X014938Y015681D01*
X014973Y015653D02*
X013390Y015653D01*
X013388Y015624D02*
X015008Y015624D01*
X015046Y015596D02*
X013385Y015596D01*
X013383Y015568D02*
X015087Y015568D01*
X015093Y015539D02*
X013383Y015539D01*
X013384Y015511D02*
X015052Y015511D01*
X015013Y015482D02*
X013385Y015482D01*
X013386Y015454D02*
X014980Y015454D01*
X014947Y015425D02*
X013387Y015425D01*
X013388Y015397D02*
X014917Y015397D01*
X014889Y015369D02*
X013389Y015369D01*
X013391Y015340D02*
X014860Y015340D01*
X014838Y015312D02*
X013395Y015312D01*
X013398Y015283D02*
X014816Y015283D01*
X014794Y015255D02*
X013402Y015255D01*
X013405Y015226D02*
X014776Y015226D01*
X014758Y015198D02*
X013409Y015198D01*
X013412Y015170D02*
X014740Y015170D01*
X014724Y015141D02*
X013416Y015141D01*
X013419Y015113D02*
X014708Y015113D01*
X014693Y015084D02*
X013423Y015084D01*
X013426Y015056D02*
X014679Y015056D01*
X014666Y015028D02*
X013430Y015028D01*
X013433Y014999D02*
X014654Y014999D01*
X014642Y014971D02*
X013437Y014971D01*
X013441Y014942D02*
X014633Y014942D01*
X014624Y014914D02*
X013444Y014914D01*
X013448Y014885D02*
X014616Y014885D01*
X014607Y014857D02*
X013451Y014857D01*
X013455Y014829D02*
X014602Y014829D01*
X014597Y014800D02*
X013458Y014800D01*
X013462Y014772D02*
X014591Y014772D01*
X014587Y014743D02*
X013465Y014743D01*
X013471Y014715D02*
X014583Y014715D01*
X014580Y014686D02*
X013476Y014686D01*
X013482Y014658D02*
X014577Y014658D01*
X014575Y014630D02*
X013489Y014630D01*
X013496Y014601D02*
X014575Y014601D01*
X014575Y014573D02*
X013503Y014573D01*
X013511Y014544D02*
X014575Y014544D01*
X014576Y014516D02*
X013520Y014516D01*
X013530Y014488D02*
X014580Y014488D01*
X014583Y014459D02*
X013540Y014459D01*
X013550Y014431D02*
X014586Y014431D01*
X014590Y014402D02*
X013559Y014402D01*
X013569Y014374D02*
X014595Y014374D01*
X014601Y014345D02*
X013579Y014345D01*
X013589Y014317D02*
X014606Y014317D01*
X014614Y014289D02*
X013598Y014289D01*
X013608Y014260D02*
X014622Y014260D01*
X014631Y014232D02*
X013618Y014232D01*
X013627Y014203D02*
X014640Y014203D01*
X014651Y014175D02*
X013637Y014175D01*
X013647Y014146D02*
X014662Y014146D01*
X014673Y014118D02*
X013657Y014118D01*
X013666Y014090D02*
X014686Y014090D01*
X014701Y014061D02*
X013676Y014061D01*
X013686Y014033D02*
X014716Y014033D01*
X014731Y014004D02*
X013696Y014004D01*
X013707Y013976D02*
X014750Y013976D01*
X014768Y013948D02*
X013720Y013948D01*
X013733Y013919D02*
X014787Y013919D01*
X014808Y013891D02*
X013747Y013891D01*
X013762Y013862D02*
X014830Y013862D01*
X014852Y013834D02*
X013778Y013834D01*
X013794Y013805D02*
X014879Y013805D01*
X014906Y013777D02*
X013810Y013777D01*
X013826Y013749D02*
X014933Y013749D01*
X014966Y013720D02*
X013841Y013720D01*
X013857Y013692D02*
X014999Y013692D01*
X015035Y013663D02*
X013873Y013663D01*
X013889Y013635D02*
X015074Y013635D01*
X015116Y013606D02*
X013905Y013606D01*
X013921Y013578D02*
X015165Y013578D01*
X015220Y013550D02*
X013936Y013550D01*
X013952Y013521D02*
X015287Y013521D01*
X015366Y013493D02*
X013968Y013493D01*
X013984Y013464D02*
X015464Y013464D01*
X015975Y013464D02*
X016264Y013464D01*
X016268Y013436D02*
X014000Y013436D01*
X014015Y013408D02*
X016273Y013408D01*
X016278Y013379D02*
X014031Y013379D01*
X014047Y013351D02*
X016283Y013351D01*
X016290Y013322D02*
X014063Y013322D01*
X014081Y013294D02*
X016298Y013294D01*
X016305Y013265D02*
X014100Y013265D01*
X014120Y013237D02*
X016313Y013237D01*
X016324Y013209D02*
X014143Y013209D01*
X014167Y013180D02*
X016334Y013180D01*
X016345Y013152D02*
X014191Y013152D01*
X014215Y013123D02*
X016358Y013123D01*
X016373Y013095D02*
X014239Y013095D01*
X014264Y013066D02*
X016388Y013066D01*
X016403Y013038D02*
X014288Y013038D01*
X014312Y013010D02*
X016421Y013010D01*
X016440Y012981D02*
X014336Y012981D01*
X014360Y012953D02*
X016458Y012953D01*
X016479Y012924D02*
X014384Y012924D01*
X014408Y012896D02*
X016500Y012896D01*
X016521Y012868D02*
X014432Y012868D01*
X014456Y012839D02*
X016546Y012839D01*
X016573Y012811D02*
X014480Y012811D01*
X014504Y012782D02*
X016600Y012782D01*
X016631Y012754D02*
X014528Y012754D01*
X014553Y012725D02*
X016663Y012725D01*
X016697Y012697D02*
X014579Y012697D01*
X014607Y012669D02*
X016737Y012669D01*
X016779Y012640D02*
X014637Y012640D01*
X014672Y012612D02*
X016827Y012612D01*
X016877Y012583D02*
X014708Y012583D01*
X014743Y012555D02*
X016937Y012555D01*
X017008Y012526D02*
X014778Y012526D01*
X014813Y012498D02*
X017098Y012498D01*
X017229Y012470D02*
X014849Y012470D01*
X014884Y012441D02*
X019932Y012441D01*
X019899Y012413D02*
X014919Y012413D01*
X014955Y012384D02*
X019865Y012384D01*
X019831Y012356D02*
X014990Y012356D01*
X015025Y012328D02*
X019798Y012328D01*
X019764Y012299D02*
X015060Y012299D01*
X015096Y012271D02*
X019729Y012271D01*
X019687Y012242D02*
X015131Y012242D01*
X015167Y012214D02*
X019642Y012214D01*
X019591Y012185D02*
X015208Y012185D01*
X015253Y012157D02*
X019541Y012157D01*
X019490Y012129D02*
X015307Y012129D01*
X015361Y012100D02*
X019439Y012100D01*
X019388Y012072D02*
X015416Y012072D01*
X015470Y012043D02*
X019338Y012043D01*
X019287Y012015D02*
X015524Y012015D01*
X015579Y011986D02*
X019236Y011986D01*
X019185Y011958D02*
X015633Y011958D01*
X015687Y011930D02*
X019135Y011930D01*
X019084Y011901D02*
X015742Y011901D01*
X015796Y011873D02*
X019024Y011873D01*
X018955Y011844D02*
X015853Y011844D01*
X015918Y011816D02*
X018870Y011816D01*
X018814Y013464D02*
X018541Y013464D01*
X018544Y013493D02*
X018716Y013493D01*
X018639Y013521D02*
X018547Y013521D01*
X018550Y013550D02*
X018579Y013550D01*
X016262Y013493D02*
X016076Y013493D01*
X016157Y013521D02*
X016260Y013521D01*
X016258Y013550D02*
X016219Y013550D01*
X019718Y015568D02*
X021429Y015568D01*
X021430Y015555D02*
X021426Y015661D01*
X021422Y015764D01*
X021347Y016366D01*
X021327Y016465D01*
X021304Y016563D01*
X021311Y016534D02*
X020241Y016534D01*
X020241Y016505D02*
X021317Y016505D01*
X021324Y016477D02*
X020241Y016477D01*
X020239Y016449D02*
X021330Y016449D01*
X021336Y016420D02*
X020236Y016420D01*
X020233Y016392D02*
X021342Y016392D01*
X021347Y016363D02*
X020230Y016363D01*
X020224Y016335D02*
X021351Y016335D01*
X021354Y016307D02*
X020218Y016307D01*
X020212Y016278D02*
X021358Y016278D01*
X021361Y016250D02*
X020205Y016250D01*
X020197Y016221D02*
X021365Y016221D01*
X021368Y016193D02*
X020189Y016193D01*
X020180Y016164D02*
X021372Y016164D01*
X021375Y016136D02*
X020171Y016136D01*
X020159Y016108D02*
X021379Y016108D01*
X021382Y016079D02*
X020147Y016079D01*
X020135Y016051D02*
X021386Y016051D01*
X021390Y016022D02*
X020121Y016022D01*
X020107Y015994D02*
X021393Y015994D01*
X021397Y015965D02*
X020092Y015965D01*
X020076Y015937D02*
X021400Y015937D01*
X021404Y015909D02*
X020057Y015909D01*
X020037Y015880D02*
X021407Y015880D01*
X021411Y015852D02*
X020017Y015852D01*
X019995Y015823D02*
X021414Y015823D01*
X021418Y015795D02*
X019973Y015795D01*
X019951Y015767D02*
X021421Y015767D01*
X021423Y015738D02*
X019924Y015738D01*
X019895Y015710D02*
X021424Y015710D01*
X021425Y015681D02*
X019866Y015681D01*
X019833Y015653D02*
X021426Y015653D01*
X021427Y015624D02*
X019800Y015624D01*
X019760Y015596D02*
X021428Y015596D01*
X019899Y018694D02*
X014912Y018694D01*
X014945Y018722D02*
X019864Y018722D01*
X019828Y018751D02*
X014979Y018751D01*
X015013Y018779D02*
X019792Y018779D01*
X019757Y018808D02*
X015047Y018808D01*
X015081Y018836D02*
X019721Y018836D01*
X019686Y018864D02*
X015122Y018864D01*
X015163Y018893D02*
X019650Y018893D01*
X019609Y018921D02*
X015214Y018921D01*
X015264Y018950D02*
X019566Y018950D01*
X019512Y018978D02*
X015315Y018978D01*
X015365Y019007D02*
X019459Y019007D01*
X019405Y019035D02*
X015416Y019035D01*
X015466Y019063D02*
X019351Y019063D01*
X019298Y019092D02*
X015517Y019092D01*
X015567Y019120D02*
X019244Y019120D01*
X019190Y019149D02*
X015618Y019149D01*
X015668Y019177D02*
X019137Y019177D01*
X019083Y019206D02*
X015719Y019206D01*
X015773Y019234D02*
X019029Y019234D01*
X018976Y019262D02*
X015836Y019262D01*
X015919Y019291D02*
X018904Y019291D01*
X018829Y019319D02*
X016004Y019319D01*
X016089Y019348D02*
X018742Y019348D01*
X018641Y019376D02*
X016173Y019376D01*
X016258Y019404D02*
X018541Y019404D01*
X018440Y019433D02*
X016343Y019433D01*
X016436Y019461D02*
X018340Y019461D01*
X018239Y019490D02*
X016563Y019490D01*
X016764Y019518D02*
X018104Y019518D01*
X017824Y019547D02*
X016981Y019547D01*
X017202Y019575D02*
X017455Y019575D01*
D11*
X017400Y018500D02*
X017400Y021550D01*
X013500Y018150D02*
X013500Y017800D01*
X014842Y017027D01*
X017400Y004650D02*
X017914Y004667D01*
X018427Y004709D01*
X018937Y004776D01*
X019443Y004866D01*
X019944Y004981D01*
X020440Y005119D01*
X020928Y005281D01*
X021408Y005466D01*
X021878Y005673D01*
X022338Y005903D01*
X022787Y006154D01*
X023223Y006426D01*
X023646Y006719D01*
X024055Y007031D01*
X024448Y007363D01*
X024825Y007713D01*
X025185Y008080D01*
X025527Y008464D01*
X025850Y008864D01*
X026154Y009279D01*
X026437Y009708D01*
X026700Y010150D01*
X025506Y010857D01*
X022562Y012557D02*
X019958Y014074D01*
X011250Y009800D02*
X011389Y009444D01*
X011545Y009096D01*
X011718Y008755D01*
X011906Y008423D01*
X012111Y008101D01*
X012330Y007788D01*
X012564Y007486D01*
X012812Y007196D01*
X013073Y006918D01*
X013348Y006653D01*
X013635Y006401D01*
X013933Y006163D01*
X014243Y005939D01*
X014562Y005730D01*
X014892Y005537D01*
X015230Y005360D01*
X015576Y005199D01*
X015930Y005054D01*
X016289Y004927D01*
X016655Y004817D01*
X017025Y004724D01*
X017400Y004649D01*
X017400Y004650D02*
X017400Y006150D01*
X017400Y009550D02*
X017399Y012596D01*
X014842Y014073D02*
X013450Y013250D01*
X013450Y012000D01*
X013448Y011895D01*
X013440Y011791D01*
X013428Y011687D01*
X013410Y011584D01*
X013388Y011481D01*
X013361Y011380D01*
X013329Y011280D01*
X013292Y011182D01*
X013251Y011086D01*
X013205Y010992D01*
X013155Y010900D01*
X013101Y010811D01*
X013042Y010724D01*
X012979Y010640D01*
X012913Y010559D01*
X012842Y010482D01*
X012768Y010408D01*
X012691Y010337D01*
X012610Y010271D01*
X012526Y010208D01*
X012439Y010149D01*
X012350Y010095D01*
X012258Y010045D01*
X012164Y009999D01*
X012068Y009958D01*
X011970Y009921D01*
X011870Y009889D01*
X011769Y009862D01*
X011666Y009840D01*
X011563Y009822D01*
X011459Y009810D01*
X011355Y009802D01*
X011250Y009800D01*
X010350Y011100D01*
X026700Y010150D02*
X026948Y010600D01*
X027175Y011061D01*
X027380Y011533D01*
X027562Y012013D01*
X027720Y012502D01*
X027856Y012998D01*
X027967Y013500D01*
X028055Y014007D01*
X028118Y014517D01*
X028157Y015029D01*
X028172Y015543D01*
X028162Y016057D01*
X028128Y016570D01*
X028069Y017080D01*
X027986Y017588D01*
X027879Y018091D01*
X027748Y018588D01*
X027594Y019078D01*
X027417Y019560D01*
X027217Y020034D01*
X026994Y020497D01*
X026750Y020950D01*
X025544Y020250D01*
X022600Y018550D02*
X019957Y017028D01*
X026750Y020950D02*
X026481Y021387D01*
X026192Y021810D01*
X025883Y022220D01*
X025556Y022614D01*
X025209Y022992D01*
X024845Y023353D01*
X024465Y023696D01*
X024068Y024021D01*
X023656Y024327D01*
X023231Y024612D01*
X022792Y024878D01*
X022341Y025122D01*
X021879Y025344D01*
X021407Y025544D01*
X020926Y025721D01*
X020437Y025875D01*
X019941Y026006D01*
X019440Y026113D01*
X018934Y026196D01*
X018424Y026255D01*
X017913Y026290D01*
X017400Y026300D01*
X017400Y024950D01*
X011900Y019750D02*
X010850Y019000D01*
X011900Y019750D02*
X011979Y019748D01*
X012057Y019742D01*
X012135Y019733D01*
X012212Y019719D01*
X012289Y019702D01*
X012364Y019681D01*
X012439Y019656D01*
X012512Y019628D01*
X012584Y019596D01*
X012654Y019561D01*
X012723Y019522D01*
X012789Y019480D01*
X012853Y019435D01*
X012915Y019387D01*
X012974Y019336D01*
X013031Y019281D01*
X013086Y019224D01*
X013137Y019165D01*
X013185Y019103D01*
X013230Y019039D01*
X013272Y018973D01*
X013311Y018904D01*
X013346Y018834D01*
X013378Y018762D01*
X013406Y018689D01*
X013431Y018614D01*
X013452Y018539D01*
X013469Y018462D01*
X013483Y018385D01*
X013492Y018307D01*
X013498Y018229D01*
X013500Y018150D01*
D12*
X014067Y017661D03*
X013910Y017386D03*
X011567Y019335D03*
X011410Y019571D03*
X011650Y020500D03*
X011650Y021000D03*
X011650Y021500D03*
X011650Y022000D03*
X011650Y022500D03*
X011650Y023000D03*
X011650Y023500D03*
X011650Y024000D03*
X011650Y024500D03*
X011650Y025000D03*
X011650Y025500D03*
X011650Y026000D03*
X011650Y026500D03*
X017150Y026500D03*
X017150Y026250D03*
X017237Y025752D03*
X017552Y025752D03*
X017150Y026800D03*
X026233Y020811D03*
X026390Y020555D03*
X026950Y021050D03*
X027300Y021250D03*
X027650Y021450D03*
X028000Y021650D03*
X028350Y021850D03*
X021804Y018272D03*
X021941Y017996D03*
X021550Y017600D03*
X020918Y017406D03*
X020760Y017661D03*
X021300Y018150D03*
X017532Y019512D03*
X017256Y019512D03*
X017150Y020150D03*
X017650Y020150D03*
X017552Y020732D03*
X017256Y020732D03*
X013890Y013685D03*
X014048Y013429D03*
X017256Y011559D03*
X017552Y011559D03*
X017650Y010950D03*
X017100Y010950D03*
X017256Y010398D03*
X017552Y010398D03*
X021250Y012950D03*
X021823Y012819D03*
X021961Y013055D03*
X021550Y013450D03*
X020918Y013685D03*
X020760Y013429D03*
X026154Y010299D03*
X026331Y010575D03*
X027000Y010000D03*
X027250Y009850D03*
X027500Y009750D03*
X027750Y009550D03*
X028050Y009400D03*
X028350Y009250D03*
X017552Y005299D03*
X017256Y005299D03*
X017150Y004400D03*
X017150Y004150D03*
X010900Y004250D03*
X010900Y004750D03*
X010900Y005250D03*
X010900Y005750D03*
X010900Y006250D03*
X010900Y006750D03*
X010900Y007250D03*
X010900Y007750D03*
X010900Y008250D03*
X010900Y008750D03*
X010900Y009250D03*
X010900Y009750D03*
X010721Y010260D03*
X010996Y010437D03*
X003044Y010299D03*
X002847Y010437D03*
X002650Y010000D03*
X002150Y010000D03*
X001650Y010000D03*
X001150Y010000D03*
X000650Y010000D03*
X000650Y019500D03*
X001150Y019500D03*
X001650Y019500D03*
X002217Y019413D03*
X002355Y019610D03*
D13*
X016070Y016300D03*
X016070Y015800D03*
X016070Y015300D03*
X016070Y014800D03*
X018720Y014800D03*
X018720Y015300D03*
X018720Y015800D03*
X018720Y016300D03*
D14*
X017656Y017050D03*
X017144Y017050D03*
X017144Y017550D03*
X017656Y017550D03*
D15*
X017400Y018500D03*
X019957Y017028D03*
X022600Y018550D03*
X025544Y020250D03*
X017400Y021550D03*
X017400Y024950D03*
X010850Y019000D03*
X014842Y017027D03*
X014842Y014073D03*
X017399Y012596D03*
X019958Y014074D03*
X022562Y012557D03*
X025506Y010857D03*
X017400Y009550D03*
X017400Y006150D03*
X010350Y011100D03*
X003450Y011100D03*
X002950Y019000D03*
D16*
X002769Y019151D02*
X002146Y019151D01*
X002127Y019091D02*
X002106Y018949D01*
X002107Y018806D01*
X002129Y018665D01*
X002173Y018529D01*
X002237Y018402D01*
X002320Y018285D01*
X002420Y018183D01*
X002414Y018351D01*
X002432Y018518D01*
X002474Y018682D01*
X002538Y018837D01*
X002624Y018982D01*
X002729Y019113D01*
X002853Y019228D01*
X002991Y019324D01*
X003141Y019400D01*
X003301Y019453D01*
X003466Y019483D01*
X003635Y019489D01*
X003802Y019472D01*
X003707Y019578D01*
X003597Y019669D01*
X003474Y019742D01*
X003341Y019795D01*
X003202Y019828D01*
X003060Y019838D01*
X002917Y019827D01*
X002778Y019794D01*
X002646Y019740D01*
X002523Y019667D01*
X002413Y019576D01*
X002314Y019473D01*
X002233Y019355D01*
X002170Y019227D01*
X002127Y019091D01*
X002124Y019072D02*
X002696Y019072D01*
X002633Y018994D02*
X002113Y018994D01*
X002106Y018915D02*
X002584Y018915D01*
X002538Y018837D02*
X002107Y018837D01*
X002115Y018758D02*
X002505Y018758D01*
X002473Y018680D02*
X002127Y018680D01*
X002150Y018601D02*
X002453Y018601D01*
X002433Y018523D02*
X002177Y018523D01*
X002216Y018444D02*
X002424Y018444D01*
X002416Y018366D02*
X002263Y018366D01*
X002319Y018287D02*
X002416Y018287D01*
X002419Y018209D02*
X002395Y018209D01*
X002171Y019229D02*
X002854Y019229D01*
X002967Y019308D02*
X002209Y019308D01*
X002254Y019386D02*
X003114Y019386D01*
X003364Y019465D02*
X002309Y019465D01*
X002382Y019543D02*
X003738Y019543D01*
X003654Y019622D02*
X002468Y019622D01*
X002578Y019700D02*
X003545Y019700D01*
X003383Y019779D02*
X002739Y019779D01*
X009998Y019472D02*
X010165Y019489D01*
X010334Y019483D01*
X010499Y019453D01*
X010659Y019400D01*
X010809Y019324D01*
X010947Y019228D01*
X011071Y019113D01*
X011176Y018982D01*
X011262Y018837D01*
X011326Y018682D01*
X011368Y018518D01*
X011386Y018351D01*
X011380Y018183D01*
X011480Y018285D01*
X011563Y018402D01*
X011627Y018529D01*
X011671Y018665D01*
X011693Y018806D01*
X011694Y018949D01*
X011673Y019091D01*
X011630Y019227D01*
X011567Y019355D01*
X011486Y019473D01*
X011387Y019576D01*
X011277Y019667D01*
X011154Y019740D01*
X011022Y019794D01*
X010883Y019827D01*
X010740Y019838D01*
X010598Y019828D01*
X010459Y019795D01*
X010326Y019742D01*
X010203Y019669D01*
X010093Y019578D01*
X009998Y019472D01*
X010062Y019543D02*
X011418Y019543D01*
X011491Y019465D02*
X010436Y019465D01*
X010686Y019386D02*
X011546Y019386D01*
X011591Y019308D02*
X010833Y019308D01*
X010946Y019229D02*
X011629Y019229D01*
X011654Y019151D02*
X011031Y019151D01*
X011104Y019072D02*
X011676Y019072D01*
X011687Y018994D02*
X011167Y018994D01*
X011216Y018915D02*
X011694Y018915D01*
X011693Y018837D02*
X011262Y018837D01*
X011295Y018758D02*
X011685Y018758D01*
X011673Y018680D02*
X011327Y018680D01*
X011347Y018601D02*
X011650Y018601D01*
X011623Y018523D02*
X011367Y018523D01*
X011376Y018444D02*
X011584Y018444D01*
X011537Y018366D02*
X011384Y018366D01*
X011384Y018287D02*
X011481Y018287D01*
X011405Y018209D02*
X011381Y018209D01*
X011332Y019622D02*
X010146Y019622D01*
X010255Y019700D02*
X011222Y019700D01*
X011061Y019779D02*
X010417Y019779D01*
X014160Y017421D02*
X014239Y017540D01*
X014334Y017646D01*
X014445Y017736D01*
X014569Y017808D01*
X014702Y017861D01*
X014841Y017892D01*
X014984Y017902D01*
X015126Y017890D01*
X015265Y017856D01*
X015397Y017801D01*
X015519Y017727D01*
X015354Y017695D01*
X015195Y017640D01*
X015045Y017563D01*
X014908Y017465D01*
X014786Y017349D01*
X014682Y017216D01*
X014598Y017071D01*
X014535Y016914D01*
X014496Y016751D01*
X014479Y016583D01*
X014487Y016415D01*
X014519Y016250D01*
X014574Y016091D01*
X014449Y016159D01*
X014335Y016246D01*
X014237Y016350D01*
X014155Y016467D01*
X014092Y016595D01*
X014050Y016732D01*
X014029Y016873D01*
X014029Y017016D01*
X014052Y017157D01*
X014096Y017293D01*
X014160Y017421D01*
X014162Y017424D02*
X014864Y017424D01*
X014783Y017345D02*
X014122Y017345D01*
X014087Y017267D02*
X014721Y017267D01*
X014666Y017188D02*
X014062Y017188D01*
X014044Y017110D02*
X014620Y017110D01*
X014582Y017031D02*
X014032Y017031D01*
X014029Y016953D02*
X014551Y016953D01*
X014525Y016874D02*
X014029Y016874D01*
X014040Y016796D02*
X014506Y016796D01*
X014492Y016717D02*
X014054Y016717D01*
X014079Y016639D02*
X014485Y016639D01*
X014481Y016560D02*
X014109Y016560D01*
X014148Y016482D02*
X014484Y016482D01*
X014490Y016403D02*
X014200Y016403D01*
X014261Y016325D02*
X014505Y016325D01*
X014520Y016246D02*
X014336Y016246D01*
X014438Y016168D02*
X014547Y016168D01*
X014574Y015009D02*
X014519Y014850D01*
X014487Y014685D01*
X014479Y014517D01*
X014495Y014349D01*
X014535Y014186D01*
X014598Y014029D01*
X014682Y013884D01*
X014786Y013751D01*
X014908Y013635D01*
X015045Y013537D01*
X015195Y013460D01*
X015354Y013405D01*
X015519Y013373D01*
X015397Y013299D01*
X015265Y013244D01*
X015126Y013210D01*
X014983Y013198D01*
X014841Y013208D01*
X014702Y013239D01*
X014569Y013292D01*
X014445Y013364D01*
X014334Y013454D01*
X014238Y013560D01*
X014160Y013679D01*
X014096Y013807D01*
X014052Y013943D01*
X014029Y014084D01*
X014029Y014227D01*
X014050Y014368D01*
X014092Y014505D01*
X014155Y014633D01*
X014237Y014750D01*
X014335Y014854D01*
X014449Y014941D01*
X014574Y015009D01*
X014567Y014990D02*
X014539Y014990D01*
X014540Y014912D02*
X014411Y014912D01*
X014316Y014833D02*
X014516Y014833D01*
X014501Y014755D02*
X014241Y014755D01*
X014185Y014676D02*
X014487Y014676D01*
X014483Y014598D02*
X014138Y014598D01*
X014099Y014519D02*
X014480Y014519D01*
X014487Y014441D02*
X014072Y014441D01*
X014049Y014362D02*
X014494Y014362D01*
X014511Y014284D02*
X014037Y014284D01*
X014029Y014205D02*
X014531Y014205D01*
X014559Y014127D02*
X014029Y014127D01*
X014035Y014048D02*
X014590Y014048D01*
X014632Y013970D02*
X014048Y013970D01*
X014069Y013891D02*
X014678Y013891D01*
X014738Y013813D02*
X014094Y013813D01*
X014133Y013734D02*
X014804Y013734D01*
X014886Y013656D02*
X014176Y013656D01*
X014227Y013577D02*
X014989Y013577D01*
X015120Y013499D02*
X014294Y013499D01*
X014376Y013420D02*
X015310Y013420D01*
X015310Y013263D02*
X014642Y013263D01*
X014483Y013342D02*
X015467Y013342D01*
X016454Y012833D02*
X016564Y012706D01*
X016691Y012595D01*
X016833Y012504D01*
X016986Y012435D01*
X017148Y012387D01*
X017314Y012363D01*
X017483Y012363D01*
X017649Y012387D01*
X017811Y012435D01*
X017964Y012504D01*
X018106Y012595D01*
X018233Y012706D01*
X018344Y012833D01*
X018347Y012690D01*
X018328Y012548D01*
X018288Y012411D01*
X018227Y012282D01*
X018147Y012163D01*
X018050Y012058D01*
X017939Y011969D01*
X017815Y011898D01*
X017681Y011847D01*
X017541Y011817D01*
X017399Y011809D01*
X017256Y011817D01*
X017116Y011847D01*
X016983Y011898D01*
X016859Y011969D01*
X016747Y012058D01*
X016650Y012163D01*
X016570Y012282D01*
X016510Y012411D01*
X016469Y012548D01*
X016451Y012690D01*
X016454Y012833D01*
X016453Y012792D02*
X016489Y012792D01*
X016451Y012714D02*
X016557Y012714D01*
X016646Y012635D02*
X016458Y012635D01*
X016468Y012557D02*
X016752Y012557D01*
X016891Y012478D02*
X016490Y012478D01*
X016515Y012400D02*
X017106Y012400D01*
X016722Y012086D02*
X018076Y012086D01*
X018148Y012164D02*
X016649Y012164D01*
X016597Y012243D02*
X018201Y012243D01*
X018246Y012321D02*
X016552Y012321D01*
X016811Y012007D02*
X017986Y012007D01*
X017867Y011929D02*
X016930Y011929D01*
X017109Y011850D02*
X017688Y011850D01*
X017692Y012400D02*
X018282Y012400D01*
X018307Y012478D02*
X017906Y012478D01*
X018045Y012557D02*
X018329Y012557D01*
X018339Y012635D02*
X018152Y012635D01*
X018240Y012714D02*
X018346Y012714D01*
X018344Y012792D02*
X018308Y012792D01*
X019281Y013374D02*
X019446Y013406D01*
X019605Y013461D01*
X019754Y013538D01*
X019892Y013636D01*
X020013Y013752D01*
X020117Y013884D01*
X020202Y014030D01*
X020264Y014187D01*
X020304Y014350D01*
X020320Y014518D01*
X020312Y014686D01*
X020280Y014851D01*
X020225Y015010D01*
X020351Y014942D01*
X020464Y014855D01*
X020563Y014751D01*
X020644Y014634D01*
X020707Y014506D01*
X020750Y014369D01*
X020771Y014228D01*
X020770Y014085D01*
X020748Y013944D01*
X020704Y013808D01*
X020639Y013680D01*
X020561Y013561D01*
X020465Y013455D01*
X020354Y013365D01*
X020231Y013293D01*
X020098Y013240D01*
X019959Y013209D01*
X019816Y013199D01*
X019674Y013211D01*
X019535Y013245D01*
X019403Y013300D01*
X019281Y013374D01*
X019334Y013342D02*
X020314Y013342D01*
X020422Y013420D02*
X019487Y013420D01*
X019491Y013263D02*
X020156Y013263D01*
X020505Y013499D02*
X019678Y013499D01*
X019809Y013577D02*
X020572Y013577D01*
X020623Y013656D02*
X019912Y013656D01*
X019994Y013734D02*
X020666Y013734D01*
X020705Y013813D02*
X020061Y013813D01*
X020121Y013891D02*
X020730Y013891D01*
X020752Y013970D02*
X020167Y013970D01*
X020209Y014048D02*
X020764Y014048D01*
X020770Y014127D02*
X020240Y014127D01*
X020269Y014205D02*
X020771Y014205D01*
X020763Y014284D02*
X020288Y014284D01*
X020305Y014362D02*
X020751Y014362D01*
X020728Y014441D02*
X020313Y014441D01*
X020320Y014519D02*
X020701Y014519D01*
X020662Y014598D02*
X020316Y014598D01*
X020313Y014676D02*
X020615Y014676D01*
X020560Y014755D02*
X020299Y014755D01*
X020284Y014833D02*
X020485Y014833D01*
X020390Y014912D02*
X020260Y014912D01*
X020263Y014990D02*
X020232Y014990D01*
X020225Y016091D02*
X020279Y016250D01*
X020311Y016416D01*
X020319Y016584D01*
X020303Y016752D01*
X020263Y016915D01*
X020201Y017071D01*
X020117Y017217D01*
X020013Y017350D01*
X019891Y017466D01*
X019754Y017564D01*
X019604Y017641D01*
X019445Y017696D01*
X019280Y017728D01*
X019402Y017802D01*
X019534Y017857D01*
X019673Y017890D01*
X019815Y017903D01*
X019958Y017893D01*
X020097Y017861D01*
X020230Y017809D01*
X020353Y017737D01*
X020464Y017647D01*
X020560Y017541D01*
X020639Y017421D01*
X020703Y017294D01*
X020747Y017158D01*
X020769Y017017D01*
X020770Y016874D01*
X020273Y016874D01*
X020292Y016796D02*
X020758Y016796D01*
X020749Y016732D02*
X020770Y016874D01*
X020770Y016953D02*
X020248Y016953D01*
X020217Y017031D02*
X020767Y017031D01*
X020754Y017110D02*
X020179Y017110D01*
X020133Y017188D02*
X020737Y017188D01*
X020712Y017267D02*
X020078Y017267D01*
X020016Y017345D02*
X020677Y017345D01*
X020637Y017424D02*
X019935Y017424D01*
X019840Y017502D02*
X020586Y017502D01*
X020524Y017581D02*
X019721Y017581D01*
X019551Y017659D02*
X020449Y017659D01*
X020352Y017738D02*
X019296Y017738D01*
X019436Y017816D02*
X020212Y017816D01*
X019933Y017895D02*
X019721Y017895D01*
X018345Y018264D02*
X018235Y018391D01*
X018107Y018501D01*
X017966Y018592D01*
X017812Y018662D01*
X017651Y018709D01*
X017484Y018733D01*
X017316Y018733D01*
X017149Y018709D01*
X016988Y018662D01*
X016834Y018592D01*
X016693Y018501D01*
X016565Y018391D01*
X016455Y018264D01*
X016452Y018407D01*
X016471Y018548D01*
X016511Y018685D01*
X016572Y018815D01*
X016651Y018933D01*
X016748Y019038D01*
X016860Y019127D01*
X016984Y019198D01*
X017118Y019249D01*
X017257Y019279D01*
X017400Y019287D01*
X017543Y019279D01*
X017682Y019249D01*
X017816Y019198D01*
X017940Y019127D01*
X018052Y019038D01*
X018149Y018933D01*
X018228Y018815D01*
X018289Y018685D01*
X018329Y018548D01*
X018348Y018407D01*
X018345Y018264D01*
X018345Y018287D02*
X018325Y018287D01*
X018347Y018366D02*
X018257Y018366D01*
X018173Y018444D02*
X018343Y018444D01*
X018333Y018523D02*
X018074Y018523D01*
X017946Y018601D02*
X018314Y018601D01*
X018291Y018680D02*
X017752Y018680D01*
X018093Y018994D02*
X016707Y018994D01*
X016639Y018915D02*
X018161Y018915D01*
X018214Y018837D02*
X016586Y018837D01*
X016545Y018758D02*
X018255Y018758D01*
X018009Y019072D02*
X016791Y019072D01*
X016901Y019151D02*
X017899Y019151D01*
X017735Y019229D02*
X017065Y019229D01*
X017048Y018680D02*
X016509Y018680D01*
X016486Y018601D02*
X016854Y018601D01*
X016726Y018523D02*
X016467Y018523D01*
X016457Y018444D02*
X016627Y018444D01*
X016543Y018366D02*
X016453Y018366D01*
X016455Y018287D02*
X016475Y018287D01*
X015502Y017738D02*
X014448Y017738D01*
X014350Y017659D02*
X015250Y017659D01*
X015079Y017581D02*
X014275Y017581D01*
X014214Y017502D02*
X014960Y017502D01*
X014877Y017895D02*
X015069Y017895D01*
X015361Y017816D02*
X014588Y017816D01*
X016860Y020923D02*
X016984Y020852D01*
X017118Y020801D01*
X017257Y020771D01*
X017400Y020763D01*
X017543Y020771D01*
X017682Y020801D01*
X017816Y020852D01*
X017940Y020923D01*
X018052Y021012D01*
X018149Y021117D01*
X018228Y021235D01*
X018289Y021365D01*
X018329Y021502D01*
X018348Y021643D01*
X018345Y021786D01*
X018235Y021659D01*
X018107Y021549D01*
X017966Y021458D01*
X017812Y021388D01*
X017651Y021341D01*
X017484Y021317D01*
X017316Y021317D01*
X017149Y021341D01*
X016988Y021388D01*
X016834Y021458D01*
X016693Y021549D01*
X016565Y021659D01*
X016455Y021786D01*
X016452Y021643D01*
X016471Y021502D01*
X016511Y021365D01*
X016572Y021235D01*
X016651Y021117D01*
X016748Y021012D01*
X016860Y020923D01*
X016818Y020956D02*
X017982Y020956D01*
X018073Y021035D02*
X016727Y021035D01*
X016655Y021113D02*
X018145Y021113D01*
X018199Y021192D02*
X016601Y021192D01*
X016555Y021270D02*
X018245Y021270D01*
X018282Y021349D02*
X017678Y021349D01*
X017898Y021427D02*
X018307Y021427D01*
X018330Y021506D02*
X018040Y021506D01*
X018148Y021584D02*
X018340Y021584D01*
X018348Y021663D02*
X018238Y021663D01*
X018306Y021741D02*
X018346Y021741D01*
X017861Y020878D02*
X016939Y020878D01*
X017126Y020799D02*
X017674Y020799D01*
X017122Y021349D02*
X016518Y021349D01*
X016493Y021427D02*
X016902Y021427D01*
X016760Y021506D02*
X016470Y021506D01*
X016460Y021584D02*
X016652Y021584D01*
X016562Y021663D02*
X016452Y021663D01*
X016454Y021741D02*
X016494Y021741D01*
X016455Y024714D02*
X016565Y024841D01*
X016693Y024951D01*
X016834Y025042D01*
X016988Y025112D01*
X017149Y025159D01*
X017316Y025183D01*
X017484Y025183D01*
X017651Y025159D01*
X017812Y025112D01*
X017966Y025042D01*
X018107Y024951D01*
X018235Y024841D01*
X018345Y024714D01*
X018348Y024857D01*
X018329Y024998D01*
X018289Y025135D01*
X018228Y025265D01*
X018149Y025383D01*
X018052Y025488D01*
X017940Y025577D01*
X017816Y025648D01*
X017682Y025699D01*
X017543Y025729D01*
X017400Y025737D01*
X017257Y025729D01*
X017118Y025699D01*
X016984Y025648D01*
X016860Y025577D01*
X016748Y025488D01*
X016651Y025383D01*
X016572Y025265D01*
X016511Y025135D01*
X016471Y024998D01*
X016452Y024857D01*
X016455Y024714D01*
X016455Y024724D02*
X016464Y024724D01*
X016453Y024803D02*
X016532Y024803D01*
X016455Y024881D02*
X016612Y024881D01*
X016706Y024960D02*
X016466Y024960D01*
X016482Y025038D02*
X016828Y025038D01*
X017004Y025117D02*
X016505Y025117D01*
X016539Y025195D02*
X018261Y025195D01*
X018295Y025117D02*
X017796Y025117D01*
X017972Y025038D02*
X018318Y025038D01*
X018334Y024960D02*
X018094Y024960D01*
X018188Y024881D02*
X018345Y024881D01*
X018347Y024803D02*
X018268Y024803D01*
X018336Y024724D02*
X018345Y024724D01*
X018223Y025274D02*
X016577Y025274D01*
X016630Y025352D02*
X018170Y025352D01*
X018105Y025431D02*
X016695Y025431D01*
X016774Y025509D02*
X018026Y025509D01*
X017922Y025588D02*
X016878Y025588D01*
X017031Y025666D02*
X017769Y025666D01*
X025014Y021035D02*
X025809Y021035D01*
X025818Y021031D02*
X025685Y021084D01*
X025545Y021115D01*
X025403Y021125D01*
X025261Y021113D01*
X025122Y021079D01*
X024990Y021024D01*
X024867Y020950D01*
X025033Y020918D01*
X025192Y020863D01*
X025341Y020786D01*
X025479Y020688D01*
X025600Y020572D01*
X025704Y020440D01*
X025789Y020294D01*
X025851Y020137D01*
X025891Y019974D01*
X025907Y019806D01*
X025899Y019638D01*
X025867Y019473D01*
X025812Y019314D01*
X025938Y019382D01*
X026051Y019469D01*
X026150Y019573D01*
X026231Y019690D01*
X026294Y019818D01*
X026337Y019955D01*
X026358Y020096D01*
X026357Y020239D01*
X026334Y020380D01*
X026291Y020516D01*
X026226Y020644D01*
X026148Y020763D01*
X026052Y020869D01*
X025941Y020959D01*
X025818Y021031D01*
X025945Y020956D02*
X024877Y020956D01*
X025150Y020878D02*
X026042Y020878D01*
X026115Y020799D02*
X025316Y020799D01*
X025433Y020721D02*
X026176Y020721D01*
X026227Y020642D02*
X025527Y020642D01*
X025607Y020564D02*
X026267Y020564D01*
X026301Y020485D02*
X025669Y020485D01*
X025723Y020407D02*
X026326Y020407D01*
X026343Y020328D02*
X025769Y020328D01*
X025806Y020250D02*
X026355Y020250D01*
X026357Y020171D02*
X025838Y020171D01*
X025862Y020093D02*
X026357Y020093D01*
X026345Y020014D02*
X025881Y020014D01*
X025895Y019936D02*
X026331Y019936D01*
X026306Y019857D02*
X025902Y019857D01*
X025906Y019779D02*
X026275Y019779D01*
X026236Y019700D02*
X025902Y019700D01*
X025896Y019622D02*
X026184Y019622D01*
X026121Y019543D02*
X025881Y019543D01*
X025864Y019465D02*
X026045Y019465D01*
X025943Y019386D02*
X025837Y019386D01*
X023277Y017850D02*
X023112Y017882D01*
X022953Y017937D01*
X022803Y018014D01*
X022666Y018112D01*
X022544Y018228D01*
X022440Y018360D01*
X022356Y018506D01*
X022293Y018663D01*
X022254Y018826D01*
X022238Y018994D01*
X022245Y019162D01*
X022277Y019327D01*
X022332Y019486D01*
X022207Y019418D01*
X022094Y019331D01*
X021995Y019227D01*
X021913Y019110D01*
X021850Y018982D01*
X021808Y018845D01*
X021787Y018704D01*
X021787Y018561D01*
X021810Y018420D01*
X021854Y018284D01*
X021918Y018156D01*
X021997Y018037D01*
X022092Y017931D01*
X022203Y017841D01*
X022327Y017769D01*
X022460Y017716D01*
X022599Y017685D01*
X022742Y017675D01*
X022884Y017687D01*
X023023Y017721D01*
X023155Y017776D01*
X023277Y017850D01*
X023221Y017816D02*
X022246Y017816D01*
X022137Y017895D02*
X023075Y017895D01*
X023063Y017738D02*
X022406Y017738D01*
X022054Y017973D02*
X022883Y017973D01*
X022751Y018052D02*
X021987Y018052D01*
X021935Y018130D02*
X022647Y018130D01*
X022565Y018209D02*
X021892Y018209D01*
X021853Y018287D02*
X022498Y018287D01*
X022437Y018366D02*
X021828Y018366D01*
X021806Y018444D02*
X022392Y018444D01*
X022349Y018523D02*
X021794Y018523D01*
X021787Y018601D02*
X022318Y018601D01*
X022289Y018680D02*
X021787Y018680D01*
X021795Y018758D02*
X022270Y018758D01*
X022253Y018837D02*
X021807Y018837D01*
X021830Y018915D02*
X022245Y018915D01*
X022238Y018994D02*
X021856Y018994D01*
X021895Y019072D02*
X022241Y019072D01*
X022245Y019151D02*
X021941Y019151D01*
X021997Y019229D02*
X022258Y019229D01*
X022273Y019308D02*
X022071Y019308D01*
X022166Y019386D02*
X022297Y019386D01*
X022292Y019465D02*
X022325Y019465D01*
X025265Y021113D02*
X025555Y021113D01*
X020749Y016732D02*
X020706Y016596D01*
X020644Y016468D01*
X020562Y016350D01*
X020463Y016247D01*
X020350Y016160D01*
X020225Y016091D01*
X020251Y016168D02*
X020360Y016168D01*
X020278Y016246D02*
X020462Y016246D01*
X020537Y016325D02*
X020294Y016325D01*
X020309Y016403D02*
X020598Y016403D01*
X020650Y016482D02*
X020314Y016482D01*
X020318Y016560D02*
X020689Y016560D01*
X020720Y016639D02*
X020314Y016639D01*
X020306Y016717D02*
X020744Y016717D01*
X022288Y013338D02*
X022421Y013390D01*
X022561Y013422D01*
X022703Y013432D01*
X022846Y013419D01*
X022984Y013386D01*
X023116Y013331D01*
X023239Y013257D01*
X023073Y013225D01*
X022914Y013170D01*
X022765Y013092D01*
X022628Y012995D01*
X022506Y012879D01*
X022402Y012746D01*
X022318Y012600D01*
X022255Y012444D01*
X022215Y012281D01*
X022199Y012113D01*
X022207Y011945D01*
X022239Y011779D01*
X022294Y011620D01*
X022168Y011689D01*
X022055Y011776D01*
X021956Y011879D01*
X021875Y011997D01*
X021812Y012125D01*
X021769Y012261D01*
X021748Y012403D01*
X021749Y012546D01*
X021772Y012687D01*
X021816Y012823D01*
X021880Y012950D01*
X021958Y013070D01*
X022054Y013176D01*
X022165Y013266D01*
X022288Y013338D01*
X022297Y013342D02*
X023091Y013342D01*
X023228Y013263D02*
X022161Y013263D01*
X022065Y013185D02*
X022957Y013185D01*
X022791Y013106D02*
X021991Y013106D01*
X021930Y013028D02*
X022674Y013028D01*
X022580Y012949D02*
X021879Y012949D01*
X021840Y012871D02*
X022499Y012871D01*
X022438Y012792D02*
X021806Y012792D01*
X021780Y012714D02*
X022383Y012714D01*
X022338Y012635D02*
X021763Y012635D01*
X021751Y012557D02*
X022300Y012557D01*
X022269Y012478D02*
X021749Y012478D01*
X021749Y012400D02*
X022244Y012400D01*
X022225Y012321D02*
X021761Y012321D01*
X021775Y012243D02*
X022212Y012243D01*
X022204Y012164D02*
X021800Y012164D01*
X021831Y012086D02*
X022200Y012086D01*
X022204Y012007D02*
X021870Y012007D01*
X021922Y011929D02*
X022210Y011929D01*
X022225Y011850D02*
X021985Y011850D01*
X022061Y011772D02*
X022242Y011772D01*
X022269Y011693D02*
X022163Y011693D01*
X024829Y010157D02*
X024951Y010082D01*
X025083Y010028D01*
X025222Y009994D01*
X025364Y009982D01*
X025507Y009992D01*
X025646Y010023D01*
X025779Y010075D01*
X025903Y010148D01*
X026014Y010238D01*
X026110Y010344D01*
X026188Y010463D01*
X026252Y010591D01*
X026296Y010727D01*
X026319Y010868D01*
X026319Y011011D01*
X026298Y011152D01*
X026256Y011288D01*
X026193Y011417D01*
X026111Y011534D01*
X026013Y011637D01*
X025899Y011724D01*
X025774Y011793D01*
X025829Y011634D01*
X025861Y011469D01*
X025869Y011300D01*
X025852Y011133D01*
X025813Y010969D01*
X025750Y010813D01*
X025666Y010667D01*
X025562Y010535D01*
X025440Y010419D01*
X025303Y010321D01*
X025153Y010244D01*
X024994Y010189D01*
X024829Y010157D01*
X024884Y010123D02*
X025861Y010123D01*
X025969Y010202D02*
X025032Y010202D01*
X025043Y010045D02*
X025701Y010045D01*
X026052Y010280D02*
X025224Y010280D01*
X025356Y010359D02*
X026119Y010359D01*
X026171Y010437D02*
X025459Y010437D01*
X025542Y010516D02*
X026214Y010516D01*
X026253Y010594D02*
X025608Y010594D01*
X025669Y010673D02*
X026279Y010673D01*
X026300Y010751D02*
X025714Y010751D01*
X025757Y010830D02*
X026312Y010830D01*
X026319Y010908D02*
X025788Y010908D01*
X025817Y010987D02*
X026319Y010987D01*
X026311Y011065D02*
X025836Y011065D01*
X025854Y011144D02*
X026300Y011144D01*
X026276Y011222D02*
X025861Y011222D01*
X025869Y011301D02*
X026250Y011301D01*
X026211Y011379D02*
X025865Y011379D01*
X025861Y011458D02*
X026165Y011458D01*
X026109Y011536D02*
X025848Y011536D01*
X025833Y011615D02*
X026034Y011615D01*
X025940Y011693D02*
X025809Y011693D01*
X025813Y011772D02*
X025781Y011772D01*
X022838Y013420D02*
X022553Y013420D01*
X018052Y010088D02*
X017940Y010177D01*
X017816Y010248D01*
X017682Y010299D01*
X017543Y010329D01*
X017400Y010337D01*
X017257Y010329D01*
X017118Y010299D01*
X016984Y010248D01*
X016860Y010177D01*
X016748Y010088D01*
X016651Y009983D01*
X016572Y009865D01*
X016511Y009735D01*
X016471Y009598D01*
X016452Y009457D01*
X016455Y009314D01*
X016565Y009441D01*
X016693Y009551D01*
X016834Y009642D01*
X016988Y009712D01*
X017149Y009759D01*
X017316Y009783D01*
X017484Y009783D01*
X017651Y009759D01*
X017812Y009712D01*
X017966Y009642D01*
X018107Y009551D01*
X018235Y009441D01*
X018345Y009314D01*
X018348Y009457D01*
X018329Y009598D01*
X018289Y009735D01*
X018228Y009865D01*
X018149Y009983D01*
X018052Y010088D01*
X018008Y010123D02*
X016792Y010123D01*
X016708Y010045D02*
X018092Y010045D01*
X018160Y009966D02*
X016640Y009966D01*
X016587Y009888D02*
X018213Y009888D01*
X018255Y009809D02*
X016545Y009809D01*
X016509Y009731D02*
X017051Y009731D01*
X016856Y009652D02*
X016486Y009652D01*
X016467Y009574D02*
X016728Y009574D01*
X016628Y009495D02*
X016457Y009495D01*
X016453Y009417D02*
X016544Y009417D01*
X016476Y009338D02*
X016455Y009338D01*
X016902Y010202D02*
X017898Y010202D01*
X017732Y010280D02*
X017068Y010280D01*
X017749Y009731D02*
X018291Y009731D01*
X018314Y009652D02*
X017944Y009652D01*
X018072Y009574D02*
X018333Y009574D01*
X018343Y009495D02*
X018172Y009495D01*
X018256Y009417D02*
X018347Y009417D01*
X018345Y009338D02*
X018324Y009338D01*
X018345Y006386D02*
X018235Y006259D01*
X018107Y006149D01*
X017966Y006058D01*
X017812Y005988D01*
X017651Y005941D01*
X017484Y005917D01*
X017316Y005917D01*
X017149Y005941D01*
X016988Y005988D01*
X016834Y006058D01*
X016693Y006149D01*
X016565Y006259D01*
X016455Y006386D01*
X016452Y006243D01*
X016471Y006102D01*
X016511Y005965D01*
X016572Y005835D01*
X016651Y005717D01*
X016748Y005612D01*
X016860Y005523D01*
X016984Y005452D01*
X017118Y005401D01*
X017257Y005371D01*
X017400Y005363D01*
X017543Y005371D01*
X017682Y005401D01*
X017816Y005452D01*
X017940Y005523D01*
X018052Y005612D01*
X018149Y005717D01*
X018228Y005835D01*
X018289Y005965D01*
X018329Y006102D01*
X018348Y006243D01*
X018345Y006386D01*
X018346Y006355D02*
X018318Y006355D01*
X018347Y006277D02*
X018250Y006277D01*
X018164Y006198D02*
X018342Y006198D01*
X018332Y006120D02*
X018061Y006120D01*
X017928Y006041D02*
X018312Y006041D01*
X018288Y005963D02*
X017725Y005963D01*
X018086Y005649D02*
X016714Y005649D01*
X016644Y005727D02*
X018156Y005727D01*
X018208Y005806D02*
X016592Y005806D01*
X016549Y005884D02*
X018251Y005884D01*
X017999Y005570D02*
X016801Y005570D01*
X016915Y005492D02*
X017885Y005492D01*
X017714Y005413D02*
X017086Y005413D01*
X017075Y005963D02*
X016512Y005963D01*
X016488Y006041D02*
X016872Y006041D01*
X016739Y006120D02*
X016468Y006120D01*
X016458Y006198D02*
X016636Y006198D01*
X016550Y006277D02*
X016453Y006277D01*
X016454Y006355D02*
X016482Y006355D01*
X010777Y010433D02*
X010654Y010360D01*
X010522Y010306D01*
X010383Y010273D01*
X010240Y010262D01*
X010098Y010272D01*
X009959Y010305D01*
X009826Y010358D01*
X009703Y010431D01*
X009593Y010522D01*
X009498Y010628D01*
X009665Y010611D01*
X009834Y010617D01*
X009999Y010647D01*
X010159Y010700D01*
X010309Y010776D01*
X010447Y010872D01*
X010571Y010987D01*
X010676Y011118D01*
X010762Y011263D01*
X010826Y011418D01*
X010868Y011582D01*
X010886Y011749D01*
X010880Y011917D01*
X010980Y011815D01*
X011063Y011698D01*
X011127Y011571D01*
X011171Y011435D01*
X011193Y011294D01*
X011194Y011151D01*
X011173Y011009D01*
X011130Y010873D01*
X011067Y010745D01*
X010986Y010627D01*
X010887Y010524D01*
X010777Y010433D01*
X010782Y010437D02*
X009696Y010437D01*
X009601Y010516D02*
X010877Y010516D01*
X010954Y010594D02*
X009528Y010594D01*
X009825Y010359D02*
X010652Y010359D01*
X010413Y010280D02*
X010065Y010280D01*
X010076Y010673D02*
X011017Y010673D01*
X011071Y010751D02*
X010260Y010751D01*
X010386Y010830D02*
X011109Y010830D01*
X011141Y010908D02*
X010486Y010908D01*
X010570Y010987D02*
X011166Y010987D01*
X011181Y011065D02*
X010634Y011065D01*
X010691Y011144D02*
X011193Y011144D01*
X011194Y011222D02*
X010738Y011222D01*
X010778Y011301D02*
X011192Y011301D01*
X011179Y011379D02*
X010810Y011379D01*
X010836Y011458D02*
X011163Y011458D01*
X011138Y011536D02*
X010856Y011536D01*
X010872Y011615D02*
X011105Y011615D01*
X011065Y011693D02*
X010880Y011693D01*
X010885Y011772D02*
X011011Y011772D01*
X010945Y011850D02*
X010882Y011850D01*
X004302Y010628D02*
X004135Y010611D01*
X003966Y010617D01*
X003801Y010647D01*
X003641Y010700D01*
X003491Y010776D01*
X003353Y010872D01*
X003229Y010987D01*
X003124Y011118D01*
X003038Y011263D01*
X002974Y011418D01*
X002932Y011582D01*
X002914Y011749D01*
X002920Y011917D01*
X002820Y011815D01*
X002737Y011698D01*
X002673Y011571D01*
X002629Y011435D01*
X002607Y011294D01*
X002606Y011151D01*
X002627Y011009D01*
X002670Y010873D01*
X002733Y010745D01*
X002814Y010627D01*
X002913Y010524D01*
X003023Y010433D01*
X003146Y010360D01*
X003278Y010306D01*
X003417Y010273D01*
X003560Y010262D01*
X003702Y010272D01*
X003841Y010305D01*
X003974Y010358D01*
X004097Y010431D01*
X004207Y010522D01*
X004302Y010628D01*
X004272Y010594D02*
X002846Y010594D01*
X002783Y010673D02*
X003724Y010673D01*
X003540Y010751D02*
X002729Y010751D01*
X002691Y010830D02*
X003414Y010830D01*
X003314Y010908D02*
X002659Y010908D01*
X002634Y010987D02*
X003230Y010987D01*
X003166Y011065D02*
X002619Y011065D01*
X002607Y011144D02*
X003109Y011144D01*
X003062Y011222D02*
X002606Y011222D01*
X002608Y011301D02*
X003022Y011301D01*
X002990Y011379D02*
X002621Y011379D01*
X002637Y011458D02*
X002964Y011458D01*
X002944Y011536D02*
X002662Y011536D01*
X002695Y011615D02*
X002928Y011615D01*
X002920Y011693D02*
X002735Y011693D01*
X002789Y011772D02*
X002915Y011772D01*
X002918Y011850D02*
X002855Y011850D01*
X002923Y010516D02*
X004199Y010516D01*
X004104Y010437D02*
X003018Y010437D01*
X003148Y010359D02*
X003975Y010359D01*
X003735Y010280D02*
X003387Y010280D01*
D17*
X005916Y019088D03*
X006900Y019088D03*
X007884Y019088D03*
X007884Y021312D03*
X006900Y021312D03*
X005916Y021312D03*
D18*
X006309Y020200D03*
X007491Y020200D03*
D19*
X011231Y015160D03*
X011231Y013940D03*
X002569Y013940D03*
X002569Y015160D03*
D20*
X005916Y014550D02*
X007884Y014550D01*
D21*
X017057Y007230D03*
X017727Y007230D03*
G36*
X024732Y011203D02*
X024476Y010760D01*
X024066Y010997D01*
X024322Y011440D01*
X024732Y011203D01*
G37*
G36*
X025067Y011783D02*
X024811Y011340D01*
X024401Y011577D01*
X024657Y012020D01*
X025067Y011783D01*
G37*
G36*
X024857Y019753D02*
X025113Y019310D01*
X024703Y019073D01*
X024447Y019516D01*
X024857Y019753D01*
G37*
G36*
X024523Y020333D02*
X024779Y019890D01*
X024369Y019653D01*
X024113Y020096D01*
X024523Y020333D01*
G37*
X017743Y023870D03*
X017073Y023870D03*
D22*
X016817Y022970D03*
X017998Y022970D03*
G36*
X023404Y019368D02*
X023128Y019845D01*
X023672Y020160D01*
X023948Y019683D01*
X023404Y019368D01*
G37*
G36*
X023995Y018346D02*
X023719Y018823D01*
X024263Y019138D01*
X024539Y018661D01*
X023995Y018346D01*
G37*
G36*
X023672Y012270D02*
X023948Y012747D01*
X024492Y012432D01*
X024216Y011955D01*
X023672Y012270D01*
G37*
G36*
X023082Y011248D02*
X023358Y011725D01*
X023902Y011410D01*
X023626Y010933D01*
X023082Y011248D01*
G37*
X017983Y008130D03*
X016802Y008130D03*
D23*
X001150Y005000D03*
X027650Y026000D03*
D24*
X006900Y019000D03*
M02*
