G75*
G70*
%OFA0B0*%
%FSLAX24Y24*%
%IPPOS*%
%LPD*%
%AMOC8*
5,1,8,0,0,1.08239X$1,22.5*
%
%ADD10C,0.1266*%
%ADD11C,0.0080*%
%ADD12C,0.0400*%
%ADD13C,0.0100*%
%ADD14C,0.0030*%
D10*
X003450Y011100D03*
X010350Y011100D03*
X014842Y014073D03*
X017399Y012596D03*
X019958Y014074D03*
X022562Y012557D03*
X025506Y010857D03*
X017400Y009550D03*
X017400Y006150D03*
X014842Y017027D03*
X017400Y018500D03*
X019957Y017028D03*
X022600Y018550D03*
X025544Y020250D03*
X017400Y021550D03*
X017400Y024950D03*
X010850Y019000D03*
X002950Y019000D03*
D11*
X002769Y019151D02*
X002146Y019151D01*
X002127Y019091D02*
X002170Y019227D01*
X002233Y019355D01*
X002314Y019473D01*
X002413Y019576D01*
X002523Y019667D01*
X002646Y019740D01*
X002778Y019794D01*
X002917Y019827D01*
X003060Y019838D01*
X003202Y019828D01*
X003341Y019795D01*
X003474Y019742D01*
X003597Y019669D01*
X003707Y019578D01*
X003802Y019472D01*
X003635Y019489D01*
X003466Y019483D01*
X003301Y019453D01*
X003141Y019400D01*
X002991Y019324D01*
X002853Y019228D01*
X002729Y019113D01*
X002624Y018982D01*
X002538Y018837D01*
X002474Y018682D01*
X002432Y018518D01*
X002414Y018351D01*
X002420Y018183D01*
X002320Y018285D01*
X002237Y018402D01*
X002173Y018529D01*
X002129Y018665D01*
X002107Y018806D01*
X002106Y018949D01*
X002127Y019091D01*
X002124Y019072D02*
X002696Y019072D01*
X002633Y018994D02*
X002113Y018994D01*
X002106Y018915D02*
X002584Y018915D01*
X002538Y018837D02*
X002107Y018837D01*
X002115Y018758D02*
X002505Y018758D01*
X002473Y018680D02*
X002127Y018680D01*
X002150Y018601D02*
X002453Y018601D01*
X002433Y018523D02*
X002177Y018523D01*
X002216Y018444D02*
X002424Y018444D01*
X002416Y018366D02*
X002263Y018366D01*
X002319Y018287D02*
X002416Y018287D01*
X002419Y018209D02*
X002395Y018209D01*
X002171Y019229D02*
X002854Y019229D01*
X002967Y019308D02*
X002209Y019308D01*
X002254Y019386D02*
X003114Y019386D01*
X003364Y019465D02*
X002309Y019465D01*
X002382Y019543D02*
X003738Y019543D01*
X003654Y019622D02*
X002468Y019622D01*
X002578Y019700D02*
X003545Y019700D01*
X003383Y019779D02*
X002739Y019779D01*
X009998Y019472D02*
X010165Y019489D01*
X010334Y019483D01*
X010499Y019453D01*
X010659Y019400D01*
X010809Y019324D01*
X010947Y019228D01*
X011071Y019113D01*
X011176Y018982D01*
X011262Y018837D01*
X011326Y018682D01*
X011368Y018518D01*
X011386Y018351D01*
X011380Y018183D01*
X011480Y018285D01*
X011563Y018402D01*
X011627Y018529D01*
X011671Y018665D01*
X011693Y018806D01*
X011694Y018949D01*
X011673Y019091D01*
X011630Y019227D01*
X011567Y019355D01*
X011486Y019473D01*
X011387Y019576D01*
X011277Y019667D01*
X011154Y019740D01*
X011022Y019794D01*
X010883Y019827D01*
X010740Y019838D01*
X010598Y019828D01*
X010459Y019795D01*
X010326Y019742D01*
X010203Y019669D01*
X010093Y019578D01*
X009998Y019472D01*
X010062Y019543D02*
X011418Y019543D01*
X011491Y019465D02*
X010436Y019465D01*
X010686Y019386D02*
X011546Y019386D01*
X011591Y019308D02*
X010833Y019308D01*
X010946Y019229D02*
X011629Y019229D01*
X011654Y019151D02*
X011031Y019151D01*
X011104Y019072D02*
X011676Y019072D01*
X011687Y018994D02*
X011167Y018994D01*
X011216Y018915D02*
X011694Y018915D01*
X011693Y018837D02*
X011262Y018837D01*
X011295Y018758D02*
X011685Y018758D01*
X011673Y018680D02*
X011327Y018680D01*
X011347Y018601D02*
X011650Y018601D01*
X011623Y018523D02*
X011367Y018523D01*
X011376Y018444D02*
X011584Y018444D01*
X011537Y018366D02*
X011384Y018366D01*
X011384Y018287D02*
X011481Y018287D01*
X011405Y018209D02*
X011381Y018209D01*
X011332Y019622D02*
X010146Y019622D01*
X010255Y019700D02*
X011222Y019700D01*
X011061Y019779D02*
X010417Y019779D01*
X014160Y017421D02*
X014239Y017540D01*
X014334Y017646D01*
X014445Y017736D01*
X014569Y017808D01*
X014702Y017861D01*
X014841Y017892D01*
X014984Y017902D01*
X015126Y017890D01*
X015265Y017856D01*
X015397Y017801D01*
X015519Y017727D01*
X015354Y017695D01*
X015195Y017640D01*
X015045Y017563D01*
X014908Y017465D01*
X014786Y017349D01*
X014682Y017216D01*
X014598Y017071D01*
X014535Y016914D01*
X014496Y016751D01*
X014479Y016583D01*
X014487Y016415D01*
X014519Y016250D01*
X014574Y016091D01*
X014449Y016159D01*
X014335Y016246D01*
X014237Y016350D01*
X014155Y016467D01*
X014092Y016595D01*
X014050Y016732D01*
X014029Y016873D01*
X014029Y017016D01*
X014052Y017157D01*
X014096Y017293D01*
X014160Y017421D01*
X014162Y017424D02*
X014864Y017424D01*
X014783Y017345D02*
X014122Y017345D01*
X014087Y017267D02*
X014721Y017267D01*
X014666Y017188D02*
X014062Y017188D01*
X014044Y017110D02*
X014620Y017110D01*
X014582Y017031D02*
X014032Y017031D01*
X014029Y016953D02*
X014551Y016953D01*
X014525Y016874D02*
X014029Y016874D01*
X014040Y016796D02*
X014506Y016796D01*
X014492Y016717D02*
X014054Y016717D01*
X014079Y016639D02*
X014485Y016639D01*
X014481Y016560D02*
X014109Y016560D01*
X014148Y016482D02*
X014484Y016482D01*
X014490Y016403D02*
X014200Y016403D01*
X014261Y016325D02*
X014505Y016325D01*
X014520Y016246D02*
X014336Y016246D01*
X014438Y016168D02*
X014547Y016168D01*
X014574Y015009D02*
X014519Y014850D01*
X014487Y014685D01*
X014479Y014517D01*
X014495Y014349D01*
X014535Y014186D01*
X014598Y014029D01*
X014682Y013884D01*
X014786Y013751D01*
X014908Y013635D01*
X015045Y013537D01*
X015195Y013460D01*
X015354Y013405D01*
X015519Y013373D01*
X015397Y013299D01*
X015265Y013244D01*
X015126Y013210D01*
X014983Y013198D01*
X014841Y013208D01*
X014702Y013239D01*
X014569Y013292D01*
X014445Y013364D01*
X014334Y013454D01*
X014238Y013560D01*
X014160Y013679D01*
X014096Y013807D01*
X014052Y013943D01*
X014029Y014084D01*
X014029Y014227D01*
X014050Y014368D01*
X014092Y014505D01*
X014155Y014633D01*
X014237Y014750D01*
X014335Y014854D01*
X014449Y014941D01*
X014574Y015009D01*
X014567Y014990D02*
X014539Y014990D01*
X014540Y014912D02*
X014411Y014912D01*
X014316Y014833D02*
X014516Y014833D01*
X014501Y014755D02*
X014241Y014755D01*
X014185Y014676D02*
X014487Y014676D01*
X014483Y014598D02*
X014138Y014598D01*
X014099Y014519D02*
X014480Y014519D01*
X014487Y014441D02*
X014072Y014441D01*
X014049Y014362D02*
X014494Y014362D01*
X014511Y014284D02*
X014037Y014284D01*
X014029Y014205D02*
X014531Y014205D01*
X014559Y014127D02*
X014029Y014127D01*
X014035Y014048D02*
X014590Y014048D01*
X014632Y013970D02*
X014048Y013970D01*
X014069Y013891D02*
X014678Y013891D01*
X014738Y013813D02*
X014094Y013813D01*
X014133Y013734D02*
X014804Y013734D01*
X014886Y013656D02*
X014176Y013656D01*
X014227Y013577D02*
X014989Y013577D01*
X015120Y013499D02*
X014294Y013499D01*
X014376Y013420D02*
X015310Y013420D01*
X015310Y013263D02*
X014642Y013263D01*
X014483Y013342D02*
X015467Y013342D01*
X016454Y012833D02*
X016564Y012706D01*
X016691Y012595D01*
X016833Y012504D01*
X016986Y012435D01*
X017148Y012387D01*
X017314Y012363D01*
X017483Y012363D01*
X017649Y012387D01*
X017811Y012435D01*
X017964Y012504D01*
X018106Y012595D01*
X018233Y012706D01*
X018344Y012833D01*
X018347Y012690D01*
X018328Y012548D01*
X018288Y012411D01*
X018227Y012282D01*
X018147Y012163D01*
X018050Y012058D01*
X017939Y011969D01*
X017815Y011898D01*
X017681Y011847D01*
X017541Y011817D01*
X017399Y011809D01*
X017256Y011817D01*
X017116Y011847D01*
X016983Y011898D01*
X016859Y011969D01*
X016747Y012058D01*
X016650Y012163D01*
X016570Y012282D01*
X016510Y012411D01*
X016469Y012548D01*
X016451Y012690D01*
X016454Y012833D01*
X016453Y012792D02*
X016489Y012792D01*
X016451Y012714D02*
X016557Y012714D01*
X016646Y012635D02*
X016458Y012635D01*
X016468Y012557D02*
X016752Y012557D01*
X016891Y012478D02*
X016490Y012478D01*
X016515Y012400D02*
X017106Y012400D01*
X016722Y012086D02*
X018076Y012086D01*
X018148Y012164D02*
X016649Y012164D01*
X016597Y012243D02*
X018201Y012243D01*
X018246Y012321D02*
X016552Y012321D01*
X016811Y012007D02*
X017986Y012007D01*
X017867Y011929D02*
X016930Y011929D01*
X017109Y011850D02*
X017688Y011850D01*
X017692Y012400D02*
X018282Y012400D01*
X018307Y012478D02*
X017906Y012478D01*
X018045Y012557D02*
X018329Y012557D01*
X018339Y012635D02*
X018152Y012635D01*
X018240Y012714D02*
X018346Y012714D01*
X018344Y012792D02*
X018308Y012792D01*
X019281Y013374D02*
X019446Y013406D01*
X019605Y013461D01*
X019754Y013538D01*
X019892Y013636D01*
X020013Y013752D01*
X020117Y013884D01*
X020202Y014030D01*
X020264Y014187D01*
X020304Y014350D01*
X020320Y014518D01*
X020312Y014686D01*
X020280Y014851D01*
X020225Y015010D01*
X020351Y014942D01*
X020464Y014855D01*
X020563Y014751D01*
X020644Y014634D01*
X020707Y014506D01*
X020750Y014369D01*
X020771Y014228D01*
X020770Y014085D01*
X020748Y013944D01*
X020704Y013808D01*
X020639Y013680D01*
X020561Y013561D01*
X020465Y013455D01*
X020354Y013365D01*
X020231Y013293D01*
X020098Y013240D01*
X019959Y013209D01*
X019816Y013199D01*
X019674Y013211D01*
X019535Y013245D01*
X019403Y013300D01*
X019281Y013374D01*
X019334Y013342D02*
X020314Y013342D01*
X020422Y013420D02*
X019487Y013420D01*
X019491Y013263D02*
X020156Y013263D01*
X020505Y013499D02*
X019678Y013499D01*
X019809Y013577D02*
X020572Y013577D01*
X020623Y013656D02*
X019912Y013656D01*
X019994Y013734D02*
X020666Y013734D01*
X020705Y013813D02*
X020061Y013813D01*
X020121Y013891D02*
X020730Y013891D01*
X020752Y013970D02*
X020167Y013970D01*
X020209Y014048D02*
X020764Y014048D01*
X020770Y014127D02*
X020240Y014127D01*
X020269Y014205D02*
X020771Y014205D01*
X020763Y014284D02*
X020288Y014284D01*
X020305Y014362D02*
X020751Y014362D01*
X020728Y014441D02*
X020313Y014441D01*
X020320Y014519D02*
X020701Y014519D01*
X020662Y014598D02*
X020316Y014598D01*
X020313Y014676D02*
X020615Y014676D01*
X020560Y014755D02*
X020299Y014755D01*
X020284Y014833D02*
X020485Y014833D01*
X020390Y014912D02*
X020260Y014912D01*
X020263Y014990D02*
X020232Y014990D01*
X020225Y016091D02*
X020279Y016250D01*
X020311Y016416D01*
X020319Y016584D01*
X020303Y016752D01*
X020263Y016915D01*
X020201Y017071D01*
X020117Y017217D01*
X020013Y017350D01*
X019891Y017466D01*
X019754Y017564D01*
X019604Y017641D01*
X019445Y017696D01*
X019280Y017728D01*
X019402Y017802D01*
X019534Y017857D01*
X019673Y017890D01*
X019815Y017903D01*
X019958Y017893D01*
X020097Y017861D01*
X020230Y017809D01*
X020353Y017737D01*
X020464Y017647D01*
X020560Y017541D01*
X020639Y017421D01*
X020703Y017294D01*
X020747Y017158D01*
X020769Y017017D01*
X020770Y016874D01*
X020273Y016874D01*
X020292Y016796D02*
X020758Y016796D01*
X020749Y016732D02*
X020706Y016596D01*
X020644Y016468D01*
X020562Y016350D01*
X020463Y016247D01*
X020350Y016160D01*
X020225Y016091D01*
X020251Y016168D02*
X020360Y016168D01*
X020278Y016246D02*
X020462Y016246D01*
X020537Y016325D02*
X020294Y016325D01*
X020309Y016403D02*
X020598Y016403D01*
X020650Y016482D02*
X020314Y016482D01*
X020318Y016560D02*
X020689Y016560D01*
X020720Y016639D02*
X020314Y016639D01*
X020306Y016717D02*
X020744Y016717D01*
X020749Y016732D02*
X020770Y016874D01*
X020770Y016953D02*
X020248Y016953D01*
X020217Y017031D02*
X020767Y017031D01*
X020754Y017110D02*
X020179Y017110D01*
X020133Y017188D02*
X020737Y017188D01*
X020712Y017267D02*
X020078Y017267D01*
X020016Y017345D02*
X020677Y017345D01*
X020637Y017424D02*
X019935Y017424D01*
X019840Y017502D02*
X020586Y017502D01*
X020524Y017581D02*
X019721Y017581D01*
X019551Y017659D02*
X020449Y017659D01*
X020352Y017738D02*
X019296Y017738D01*
X019436Y017816D02*
X020212Y017816D01*
X019933Y017895D02*
X019721Y017895D01*
X018345Y018264D02*
X018235Y018391D01*
X018107Y018501D01*
X017966Y018592D01*
X017812Y018662D01*
X017651Y018709D01*
X017484Y018733D01*
X017316Y018733D01*
X017149Y018709D01*
X016988Y018662D01*
X016834Y018592D01*
X016693Y018501D01*
X016565Y018391D01*
X016455Y018264D01*
X016452Y018407D01*
X016471Y018548D01*
X016511Y018685D01*
X016572Y018815D01*
X016651Y018933D01*
X016748Y019038D01*
X016860Y019127D01*
X016984Y019198D01*
X017118Y019249D01*
X017257Y019279D01*
X017400Y019287D01*
X017543Y019279D01*
X017682Y019249D01*
X017816Y019198D01*
X017940Y019127D01*
X018052Y019038D01*
X018149Y018933D01*
X018228Y018815D01*
X018289Y018685D01*
X018329Y018548D01*
X018348Y018407D01*
X018345Y018264D01*
X018345Y018287D02*
X018325Y018287D01*
X018347Y018366D02*
X018257Y018366D01*
X018173Y018444D02*
X018343Y018444D01*
X018333Y018523D02*
X018074Y018523D01*
X017946Y018601D02*
X018314Y018601D01*
X018291Y018680D02*
X017752Y018680D01*
X018093Y018994D02*
X016707Y018994D01*
X016639Y018915D02*
X018161Y018915D01*
X018214Y018837D02*
X016586Y018837D01*
X016545Y018758D02*
X018255Y018758D01*
X018009Y019072D02*
X016791Y019072D01*
X016901Y019151D02*
X017899Y019151D01*
X017735Y019229D02*
X017065Y019229D01*
X017048Y018680D02*
X016509Y018680D01*
X016486Y018601D02*
X016854Y018601D01*
X016726Y018523D02*
X016467Y018523D01*
X016457Y018444D02*
X016627Y018444D01*
X016543Y018366D02*
X016453Y018366D01*
X016455Y018287D02*
X016475Y018287D01*
X015502Y017738D02*
X014448Y017738D01*
X014350Y017659D02*
X015250Y017659D01*
X015079Y017581D02*
X014275Y017581D01*
X014214Y017502D02*
X014960Y017502D01*
X014877Y017895D02*
X015069Y017895D01*
X015361Y017816D02*
X014588Y017816D01*
X016860Y020923D02*
X016984Y020852D01*
X017118Y020801D01*
X017257Y020771D01*
X017400Y020763D01*
X017543Y020771D01*
X017682Y020801D01*
X017816Y020852D01*
X017940Y020923D01*
X018052Y021012D01*
X018149Y021117D01*
X018228Y021235D01*
X018289Y021365D01*
X018329Y021502D01*
X018348Y021643D01*
X018345Y021786D01*
X018235Y021659D01*
X018107Y021549D01*
X017966Y021458D01*
X017812Y021388D01*
X017651Y021341D01*
X017484Y021317D01*
X017316Y021317D01*
X017149Y021341D01*
X016988Y021388D01*
X016834Y021458D01*
X016693Y021549D01*
X016565Y021659D01*
X016455Y021786D01*
X016452Y021643D01*
X016471Y021502D01*
X016511Y021365D01*
X016572Y021235D01*
X016651Y021117D01*
X016748Y021012D01*
X016860Y020923D01*
X016818Y020956D02*
X017982Y020956D01*
X018073Y021035D02*
X016727Y021035D01*
X016655Y021113D02*
X018145Y021113D01*
X018199Y021192D02*
X016601Y021192D01*
X016555Y021270D02*
X018245Y021270D01*
X018282Y021349D02*
X017678Y021349D01*
X017898Y021427D02*
X018307Y021427D01*
X018330Y021506D02*
X018040Y021506D01*
X018148Y021584D02*
X018340Y021584D01*
X018348Y021663D02*
X018238Y021663D01*
X018306Y021741D02*
X018346Y021741D01*
X017861Y020878D02*
X016939Y020878D01*
X017126Y020799D02*
X017674Y020799D01*
X017122Y021349D02*
X016518Y021349D01*
X016493Y021427D02*
X016902Y021427D01*
X016760Y021506D02*
X016470Y021506D01*
X016460Y021584D02*
X016652Y021584D01*
X016562Y021663D02*
X016452Y021663D01*
X016454Y021741D02*
X016494Y021741D01*
X016455Y024714D02*
X016565Y024841D01*
X016693Y024951D01*
X016834Y025042D01*
X016988Y025112D01*
X017149Y025159D01*
X017316Y025183D01*
X017484Y025183D01*
X017651Y025159D01*
X017812Y025112D01*
X017966Y025042D01*
X018107Y024951D01*
X018235Y024841D01*
X018345Y024714D01*
X018348Y024857D01*
X018329Y024998D01*
X018289Y025135D01*
X018228Y025265D01*
X018149Y025383D01*
X018052Y025488D01*
X017940Y025577D01*
X017816Y025648D01*
X017682Y025699D01*
X017543Y025729D01*
X017400Y025737D01*
X017257Y025729D01*
X017118Y025699D01*
X016984Y025648D01*
X016860Y025577D01*
X016748Y025488D01*
X016651Y025383D01*
X016572Y025265D01*
X016511Y025135D01*
X016471Y024998D01*
X016452Y024857D01*
X016455Y024714D01*
X016455Y024724D02*
X016464Y024724D01*
X016453Y024803D02*
X016532Y024803D01*
X016455Y024881D02*
X016612Y024881D01*
X016706Y024960D02*
X016466Y024960D01*
X016482Y025038D02*
X016828Y025038D01*
X017004Y025117D02*
X016505Y025117D01*
X016539Y025195D02*
X018261Y025195D01*
X018295Y025117D02*
X017796Y025117D01*
X017972Y025038D02*
X018318Y025038D01*
X018334Y024960D02*
X018094Y024960D01*
X018188Y024881D02*
X018345Y024881D01*
X018347Y024803D02*
X018268Y024803D01*
X018336Y024724D02*
X018345Y024724D01*
X018223Y025274D02*
X016577Y025274D01*
X016630Y025352D02*
X018170Y025352D01*
X018105Y025431D02*
X016695Y025431D01*
X016774Y025509D02*
X018026Y025509D01*
X017922Y025588D02*
X016878Y025588D01*
X017031Y025666D02*
X017769Y025666D01*
X025014Y021035D02*
X025809Y021035D01*
X025818Y021031D02*
X025685Y021084D01*
X025545Y021115D01*
X025403Y021125D01*
X025261Y021113D01*
X025122Y021079D01*
X024990Y021024D01*
X024867Y020950D01*
X025033Y020918D01*
X025192Y020863D01*
X025341Y020786D01*
X025479Y020688D01*
X025600Y020572D01*
X025704Y020440D01*
X025789Y020294D01*
X025851Y020137D01*
X025891Y019974D01*
X025907Y019806D01*
X025899Y019638D01*
X025867Y019473D01*
X025812Y019314D01*
X025938Y019382D01*
X026051Y019469D01*
X026150Y019573D01*
X026231Y019690D01*
X026294Y019818D01*
X026337Y019955D01*
X026358Y020096D01*
X026357Y020239D01*
X026334Y020380D01*
X026291Y020516D01*
X026226Y020644D01*
X026148Y020763D01*
X026052Y020869D01*
X025941Y020959D01*
X025818Y021031D01*
X025945Y020956D02*
X024877Y020956D01*
X025150Y020878D02*
X026042Y020878D01*
X026115Y020799D02*
X025316Y020799D01*
X025433Y020721D02*
X026176Y020721D01*
X026227Y020642D02*
X025527Y020642D01*
X025607Y020564D02*
X026267Y020564D01*
X026301Y020485D02*
X025669Y020485D01*
X025723Y020407D02*
X026326Y020407D01*
X026343Y020328D02*
X025769Y020328D01*
X025806Y020250D02*
X026355Y020250D01*
X026357Y020171D02*
X025838Y020171D01*
X025862Y020093D02*
X026357Y020093D01*
X026345Y020014D02*
X025881Y020014D01*
X025895Y019936D02*
X026331Y019936D01*
X026306Y019857D02*
X025902Y019857D01*
X025906Y019779D02*
X026275Y019779D01*
X026236Y019700D02*
X025902Y019700D01*
X025896Y019622D02*
X026184Y019622D01*
X026121Y019543D02*
X025881Y019543D01*
X025864Y019465D02*
X026045Y019465D01*
X025943Y019386D02*
X025837Y019386D01*
X023277Y017850D02*
X023112Y017882D01*
X022953Y017937D01*
X022803Y018014D01*
X022666Y018112D01*
X022544Y018228D01*
X022440Y018360D01*
X022356Y018506D01*
X022293Y018663D01*
X022254Y018826D01*
X022238Y018994D01*
X022245Y019162D01*
X022277Y019327D01*
X022332Y019486D01*
X022207Y019418D01*
X022094Y019331D01*
X021995Y019227D01*
X021913Y019110D01*
X021850Y018982D01*
X021808Y018845D01*
X021787Y018704D01*
X021787Y018561D01*
X021810Y018420D01*
X021854Y018284D01*
X021918Y018156D01*
X021997Y018037D01*
X022092Y017931D01*
X022203Y017841D01*
X022327Y017769D01*
X022460Y017716D01*
X022599Y017685D01*
X022742Y017675D01*
X022884Y017687D01*
X023023Y017721D01*
X023155Y017776D01*
X023277Y017850D01*
X023221Y017816D02*
X022246Y017816D01*
X022137Y017895D02*
X023075Y017895D01*
X023063Y017738D02*
X022406Y017738D01*
X022054Y017973D02*
X022883Y017973D01*
X022751Y018052D02*
X021987Y018052D01*
X021935Y018130D02*
X022647Y018130D01*
X022565Y018209D02*
X021892Y018209D01*
X021853Y018287D02*
X022498Y018287D01*
X022437Y018366D02*
X021828Y018366D01*
X021806Y018444D02*
X022392Y018444D01*
X022349Y018523D02*
X021794Y018523D01*
X021787Y018601D02*
X022318Y018601D01*
X022289Y018680D02*
X021787Y018680D01*
X021795Y018758D02*
X022270Y018758D01*
X022253Y018837D02*
X021807Y018837D01*
X021830Y018915D02*
X022245Y018915D01*
X022238Y018994D02*
X021856Y018994D01*
X021895Y019072D02*
X022241Y019072D01*
X022245Y019151D02*
X021941Y019151D01*
X021997Y019229D02*
X022258Y019229D01*
X022273Y019308D02*
X022071Y019308D01*
X022166Y019386D02*
X022297Y019386D01*
X022292Y019465D02*
X022325Y019465D01*
X025265Y021113D02*
X025555Y021113D01*
X022984Y013386D02*
X022846Y013419D01*
X022703Y013432D01*
X022561Y013422D01*
X022421Y013390D01*
X022288Y013338D01*
X022165Y013266D01*
X022054Y013176D01*
X021958Y013070D01*
X021880Y012950D01*
X021816Y012823D01*
X021772Y012687D01*
X021749Y012546D01*
X021748Y012403D01*
X021769Y012261D01*
X021812Y012125D01*
X021875Y011997D01*
X021956Y011879D01*
X022055Y011776D01*
X022168Y011689D01*
X022294Y011620D01*
X022239Y011779D01*
X022207Y011945D01*
X022199Y012113D01*
X022215Y012281D01*
X022255Y012444D01*
X022318Y012600D01*
X022402Y012746D01*
X022506Y012879D01*
X022628Y012995D01*
X022765Y013092D01*
X022914Y013170D01*
X023073Y013225D01*
X023239Y013257D01*
X023116Y013331D01*
X022984Y013386D01*
X023091Y013342D02*
X022297Y013342D01*
X022161Y013263D02*
X023228Y013263D01*
X022957Y013185D02*
X022065Y013185D01*
X021991Y013106D02*
X022791Y013106D01*
X022674Y013028D02*
X021930Y013028D01*
X021879Y012949D02*
X022580Y012949D01*
X022499Y012871D02*
X021840Y012871D01*
X021806Y012792D02*
X022438Y012792D01*
X022383Y012714D02*
X021780Y012714D01*
X021763Y012635D02*
X022338Y012635D01*
X022300Y012557D02*
X021751Y012557D01*
X021749Y012478D02*
X022269Y012478D01*
X022244Y012400D02*
X021749Y012400D01*
X021761Y012321D02*
X022225Y012321D01*
X022212Y012243D02*
X021775Y012243D01*
X021800Y012164D02*
X022204Y012164D01*
X022200Y012086D02*
X021831Y012086D01*
X021870Y012007D02*
X022204Y012007D01*
X022210Y011929D02*
X021922Y011929D01*
X021985Y011850D02*
X022225Y011850D01*
X022242Y011772D02*
X022061Y011772D01*
X022163Y011693D02*
X022269Y011693D01*
X024829Y010157D02*
X024951Y010082D01*
X025083Y010028D01*
X025222Y009994D01*
X025364Y009982D01*
X025507Y009992D01*
X025646Y010023D01*
X025779Y010075D01*
X025903Y010148D01*
X026014Y010238D01*
X026110Y010344D01*
X026188Y010463D01*
X026252Y010591D01*
X026296Y010727D01*
X026319Y010868D01*
X026319Y011011D01*
X026298Y011152D01*
X026256Y011288D01*
X026193Y011417D01*
X026111Y011534D01*
X026013Y011637D01*
X025899Y011724D01*
X025774Y011793D01*
X025829Y011634D01*
X025861Y011469D01*
X025869Y011300D01*
X025852Y011133D01*
X025813Y010969D01*
X025750Y010813D01*
X025666Y010667D01*
X025562Y010535D01*
X025440Y010419D01*
X025303Y010321D01*
X025153Y010244D01*
X024994Y010189D01*
X024829Y010157D01*
X024884Y010123D02*
X025861Y010123D01*
X025969Y010202D02*
X025032Y010202D01*
X025043Y010045D02*
X025701Y010045D01*
X026052Y010280D02*
X025224Y010280D01*
X025356Y010359D02*
X026119Y010359D01*
X026171Y010437D02*
X025459Y010437D01*
X025542Y010516D02*
X026214Y010516D01*
X026253Y010594D02*
X025608Y010594D01*
X025669Y010673D02*
X026279Y010673D01*
X026300Y010751D02*
X025714Y010751D01*
X025757Y010830D02*
X026312Y010830D01*
X026319Y010908D02*
X025788Y010908D01*
X025817Y010987D02*
X026319Y010987D01*
X026311Y011065D02*
X025836Y011065D01*
X025854Y011144D02*
X026300Y011144D01*
X026276Y011222D02*
X025861Y011222D01*
X025869Y011301D02*
X026250Y011301D01*
X026211Y011379D02*
X025865Y011379D01*
X025861Y011458D02*
X026165Y011458D01*
X026109Y011536D02*
X025848Y011536D01*
X025833Y011615D02*
X026034Y011615D01*
X025940Y011693D02*
X025809Y011693D01*
X025813Y011772D02*
X025781Y011772D01*
X022838Y013420D02*
X022553Y013420D01*
X018052Y010088D02*
X017940Y010177D01*
X017816Y010248D01*
X017682Y010299D01*
X017543Y010329D01*
X017400Y010337D01*
X017257Y010329D01*
X017118Y010299D01*
X016984Y010248D01*
X016860Y010177D01*
X016748Y010088D01*
X016651Y009983D01*
X016572Y009865D01*
X016511Y009735D01*
X016471Y009598D01*
X016452Y009457D01*
X016455Y009314D01*
X016565Y009441D01*
X016693Y009551D01*
X016834Y009642D01*
X016988Y009712D01*
X017149Y009759D01*
X017316Y009783D01*
X017484Y009783D01*
X017651Y009759D01*
X017812Y009712D01*
X017966Y009642D01*
X018107Y009551D01*
X018235Y009441D01*
X018345Y009314D01*
X018348Y009457D01*
X018329Y009598D01*
X018289Y009735D01*
X018228Y009865D01*
X018149Y009983D01*
X018052Y010088D01*
X018008Y010123D02*
X016792Y010123D01*
X016708Y010045D02*
X018092Y010045D01*
X018160Y009966D02*
X016640Y009966D01*
X016587Y009888D02*
X018213Y009888D01*
X018255Y009809D02*
X016545Y009809D01*
X016509Y009731D02*
X017051Y009731D01*
X016856Y009652D02*
X016486Y009652D01*
X016467Y009574D02*
X016728Y009574D01*
X016628Y009495D02*
X016457Y009495D01*
X016453Y009417D02*
X016544Y009417D01*
X016476Y009338D02*
X016455Y009338D01*
X016902Y010202D02*
X017898Y010202D01*
X017732Y010280D02*
X017068Y010280D01*
X017749Y009731D02*
X018291Y009731D01*
X018314Y009652D02*
X017944Y009652D01*
X018072Y009574D02*
X018333Y009574D01*
X018343Y009495D02*
X018172Y009495D01*
X018256Y009417D02*
X018347Y009417D01*
X018345Y009338D02*
X018324Y009338D01*
X018345Y006386D02*
X018235Y006259D01*
X018107Y006149D01*
X017966Y006058D01*
X017812Y005988D01*
X017651Y005941D01*
X017484Y005917D01*
X017316Y005917D01*
X017149Y005941D01*
X016988Y005988D01*
X016834Y006058D01*
X016693Y006149D01*
X016565Y006259D01*
X016455Y006386D01*
X016452Y006243D01*
X016471Y006102D01*
X016511Y005965D01*
X016572Y005835D01*
X016651Y005717D01*
X016748Y005612D01*
X016860Y005523D01*
X016984Y005452D01*
X017118Y005401D01*
X017257Y005371D01*
X017400Y005363D01*
X017543Y005371D01*
X017682Y005401D01*
X017816Y005452D01*
X017940Y005523D01*
X018052Y005612D01*
X018149Y005717D01*
X018228Y005835D01*
X018289Y005965D01*
X018329Y006102D01*
X018348Y006243D01*
X018345Y006386D01*
X018346Y006355D02*
X018318Y006355D01*
X018347Y006277D02*
X018250Y006277D01*
X018164Y006198D02*
X018342Y006198D01*
X018332Y006120D02*
X018061Y006120D01*
X017928Y006041D02*
X018312Y006041D01*
X018288Y005963D02*
X017725Y005963D01*
X018086Y005649D02*
X016714Y005649D01*
X016644Y005727D02*
X018156Y005727D01*
X018208Y005806D02*
X016592Y005806D01*
X016549Y005884D02*
X018251Y005884D01*
X017999Y005570D02*
X016801Y005570D01*
X016915Y005492D02*
X017885Y005492D01*
X017714Y005413D02*
X017086Y005413D01*
X017075Y005963D02*
X016512Y005963D01*
X016488Y006041D02*
X016872Y006041D01*
X016739Y006120D02*
X016468Y006120D01*
X016458Y006198D02*
X016636Y006198D01*
X016550Y006277D02*
X016453Y006277D01*
X016454Y006355D02*
X016482Y006355D01*
X010777Y010433D02*
X010654Y010360D01*
X010522Y010306D01*
X010383Y010273D01*
X010240Y010262D01*
X010098Y010272D01*
X009959Y010305D01*
X009826Y010358D01*
X009703Y010431D01*
X009593Y010522D01*
X009498Y010628D01*
X009665Y010611D01*
X009834Y010617D01*
X009999Y010647D01*
X010159Y010700D01*
X010309Y010776D01*
X010447Y010872D01*
X010571Y010987D01*
X010676Y011118D01*
X010762Y011263D01*
X010826Y011418D01*
X010868Y011582D01*
X010886Y011749D01*
X010880Y011917D01*
X010980Y011815D01*
X011063Y011698D01*
X011127Y011571D01*
X011171Y011435D01*
X011193Y011294D01*
X011194Y011151D01*
X011173Y011009D01*
X011130Y010873D01*
X011067Y010745D01*
X010986Y010627D01*
X010887Y010524D01*
X010777Y010433D01*
X010782Y010437D02*
X009696Y010437D01*
X009601Y010516D02*
X010877Y010516D01*
X010954Y010594D02*
X009528Y010594D01*
X009825Y010359D02*
X010652Y010359D01*
X010413Y010280D02*
X010065Y010280D01*
X010076Y010673D02*
X011017Y010673D01*
X011071Y010751D02*
X010260Y010751D01*
X010386Y010830D02*
X011109Y010830D01*
X011141Y010908D02*
X010486Y010908D01*
X010570Y010987D02*
X011166Y010987D01*
X011181Y011065D02*
X010634Y011065D01*
X010691Y011144D02*
X011193Y011144D01*
X011194Y011222D02*
X010738Y011222D01*
X010778Y011301D02*
X011192Y011301D01*
X011179Y011379D02*
X010810Y011379D01*
X010836Y011458D02*
X011163Y011458D01*
X011138Y011536D02*
X010856Y011536D01*
X010872Y011615D02*
X011105Y011615D01*
X011065Y011693D02*
X010880Y011693D01*
X010885Y011772D02*
X011011Y011772D01*
X010945Y011850D02*
X010882Y011850D01*
X004302Y010628D02*
X004135Y010611D01*
X003966Y010617D01*
X003801Y010647D01*
X003641Y010700D01*
X003491Y010776D01*
X003353Y010872D01*
X003229Y010987D01*
X003124Y011118D01*
X003038Y011263D01*
X002974Y011418D01*
X002932Y011582D01*
X002914Y011749D01*
X002920Y011917D01*
X002820Y011815D01*
X002737Y011698D01*
X002673Y011571D01*
X002629Y011435D01*
X002607Y011294D01*
X002606Y011151D01*
X002627Y011009D01*
X002670Y010873D01*
X002733Y010745D01*
X002814Y010627D01*
X002913Y010524D01*
X003023Y010433D01*
X003146Y010360D01*
X003278Y010306D01*
X003417Y010273D01*
X003560Y010262D01*
X003702Y010272D01*
X003841Y010305D01*
X003974Y010358D01*
X004097Y010431D01*
X004207Y010522D01*
X004302Y010628D01*
X004272Y010594D02*
X002846Y010594D01*
X002783Y010673D02*
X003724Y010673D01*
X003540Y010751D02*
X002729Y010751D01*
X002691Y010830D02*
X003414Y010830D01*
X003314Y010908D02*
X002659Y010908D01*
X002634Y010987D02*
X003230Y010987D01*
X003166Y011065D02*
X002619Y011065D01*
X002607Y011144D02*
X003109Y011144D01*
X003062Y011222D02*
X002606Y011222D01*
X002608Y011301D02*
X003022Y011301D01*
X002990Y011379D02*
X002621Y011379D01*
X002637Y011458D02*
X002964Y011458D01*
X002944Y011536D02*
X002662Y011536D01*
X002695Y011615D02*
X002928Y011615D01*
X002920Y011693D02*
X002735Y011693D01*
X002789Y011772D02*
X002915Y011772D01*
X002918Y011850D02*
X002855Y011850D01*
X002923Y010516D02*
X004199Y010516D01*
X004104Y010437D02*
X003018Y010437D01*
X003148Y010359D02*
X003975Y010359D01*
X003735Y010280D02*
X003387Y010280D01*
D12*
X009100Y012400D03*
X016650Y017050D03*
X016900Y016550D03*
X017400Y016050D03*
X016900Y015550D03*
X017900Y015550D03*
X017900Y014550D03*
X016900Y014550D03*
X017900Y016550D03*
X006900Y019000D03*
D13*
X001040Y004309D02*
X000832Y004376D01*
X000655Y004505D01*
X000526Y004682D01*
X000459Y004890D01*
X000450Y005000D01*
X000450Y009705D01*
X000452Y009703D01*
X000580Y009650D01*
X000720Y009650D01*
X000848Y009703D01*
X000900Y009755D01*
X000952Y009703D01*
X001080Y009650D01*
X001220Y009650D01*
X001348Y009703D01*
X001400Y009755D01*
X001452Y009703D01*
X001580Y009650D01*
X001720Y009650D01*
X001848Y009703D01*
X001900Y009755D01*
X001952Y009703D01*
X002080Y009650D01*
X002220Y009650D01*
X002348Y009703D01*
X002400Y009755D01*
X002452Y009703D01*
X002580Y009650D01*
X002720Y009650D01*
X002848Y009703D01*
X002927Y009782D01*
X002927Y009737D01*
X002925Y009691D01*
X002923Y009685D01*
X002927Y009640D01*
X002927Y009595D01*
X002933Y009581D01*
X002983Y009069D01*
X002980Y009055D01*
X002989Y009010D01*
X002993Y008964D01*
X003000Y008952D01*
X002998Y008934D01*
X003011Y008895D01*
X003018Y008855D01*
X003029Y008839D01*
X003185Y008356D01*
X003186Y008336D01*
X003204Y008300D01*
X003216Y008261D01*
X003227Y008249D01*
X003228Y008240D01*
X003252Y008198D01*
X003273Y008153D01*
X003281Y008146D01*
X003526Y007714D01*
X003531Y007693D01*
X003555Y007662D01*
X003574Y007628D01*
X003589Y007617D01*
X003591Y007610D01*
X003624Y007571D01*
X003655Y007531D01*
X003663Y007527D01*
X003988Y007153D01*
X003994Y007138D01*
X004026Y007108D01*
X004055Y007075D01*
X004068Y007068D01*
X004075Y007057D01*
X004111Y007029D01*
X004144Y006997D01*
X004158Y006992D01*
X004556Y006684D01*
X004562Y006674D01*
X004603Y006647D01*
X004642Y006617D01*
X004650Y006615D01*
X004659Y006604D01*
X004697Y006585D01*
X004732Y006561D01*
X000450Y006561D01*
X000450Y006463D02*
X004934Y006463D01*
X004750Y006558D02*
X005217Y006317D01*
X005230Y006305D01*
X005270Y006290D01*
X005308Y006270D01*
X005324Y006269D01*
X005332Y006263D01*
X005378Y006248D01*
X005424Y006231D01*
X005435Y006231D01*
X005952Y006076D01*
X005967Y006066D01*
X006008Y006059D01*
X006048Y006047D01*
X006067Y006049D01*
X006068Y006049D01*
X006078Y006044D01*
X006127Y006038D01*
X006175Y006030D01*
X006186Y006032D01*
X006733Y005976D01*
X006742Y005972D01*
X006792Y005970D01*
X006842Y005964D01*
X006851Y005967D01*
X006856Y005967D01*
X006874Y005961D01*
X006915Y005964D01*
X006955Y005963D01*
X006974Y005969D01*
X007541Y006017D01*
X007554Y006014D01*
X007600Y006022D01*
X007646Y006026D01*
X007659Y006032D01*
X007659Y006033D01*
X007674Y006031D01*
X007718Y006043D01*
X007763Y006050D01*
X007775Y006058D01*
X008295Y006200D01*
X008310Y006200D01*
X008352Y006216D01*
X008395Y006227D01*
X008406Y006236D01*
X008419Y006237D01*
X008461Y006257D01*
X008504Y006274D01*
X008514Y006283D01*
X008980Y006509D01*
X008991Y006511D01*
X009033Y006535D01*
X009077Y006557D01*
X009084Y006564D01*
X009099Y006568D01*
X009133Y006593D01*
X009169Y006614D01*
X009180Y006628D01*
X009589Y006933D01*
X009600Y006937D01*
X009636Y006968D01*
X009675Y006997D01*
X009679Y007005D01*
X009691Y007010D01*
X009720Y007042D01*
X009753Y007071D01*
X009761Y007086D01*
X010102Y007457D01*
X010114Y007464D01*
X010142Y007501D01*
X010173Y007535D01*
X010177Y007546D01*
X010188Y007554D01*
X010211Y007591D01*
X010238Y007626D01*
X010242Y007642D01*
X010502Y008066D01*
X010516Y008080D01*
X010532Y008117D01*
X010554Y008152D01*
X010556Y008166D01*
X010603Y008052D01*
X010655Y008000D01*
X010603Y007948D01*
X010550Y007820D01*
X010550Y007680D01*
X010603Y007552D01*
X010655Y007500D01*
X010603Y007448D01*
X010550Y007320D01*
X010550Y007180D01*
X010603Y007052D01*
X010655Y007000D01*
X010603Y006948D01*
X010550Y006820D01*
X010550Y006680D01*
X010603Y006552D01*
X010655Y006500D01*
X010603Y006448D01*
X010550Y006320D01*
X010550Y006180D01*
X010603Y006052D01*
X010655Y006000D01*
X010603Y005948D01*
X010550Y005820D01*
X010550Y005680D01*
X010603Y005552D01*
X010655Y005500D01*
X010603Y005448D01*
X010550Y005320D01*
X010550Y005180D01*
X010603Y005052D01*
X010655Y005000D01*
X010603Y004948D01*
X010550Y004820D01*
X010550Y004680D01*
X010603Y004552D01*
X010655Y004500D01*
X010603Y004448D01*
X010550Y004320D01*
X010550Y004300D01*
X001150Y004300D01*
X001040Y004309D01*
X000808Y004394D02*
X010581Y004394D01*
X010648Y004493D02*
X000672Y004493D01*
X000593Y004591D02*
X010587Y004591D01*
X010550Y004690D02*
X000524Y004690D01*
X000492Y004788D02*
X010550Y004788D01*
X010578Y004887D02*
X000460Y004887D01*
X000451Y004985D02*
X010640Y004985D01*
X010590Y005084D02*
X000450Y005084D01*
X000450Y005182D02*
X010550Y005182D01*
X010550Y005281D02*
X000450Y005281D01*
X000450Y005379D02*
X010575Y005379D01*
X010633Y005478D02*
X000450Y005478D01*
X000450Y005576D02*
X010593Y005576D01*
X010552Y005675D02*
X000450Y005675D01*
X000450Y005773D02*
X010550Y005773D01*
X010571Y005872D02*
X000450Y005872D01*
X000450Y005970D02*
X006781Y005970D01*
X006981Y005970D02*
X010625Y005970D01*
X010596Y006069D02*
X007812Y006069D01*
X008174Y006167D02*
X010556Y006167D01*
X010550Y006266D02*
X008483Y006266D01*
X008681Y006364D02*
X010568Y006364D01*
X010618Y006463D02*
X008884Y006463D01*
X009081Y006561D02*
X010599Y006561D01*
X010559Y006660D02*
X009222Y006660D01*
X009354Y006758D02*
X010550Y006758D01*
X010565Y006857D02*
X009486Y006857D01*
X009621Y006955D02*
X010610Y006955D01*
X010603Y007054D02*
X009734Y007054D01*
X009821Y007152D02*
X010562Y007152D01*
X010550Y007251D02*
X009912Y007251D01*
X010003Y007349D02*
X010562Y007349D01*
X010603Y007448D02*
X010093Y007448D01*
X010178Y007546D02*
X010609Y007546D01*
X010565Y007645D02*
X010244Y007645D01*
X010304Y007743D02*
X010550Y007743D01*
X010559Y007842D02*
X010364Y007842D01*
X010424Y007940D02*
X010600Y007940D01*
X010617Y008039D02*
X010485Y008039D01*
X010545Y008137D02*
X010568Y008137D01*
X011145Y008000D02*
X011197Y008052D01*
X011250Y008180D01*
X011250Y008320D01*
X011197Y008448D01*
X011145Y008500D01*
X011197Y008552D01*
X011250Y008680D01*
X011250Y008820D01*
X011197Y008948D01*
X011145Y009000D01*
X011197Y009052D01*
X011250Y009180D01*
X011250Y009320D01*
X011197Y009448D01*
X011145Y009500D01*
X011197Y009552D01*
X011250Y009680D01*
X011250Y009820D01*
X011197Y009948D01*
X011182Y009963D01*
X011207Y009953D01*
X011240Y009933D01*
X011261Y009930D01*
X011282Y009922D01*
X011320Y009922D01*
X011358Y009916D01*
X011379Y009922D01*
X011401Y009922D01*
X011436Y009936D01*
X011474Y009946D01*
X011491Y009959D01*
X011511Y009967D01*
X011538Y009994D01*
X011569Y010017D01*
X011580Y010036D01*
X011633Y010089D01*
X011642Y010093D01*
X011675Y010131D01*
X011710Y010166D01*
X011714Y010175D01*
X011757Y010225D01*
X011764Y010229D01*
X011797Y010270D01*
X011831Y010309D01*
X011833Y010317D01*
X011873Y010367D01*
X011882Y010373D01*
X011910Y010414D01*
X011941Y010453D01*
X011943Y010463D01*
X011979Y010515D01*
X011983Y010518D01*
X012013Y010564D01*
X012044Y010609D01*
X012045Y010614D01*
X012078Y010666D01*
X012085Y010671D01*
X012110Y010716D01*
X012138Y010760D01*
X012140Y010768D01*
X012170Y010823D01*
X012175Y010827D01*
X012200Y010874D01*
X012226Y010921D01*
X012227Y010927D01*
X012253Y010979D01*
X012258Y010983D01*
X012280Y011031D01*
X012305Y011079D01*
X012305Y011085D01*
X012347Y011177D01*
X012493Y011458D01*
X012498Y011462D01*
X012520Y011511D01*
X012545Y011558D01*
X012545Y011565D01*
X012658Y011808D01*
X012664Y011814D01*
X012684Y011862D01*
X012705Y011909D01*
X012706Y011917D01*
X012808Y012170D01*
X012813Y012175D01*
X012831Y012225D01*
X012850Y012275D01*
X012850Y012281D01*
X012941Y012535D01*
X012944Y012539D01*
X012960Y012591D01*
X012979Y012642D01*
X012978Y012648D01*
X013061Y012909D01*
X013066Y012916D01*
X013079Y012966D01*
X013094Y013015D01*
X013094Y013023D01*
X013162Y013287D01*
X013165Y013292D01*
X013176Y013345D01*
X013190Y013397D01*
X013189Y013403D01*
X013198Y013444D01*
X013205Y013434D01*
X013226Y013392D01*
X013236Y013383D01*
X013243Y013372D01*
X013281Y013345D01*
X013316Y013314D01*
X013329Y013310D01*
X013340Y013302D01*
X013385Y013291D01*
X013429Y013276D01*
X013443Y013277D01*
X013456Y013274D01*
X013502Y013282D01*
X013509Y013282D01*
X013500Y013268D01*
X013468Y013221D01*
X013468Y013218D01*
X013466Y013216D01*
X013456Y013160D01*
X013445Y013104D01*
X013445Y013101D01*
X013445Y013098D01*
X013457Y013043D01*
X013468Y012987D01*
X013470Y012985D01*
X013470Y012982D01*
X013503Y012935D01*
X013512Y012922D01*
X013514Y012913D01*
X013545Y012874D01*
X013574Y012833D01*
X013582Y012827D01*
X013793Y012562D01*
X013796Y012551D01*
X013829Y012515D01*
X013846Y012494D01*
X013847Y012493D01*
X013849Y012491D01*
X013860Y012477D01*
X013867Y012473D01*
X013884Y012455D01*
X013920Y012416D01*
X013926Y012413D01*
X014168Y012172D01*
X014174Y012159D01*
X014210Y012130D01*
X014242Y012097D01*
X014254Y012092D01*
X014269Y012080D01*
X014313Y012044D01*
X014316Y012043D01*
X014574Y011835D01*
X014579Y011827D01*
X014621Y011797D01*
X014644Y011779D01*
X014645Y011776D01*
X014652Y011772D01*
X014660Y011765D01*
X014664Y011764D01*
X014689Y011749D01*
X014731Y011718D01*
X014739Y011717D01*
X015029Y011532D01*
X015040Y011519D01*
X015079Y011500D01*
X015116Y011476D01*
X015132Y011473D01*
X015149Y011465D01*
X015201Y011438D01*
X015202Y011438D01*
X015497Y011293D01*
X015499Y011290D01*
X015550Y011266D01*
X015571Y011256D01*
X015579Y011249D01*
X015623Y011232D01*
X015666Y011212D01*
X015679Y011211D01*
X016008Y011089D01*
X016022Y011079D01*
X016063Y011069D01*
X016104Y011054D01*
X016121Y011054D01*
X016141Y011049D01*
X016518Y010951D01*
X016527Y010946D01*
X016575Y010937D01*
X016602Y010930D01*
X016604Y010928D01*
X016609Y010928D01*
X016623Y010924D01*
X016629Y010925D01*
X016656Y010921D01*
X016707Y010912D01*
X016715Y010913D01*
X016750Y010909D01*
X016750Y010880D01*
X016764Y010847D01*
X016745Y010833D01*
X016591Y010760D01*
X016566Y010754D01*
X016537Y010734D01*
X016506Y010719D01*
X016489Y010701D01*
X016352Y010606D01*
X016328Y010596D01*
X016303Y010572D01*
X016275Y010552D01*
X016261Y010531D01*
X016143Y010415D01*
X016119Y010400D01*
X016100Y010374D01*
X016077Y010351D01*
X016066Y010326D01*
X015971Y010191D01*
X015953Y010175D01*
X015937Y010143D01*
X015916Y010114D01*
X015911Y010090D01*
X015839Y009943D01*
X015822Y009922D01*
X015813Y009890D01*
X015798Y009859D01*
X015796Y009833D01*
X015747Y009664D01*
X015732Y009636D01*
X015730Y009607D01*
X015722Y009579D01*
X015725Y009548D01*
X015712Y009384D01*
X015707Y009372D01*
X015707Y009324D01*
X015703Y009277D01*
X015707Y009265D01*
X015707Y006414D01*
X015703Y006402D01*
X015707Y006355D01*
X015707Y006300D01*
X015712Y006286D01*
X015725Y006131D01*
X015722Y006100D01*
X015730Y006072D01*
X015732Y006043D01*
X015747Y006015D01*
X015796Y005846D01*
X015798Y005820D01*
X015813Y005790D01*
X015822Y005757D01*
X015839Y005737D01*
X015911Y005589D01*
X015916Y005565D01*
X015937Y005536D01*
X015953Y005504D01*
X015971Y005488D01*
X016066Y005354D01*
X016077Y005328D01*
X016100Y005306D01*
X016119Y005279D01*
X016143Y005264D01*
X016261Y005149D01*
X016275Y005127D01*
X016303Y005108D01*
X016328Y005083D01*
X016352Y005074D01*
X016489Y004979D01*
X016506Y004960D01*
X016537Y004945D01*
X016566Y004925D01*
X016591Y004920D01*
X016745Y004847D01*
X016765Y004831D01*
X016799Y004822D01*
X016830Y004807D01*
X016855Y004806D01*
X017042Y004753D01*
X017064Y004743D01*
X016952Y004697D01*
X016853Y004598D01*
X016800Y004470D01*
X016800Y004330D01*
X016813Y004300D01*
X011250Y004300D01*
X011250Y004320D01*
X011197Y004448D01*
X011145Y004500D01*
X011197Y004552D01*
X011250Y004680D01*
X011250Y004820D01*
X011197Y004948D01*
X011145Y005000D01*
X011197Y005052D01*
X011250Y005180D01*
X011250Y005320D01*
X011197Y005448D01*
X011145Y005500D01*
X011197Y005552D01*
X011250Y005680D01*
X011250Y005820D01*
X011197Y005948D01*
X011145Y006000D01*
X011197Y006052D01*
X011250Y006180D01*
X011250Y006320D01*
X011197Y006448D01*
X011145Y006500D01*
X011197Y006552D01*
X011250Y006680D01*
X011250Y006820D01*
X011197Y006948D01*
X011145Y007000D01*
X011197Y007052D01*
X011250Y007180D01*
X011250Y007320D01*
X011197Y007448D01*
X011145Y007500D01*
X011197Y007552D01*
X011250Y007680D01*
X011250Y007820D01*
X011197Y007948D01*
X011145Y008000D01*
X011183Y008039D02*
X015707Y008039D01*
X015707Y008137D02*
X011232Y008137D01*
X011250Y008236D02*
X015707Y008236D01*
X015707Y008334D02*
X011244Y008334D01*
X011203Y008433D02*
X015707Y008433D01*
X015707Y008531D02*
X011176Y008531D01*
X011229Y008630D02*
X015707Y008630D01*
X015707Y008728D02*
X011250Y008728D01*
X011247Y008827D02*
X015707Y008827D01*
X015707Y008925D02*
X011206Y008925D01*
X011168Y009024D02*
X015707Y009024D01*
X015707Y009122D02*
X011226Y009122D01*
X011250Y009221D02*
X015707Y009221D01*
X015706Y009319D02*
X011250Y009319D01*
X011209Y009418D02*
X015714Y009418D01*
X015722Y009516D02*
X011161Y009516D01*
X011223Y009615D02*
X015730Y009615D01*
X015761Y009713D02*
X011250Y009713D01*
X011250Y009812D02*
X015790Y009812D01*
X015819Y009910D02*
X011213Y009910D01*
X011088Y010051D02*
X011024Y010077D01*
X011028Y010087D01*
X011066Y010087D01*
X011067Y010087D01*
X011079Y010072D01*
X011087Y010052D01*
X011088Y010051D01*
X011557Y010009D02*
X015871Y010009D01*
X015915Y010107D02*
X011654Y010107D01*
X011740Y010206D02*
X015981Y010206D01*
X016051Y010304D02*
X011826Y010304D01*
X011902Y010403D02*
X016123Y010403D01*
X016231Y010501D02*
X011970Y010501D01*
X012037Y010600D02*
X016337Y010600D01*
X016485Y010698D02*
X012100Y010698D01*
X012156Y010797D02*
X016669Y010797D01*
X016750Y010895D02*
X012212Y010895D01*
X012263Y010994D02*
X016355Y010994D01*
X016000Y011092D02*
X012308Y011092D01*
X012354Y011191D02*
X015735Y011191D01*
X015501Y011289D02*
X012405Y011289D01*
X012456Y011388D02*
X015305Y011388D01*
X015100Y011486D02*
X012509Y011486D01*
X012554Y011585D02*
X014946Y011585D01*
X014792Y011683D02*
X012600Y011683D01*
X012646Y011782D02*
X014640Y011782D01*
X014518Y011880D02*
X012692Y011880D01*
X012731Y011979D02*
X014396Y011979D01*
X014273Y012077D02*
X012771Y012077D01*
X012813Y012176D02*
X014164Y012176D01*
X014065Y012274D02*
X012850Y012274D01*
X012883Y012373D02*
X013967Y012373D01*
X013868Y012471D02*
X012918Y012471D01*
X012954Y012570D02*
X013786Y012570D01*
X013708Y012668D02*
X012985Y012668D01*
X013016Y012767D02*
X013630Y012767D01*
X013551Y012865D02*
X013047Y012865D01*
X013078Y012964D02*
X013483Y012964D01*
X013453Y013062D02*
X013103Y013062D01*
X013129Y013161D02*
X013456Y013161D01*
X013494Y013259D02*
X013154Y013259D01*
X013180Y013358D02*
X013263Y013358D01*
X012180Y013653D02*
X001676Y013653D01*
X001698Y013555D02*
X012157Y013555D01*
X012134Y013456D02*
X001721Y013456D01*
X001744Y013358D02*
X012111Y013358D01*
X012091Y013274D02*
X012068Y013201D01*
X011867Y012606D01*
X011837Y012532D01*
X011584Y011965D01*
X011548Y011900D01*
X011408Y011656D01*
X011396Y011681D01*
X011385Y011715D01*
X011370Y011732D01*
X011337Y011797D01*
X011332Y011820D01*
X011312Y011849D01*
X011296Y011880D01*
X011537Y011880D01*
X011590Y011979D02*
X011225Y011979D01*
X011228Y011976D02*
X011203Y012001D01*
X011182Y012030D01*
X011163Y012042D01*
X011123Y012083D01*
X011120Y012090D01*
X011083Y012125D01*
X011047Y012161D01*
X011041Y012164D01*
X011035Y012169D01*
X010988Y012186D01*
X010941Y012206D01*
X010934Y012206D01*
X010927Y012209D01*
X010877Y012207D01*
X010826Y012208D01*
X010819Y012205D01*
X010812Y012205D01*
X010766Y012184D01*
X010719Y012165D01*
X010714Y012160D01*
X010707Y012157D01*
X010672Y012120D01*
X010636Y012085D01*
X010633Y012078D01*
X010628Y012073D01*
X010611Y012025D01*
X010591Y011979D01*
X010591Y011971D01*
X010588Y011964D01*
X010588Y011957D01*
X010526Y011983D01*
X010174Y011983D01*
X009850Y011849D01*
X009601Y011600D01*
X009467Y011276D01*
X009467Y011249D01*
X009450Y011280D01*
X009448Y011281D01*
X009421Y011326D01*
X009392Y011374D01*
X009390Y011376D01*
X009372Y011405D01*
X009347Y011450D01*
X009341Y011455D01*
X009337Y011462D01*
X009294Y011492D01*
X009255Y011524D01*
X009246Y011537D01*
X009209Y011561D01*
X009175Y011588D01*
X009159Y011592D01*
X009114Y011621D01*
X009111Y011623D01*
X009096Y011640D01*
X009062Y011657D01*
X009031Y011679D01*
X009009Y011684D01*
X009000Y011688D01*
X008958Y011711D01*
X008947Y011722D01*
X008906Y011740D01*
X008871Y011758D01*
X008869Y011761D01*
X008841Y011773D01*
X008816Y011787D01*
X008808Y011788D01*
X008796Y011794D01*
X008790Y011801D01*
X008763Y011812D01*
X008738Y011827D01*
X008736Y011827D01*
X008733Y011829D01*
X008695Y011845D01*
X008659Y011866D01*
X008643Y011868D01*
X008601Y011885D01*
X008570Y011898D01*
X008568Y011900D01*
X008550Y011907D01*
X008548Y011907D01*
X008516Y011919D01*
X008489Y011930D01*
X008486Y011931D01*
X008464Y011940D01*
X008461Y011940D01*
X008435Y011949D01*
X008381Y011969D01*
X008379Y011969D01*
X008325Y011987D01*
X008319Y011992D01*
X008269Y012007D01*
X008219Y012025D01*
X008212Y012024D01*
X008155Y012041D01*
X008149Y012045D01*
X008098Y012058D01*
X008048Y012073D01*
X008040Y012073D01*
X008015Y012079D01*
X007948Y012097D01*
X007941Y012102D01*
X007891Y012112D01*
X007841Y012125D01*
X007833Y012124D01*
X007821Y012127D01*
X007816Y012130D01*
X007763Y012139D01*
X007710Y012150D01*
X007704Y012148D01*
X007640Y012159D01*
X007579Y012170D01*
X007574Y012173D01*
X007521Y012180D01*
X007467Y012189D01*
X007462Y012188D01*
X007451Y012189D01*
X007446Y012191D01*
X007392Y012197D01*
X007338Y012204D01*
X007333Y012203D01*
X007323Y012204D01*
X007318Y012206D01*
X007264Y012210D01*
X007209Y012215D01*
X007205Y012214D01*
X007066Y012223D01*
X007052Y012228D01*
X007007Y012227D01*
X006963Y012230D01*
X006948Y012225D01*
X006826Y012220D01*
X006821Y012222D01*
X006767Y012218D01*
X006712Y012216D01*
X006707Y012214D01*
X006707Y012214D01*
X006706Y012214D01*
X006647Y012210D01*
X006590Y012206D01*
X006585Y012207D01*
X006531Y012202D01*
X006477Y012198D01*
X006472Y012195D01*
X006470Y012195D01*
X006464Y012196D01*
X006410Y012189D01*
X006356Y012183D01*
X006352Y012180D01*
X006238Y012164D01*
X006233Y012165D01*
X006180Y012156D01*
X006126Y012148D01*
X006121Y012145D01*
X006118Y012145D01*
X006113Y012146D01*
X006059Y012134D01*
X006005Y012125D01*
X006001Y012122D01*
X005845Y012089D01*
X005836Y012090D01*
X005786Y012076D01*
X005736Y012066D01*
X005729Y012061D01*
X005696Y012052D01*
X005686Y012052D01*
X005639Y012036D01*
X005591Y012023D01*
X005583Y012017D01*
X005426Y011963D01*
X005418Y011963D01*
X005370Y011944D01*
X005321Y011927D01*
X005315Y011921D01*
X005290Y011911D01*
X005288Y011911D01*
X005235Y011889D01*
X005181Y011867D01*
X005180Y011866D01*
X005157Y011856D01*
X005146Y011855D01*
X005102Y011833D01*
X005056Y011814D01*
X005049Y011806D01*
X004958Y011761D01*
X004953Y011761D01*
X004908Y011738D01*
X004901Y011737D01*
X004881Y011726D01*
X004858Y011716D01*
X004853Y011711D01*
X004807Y011688D01*
X004803Y011683D01*
X004116Y011683D01*
X004199Y011600D02*
X003950Y011849D01*
X003626Y011983D01*
X003274Y011983D01*
X003212Y011957D01*
X003212Y011964D01*
X003209Y011971D01*
X003209Y011979D01*
X003189Y012025D01*
X003172Y012073D01*
X003167Y012078D01*
X003164Y012085D01*
X003128Y012120D01*
X003093Y012157D01*
X003086Y012160D01*
X003081Y012165D01*
X003034Y012184D01*
X002988Y012205D01*
X002981Y012205D01*
X002974Y012208D01*
X002923Y012207D01*
X002873Y012209D01*
X002866Y012206D01*
X002859Y012206D01*
X002812Y012186D01*
X002765Y012169D01*
X002759Y012164D01*
X002753Y012161D01*
X002717Y012125D01*
X002680Y012090D01*
X002677Y012083D01*
X002637Y012042D01*
X002618Y012030D01*
X002597Y012001D01*
X002572Y011976D01*
X002564Y011955D01*
X002521Y011895D01*
X002504Y011880D01*
X002326Y011880D01*
X002381Y011782D02*
X002455Y011782D01*
X002463Y011797D02*
X002430Y011732D01*
X002417Y011717D01*
X002268Y011984D01*
X002235Y012049D01*
X001990Y012612D01*
X001963Y012687D01*
X001766Y013273D01*
X001746Y013346D01*
X001608Y013948D01*
X001594Y014021D01*
X001510Y014633D01*
X001503Y014710D01*
X001476Y015320D01*
X001480Y015397D01*
X001508Y015974D01*
X001511Y015981D01*
X001511Y016033D01*
X001514Y016085D01*
X001512Y016092D01*
X001527Y016444D01*
X001530Y016484D01*
X001572Y016839D01*
X001578Y016880D01*
X001643Y017232D01*
X001652Y017270D01*
X001747Y017615D01*
X001760Y017654D01*
X001874Y017994D01*
X001889Y018030D01*
X001986Y018255D01*
X001988Y018251D01*
X002004Y018220D01*
X002021Y018205D01*
X002064Y018145D01*
X002072Y018124D01*
X002097Y018099D01*
X002118Y018070D01*
X002137Y018058D01*
X002177Y018017D01*
X002180Y018010D01*
X002217Y017975D01*
X002253Y017939D01*
X002259Y017936D01*
X002265Y017931D01*
X002312Y017914D01*
X002359Y017894D01*
X002366Y017894D01*
X002373Y017891D01*
X002423Y017893D01*
X002474Y017892D01*
X002481Y017895D01*
X002488Y017895D01*
X002534Y017916D01*
X002581Y017935D01*
X002586Y017940D01*
X002593Y017943D01*
X002628Y017980D01*
X002664Y018015D01*
X002667Y018022D01*
X002672Y018027D01*
X002689Y018075D01*
X002709Y018121D01*
X002709Y018129D01*
X002712Y018136D01*
X002712Y018143D01*
X002774Y018117D01*
X003126Y018117D01*
X003450Y018251D01*
X003699Y018500D01*
X003833Y018824D01*
X003833Y019176D01*
X003832Y019178D01*
X003836Y019179D01*
X003843Y019179D01*
X003891Y019196D01*
X003940Y019210D01*
X003945Y019214D01*
X003952Y019217D01*
X003990Y019251D01*
X004029Y019282D01*
X004033Y019289D01*
X004038Y019294D01*
X004060Y019339D01*
X004084Y019384D01*
X004085Y019391D01*
X004088Y019398D01*
X004091Y019448D01*
X004097Y019498D01*
X004095Y019505D01*
X004095Y019513D01*
X004078Y019561D01*
X004064Y019609D01*
X004059Y019615D01*
X004057Y019622D01*
X004023Y019659D01*
X003991Y019699D01*
X003985Y019702D01*
X003947Y019745D01*
X003936Y019765D01*
X003909Y019788D01*
X003885Y019814D01*
X003864Y019824D01*
X003808Y019871D01*
X003794Y019889D01*
X003764Y019907D01*
X003736Y019930D01*
X003715Y019936D01*
X003652Y019974D01*
X003635Y019990D01*
X003603Y020003D01*
X003572Y020021D01*
X003550Y020024D01*
X003482Y020051D01*
X003463Y020065D01*
X003429Y020073D01*
X003396Y020086D01*
X003373Y020086D01*
X003329Y020096D01*
X003472Y020224D01*
X003515Y020259D01*
X003894Y020539D01*
X003941Y020567D01*
X004355Y020815D01*
X004401Y020839D01*
X004835Y021043D01*
X004885Y021065D01*
X005328Y021224D01*
X005380Y021239D01*
X005849Y021355D01*
X005901Y021368D01*
X006368Y021436D01*
X006424Y021442D01*
X006896Y021465D01*
X006951Y021465D01*
X007431Y021438D01*
X007483Y021435D01*
X007943Y021364D01*
X008000Y021351D01*
X008462Y021232D01*
X008516Y021216D01*
X008959Y021057D01*
X009009Y021035D01*
X009433Y020836D01*
X009483Y020806D01*
X009533Y020776D01*
X009535Y020776D01*
X009898Y020562D01*
X009944Y020531D01*
X010324Y020250D01*
X010364Y020217D01*
X010491Y020100D01*
X010427Y020086D01*
X010404Y020086D01*
X010371Y020073D01*
X010337Y020065D01*
X010318Y020051D01*
X010250Y020024D01*
X010228Y020021D01*
X010197Y020003D01*
X010165Y019990D01*
X010148Y019974D01*
X010085Y019936D01*
X010064Y019930D01*
X010036Y019907D01*
X010006Y019889D01*
X009992Y019871D01*
X009936Y019824D01*
X009915Y019814D01*
X009891Y019788D01*
X009864Y019765D01*
X009853Y019745D01*
X009815Y019702D01*
X009809Y019699D01*
X009777Y019659D01*
X009743Y019622D01*
X009741Y019615D01*
X009736Y019609D01*
X009722Y019561D01*
X009705Y019513D01*
X009705Y019505D01*
X009703Y019498D01*
X009709Y019448D01*
X009712Y019398D01*
X009715Y019391D01*
X009716Y019384D01*
X009740Y019339D01*
X009762Y019294D01*
X009767Y019289D01*
X009771Y019282D01*
X009810Y019251D01*
X009848Y019217D01*
X009855Y019214D01*
X009860Y019210D01*
X009909Y019196D01*
X009957Y019179D01*
X009964Y019179D01*
X009968Y019178D01*
X009967Y019176D01*
X009967Y018824D01*
X010101Y018500D01*
X010350Y018251D01*
X010674Y018117D01*
X011026Y018117D01*
X011088Y018143D01*
X011088Y018136D01*
X011091Y018129D01*
X011091Y018121D01*
X011111Y018075D01*
X011128Y018027D01*
X011133Y018022D01*
X011136Y018015D01*
X011172Y017980D01*
X011207Y017943D01*
X011214Y017940D01*
X011219Y017935D01*
X011266Y017916D01*
X011312Y017895D01*
X011319Y017895D01*
X011326Y017892D01*
X011377Y017893D01*
X011427Y017891D01*
X011434Y017894D01*
X011441Y017894D01*
X011488Y017914D01*
X011535Y017931D01*
X011541Y017936D01*
X011547Y017939D01*
X011583Y017975D01*
X011620Y018010D01*
X011623Y018017D01*
X011663Y018058D01*
X011682Y018070D01*
X011703Y018099D01*
X011728Y018124D01*
X011736Y018145D01*
X011779Y018205D01*
X011796Y018220D01*
X011812Y018251D01*
X011829Y018276D01*
X011947Y017999D01*
X011962Y017961D01*
X012076Y017633D01*
X012088Y017593D01*
X001741Y017593D01*
X001714Y017495D02*
X012113Y017495D01*
X012088Y017593D02*
X012176Y017253D01*
X012185Y017211D01*
X012250Y016868D01*
X012257Y016827D01*
X012299Y016476D01*
X012302Y016438D01*
X012312Y016127D01*
X012308Y016112D01*
X012314Y016067D01*
X012315Y016022D01*
X012321Y016009D01*
X012326Y015973D01*
X012361Y015345D01*
X012364Y015269D01*
X012337Y014651D01*
X012331Y014574D01*
X012246Y013953D01*
X012232Y013876D01*
X012091Y013274D01*
X012087Y013259D02*
X001771Y013259D01*
X001804Y013161D02*
X012054Y013161D01*
X012021Y013062D02*
X001837Y013062D01*
X001870Y012964D02*
X011988Y012964D01*
X011955Y012865D02*
X001903Y012865D01*
X001936Y012767D02*
X008830Y012767D01*
X008845Y012781D02*
X008719Y012655D01*
X008650Y012490D01*
X008650Y012310D01*
X008719Y012145D01*
X008845Y012019D01*
X009010Y011950D01*
X009190Y011950D01*
X009355Y012019D01*
X009481Y012145D01*
X009550Y012310D01*
X009550Y012490D01*
X009481Y012655D01*
X009355Y012781D01*
X009190Y012850D01*
X009010Y012850D01*
X008845Y012781D01*
X008732Y012668D02*
X001970Y012668D01*
X002009Y012570D02*
X008683Y012570D01*
X008650Y012471D02*
X002052Y012471D01*
X002095Y012373D02*
X008650Y012373D01*
X008665Y012274D02*
X002138Y012274D01*
X002180Y012176D02*
X002783Y012176D01*
X002671Y012077D02*
X002223Y012077D01*
X002271Y011979D02*
X002575Y011979D01*
X002504Y011880D02*
X002488Y011849D01*
X002468Y011820D01*
X002463Y011797D01*
X003055Y012176D02*
X006318Y012176D01*
X005789Y012077D02*
X003167Y012077D01*
X003209Y011979D02*
X003263Y011979D01*
X003637Y011979D02*
X005471Y011979D01*
X005213Y011880D02*
X003874Y011880D01*
X004017Y011782D02*
X004999Y011782D01*
X004803Y011683D02*
X004784Y011672D01*
X004772Y011670D01*
X004732Y011643D01*
X004691Y011620D01*
X004683Y011610D01*
X004664Y011598D01*
X004624Y011577D01*
X004614Y011565D01*
X004602Y011556D01*
X004577Y011519D01*
X004563Y011502D01*
X004554Y011497D01*
X004525Y011456D01*
X004493Y011417D01*
X004490Y011408D01*
X004446Y011347D01*
X004438Y011342D01*
X004412Y011299D01*
X004382Y011258D01*
X004381Y011252D01*
X004371Y011244D01*
X004351Y011204D01*
X004333Y011175D01*
X004333Y011276D01*
X004199Y011600D01*
X004205Y011585D02*
X004639Y011585D01*
X004547Y011486D02*
X004246Y011486D01*
X004287Y011388D02*
X004475Y011388D01*
X004404Y011289D02*
X004328Y011289D01*
X004333Y011191D02*
X004343Y011191D01*
X004875Y010909D02*
X004909Y010963D01*
X005000Y011089D01*
X005021Y011115D01*
X005045Y011131D01*
X005135Y011181D01*
X005146Y011186D01*
X005150Y011186D01*
X005198Y011210D01*
X005246Y011232D01*
X005251Y011237D01*
X005352Y011287D01*
X005464Y011334D01*
X005580Y011382D01*
X005815Y011462D01*
X005928Y011493D01*
X006174Y011545D01*
X006275Y011563D01*
X006485Y011593D01*
X006585Y011604D01*
X006689Y011611D01*
X006798Y011619D01*
X006998Y011626D01*
X007214Y011612D01*
X007322Y011601D01*
X007430Y011586D01*
X007480Y011578D01*
X007481Y011577D01*
X007539Y011568D01*
X007597Y011558D01*
X007598Y011558D01*
X007652Y011549D01*
X007753Y011528D01*
X007807Y011513D01*
X007809Y011512D01*
X007865Y011498D01*
X007920Y011483D01*
X007923Y011484D01*
X007939Y011480D01*
X008083Y011436D01*
X008232Y011384D01*
X008301Y011359D01*
X008373Y011330D01*
X008410Y011314D01*
X008416Y011308D01*
X008455Y011291D01*
X008492Y011270D01*
X008494Y011270D01*
X008495Y011269D01*
X008534Y011252D01*
X008571Y011231D01*
X008573Y011231D01*
X008574Y011229D01*
X008613Y011213D01*
X008650Y011191D01*
X008661Y011190D01*
X008670Y011185D01*
X008673Y011181D01*
X008722Y011157D01*
X008752Y011140D01*
X008781Y011122D01*
X008824Y011091D01*
X008831Y011090D01*
X008860Y011072D01*
X008885Y011051D01*
X008907Y011015D01*
X008954Y010936D01*
X008998Y010856D01*
X009041Y010773D01*
X009080Y010692D01*
X009115Y010611D01*
X009148Y010528D01*
X009162Y010490D01*
X009162Y010488D01*
X009183Y010434D01*
X009203Y010379D01*
X009204Y010378D01*
X009205Y010377D01*
X009245Y010335D01*
X009285Y010292D01*
X009286Y010292D01*
X009296Y010281D01*
X009305Y010265D01*
X009337Y010238D01*
X009366Y010208D01*
X009383Y010200D01*
X009411Y010177D01*
X009423Y010160D01*
X009457Y010139D01*
X009488Y010114D01*
X009507Y010108D01*
X009526Y010096D01*
X009532Y010088D01*
X009576Y010064D01*
X009619Y010038D01*
X009629Y010036D01*
X009654Y010023D01*
X009669Y010008D01*
X009706Y009995D01*
X009740Y009976D01*
X009761Y009974D01*
X009792Y009963D01*
X009805Y009953D01*
X009847Y009942D01*
X009888Y009927D01*
X009905Y009928D01*
X009932Y009921D01*
X009946Y009913D01*
X009989Y009907D01*
X010031Y009896D01*
X010048Y009899D01*
X010076Y009895D01*
X010090Y009888D01*
X010135Y009887D01*
X010178Y009881D01*
X010194Y009885D01*
X010225Y009884D01*
X010245Y009878D01*
X010284Y009882D01*
X010289Y009882D01*
X010289Y009583D01*
X010219Y009023D01*
X010207Y008972D01*
X010023Y008447D01*
X010001Y008397D01*
X009716Y007931D01*
X009682Y007887D01*
X009301Y007472D01*
X009259Y007435D01*
X008802Y007095D01*
X008752Y007065D01*
X008222Y006808D01*
X008166Y006787D01*
X007587Y006629D01*
X007523Y006618D01*
X006902Y006565D01*
X006836Y006568D01*
X006209Y006633D01*
X006147Y006644D01*
X005572Y006817D01*
X005515Y006839D01*
X005002Y007103D01*
X004954Y007135D01*
X004501Y007486D01*
X004459Y007524D01*
X004090Y007951D01*
X004057Y007994D01*
X003785Y008474D01*
X003762Y008522D01*
X003593Y009044D01*
X003583Y009095D01*
X003527Y009669D01*
X003527Y009722D01*
X003528Y009737D01*
X003531Y009745D01*
X003531Y009796D01*
X003534Y009848D01*
X003531Y009856D01*
X003531Y009898D01*
X003553Y009898D01*
X003596Y009895D01*
X003605Y009893D01*
X003646Y009898D01*
X003688Y009898D01*
X003704Y009905D01*
X003732Y009908D01*
X003756Y009911D01*
X003774Y009908D01*
X003814Y009918D01*
X003855Y009923D01*
X003871Y009933D01*
X003905Y009941D01*
X003927Y009941D01*
X003962Y009955D01*
X004000Y009965D01*
X004017Y009978D01*
X004044Y009989D01*
X004056Y009990D01*
X004099Y010011D01*
X004144Y010029D01*
X004152Y010038D01*
X004176Y010049D01*
X004194Y010053D01*
X004228Y010076D01*
X004265Y010094D01*
X004278Y010109D01*
X004301Y010124D01*
X004316Y010129D01*
X004351Y010157D01*
X004388Y010182D01*
X004397Y010195D01*
X004417Y010212D01*
X004435Y010220D01*
X004463Y010249D01*
X004495Y010275D01*
X004504Y010292D01*
X004527Y010316D01*
X004543Y010326D01*
X004568Y010359D01*
X004596Y010389D01*
X004603Y010407D01*
X004619Y010429D01*
X004631Y010437D01*
X004654Y010476D01*
X004681Y010513D01*
X004685Y010527D01*
X004703Y010557D01*
X004720Y010575D01*
X004733Y010608D01*
X004751Y010638D01*
X004755Y010662D01*
X004771Y010703D01*
X004799Y010765D01*
X004811Y010786D01*
X004815Y010790D01*
X004839Y010838D01*
X004865Y010885D01*
X004866Y010891D01*
X004875Y010909D01*
X004868Y010895D02*
X008977Y010895D01*
X009029Y010797D02*
X004819Y010797D01*
X004769Y010698D02*
X009077Y010698D01*
X009120Y010600D02*
X004730Y010600D01*
X004673Y010501D02*
X009158Y010501D01*
X009195Y010403D02*
X004601Y010403D01*
X004515Y010304D02*
X009274Y010304D01*
X009371Y010206D02*
X004410Y010206D01*
X004276Y010107D02*
X009508Y010107D01*
X009669Y010009D02*
X004094Y010009D01*
X003781Y009910D02*
X009967Y009910D01*
X010289Y009812D02*
X003532Y009812D01*
X003527Y009713D02*
X004341Y009713D01*
X004382Y009754D02*
X004296Y009668D01*
X004250Y009556D01*
X004250Y008844D01*
X004296Y008732D01*
X004382Y008646D01*
X004494Y008600D01*
X004616Y008600D01*
X004728Y008646D01*
X004752Y008670D01*
X004776Y008646D01*
X004888Y008600D01*
X005009Y008600D01*
X005074Y008627D01*
X005139Y008600D01*
X005260Y008600D01*
X005372Y008646D01*
X005396Y008670D01*
X005399Y008668D01*
X005420Y008646D01*
X005449Y008635D01*
X005474Y008618D01*
X005504Y008612D01*
X005533Y008600D01*
X005563Y008600D01*
X005593Y008594D01*
X005623Y008600D01*
X005654Y008600D01*
X005682Y008612D01*
X005712Y008618D01*
X005738Y008635D01*
X005766Y008646D01*
X005768Y008648D01*
X005770Y008646D01*
X005882Y008600D01*
X006200Y008600D01*
X006312Y008646D01*
X006363Y008698D01*
X006414Y008646D01*
X006526Y008600D01*
X006845Y008600D01*
X006957Y008646D01*
X006959Y008648D01*
X006960Y008646D01*
X007073Y008600D01*
X007194Y008600D01*
X007306Y008646D01*
X007330Y008670D01*
X007354Y008646D01*
X007466Y008600D01*
X007588Y008600D01*
X007700Y008646D01*
X007702Y008648D01*
X007703Y008646D01*
X007815Y008600D01*
X008134Y008600D01*
X008246Y008646D01*
X008297Y008698D01*
X008348Y008646D01*
X008460Y008600D01*
X008778Y008600D01*
X008890Y008646D01*
X008989Y008745D01*
X008997Y008753D01*
X009005Y008732D01*
X009091Y008646D01*
X009203Y008600D01*
X009324Y008600D01*
X009436Y008646D01*
X009522Y008732D01*
X009569Y008844D01*
X009569Y009210D01*
X009633Y009237D01*
X009719Y009323D01*
X009766Y009435D01*
X009766Y009556D01*
X009719Y009668D01*
X009633Y009754D01*
X009521Y009801D01*
X009006Y009801D01*
X008941Y009774D01*
X008877Y009801D01*
X008755Y009801D01*
X008643Y009754D01*
X008619Y009730D01*
X008595Y009754D01*
X008483Y009801D01*
X008362Y009801D01*
X008250Y009754D01*
X008248Y009752D01*
X008246Y009754D01*
X008172Y009785D01*
X008134Y009801D01*
X007815Y009801D01*
X007749Y009773D01*
X007703Y009754D01*
X007702Y009753D01*
X007702Y009752D01*
X007700Y009754D01*
X007588Y009801D01*
X007466Y009801D01*
X007354Y009754D01*
X007330Y009730D01*
X007306Y009754D01*
X007194Y009801D01*
X007073Y009801D01*
X006960Y009754D01*
X006959Y009752D01*
X006957Y009754D01*
X006909Y009774D01*
X006845Y009801D01*
X006526Y009801D01*
X006460Y009773D01*
X006414Y009754D01*
X006413Y009753D01*
X006363Y009703D01*
X006322Y009744D01*
X006312Y009754D01*
X006272Y009771D01*
X006200Y009801D01*
X005882Y009801D01*
X005815Y009773D01*
X005770Y009754D01*
X005770Y009754D01*
X005768Y009753D01*
X005768Y009752D01*
X005766Y009754D01*
X005654Y009801D01*
X005533Y009801D01*
X005420Y009754D01*
X005397Y009730D01*
X005394Y009732D01*
X005372Y009754D01*
X005344Y009766D01*
X005319Y009783D01*
X005289Y009789D01*
X005260Y009801D01*
X005230Y009801D01*
X005200Y009806D01*
X005170Y009801D01*
X005139Y009801D01*
X005111Y009789D01*
X005081Y009783D01*
X005070Y009775D01*
X005009Y009801D01*
X004888Y009801D01*
X004776Y009754D01*
X004752Y009730D01*
X004728Y009754D01*
X004616Y009801D01*
X004494Y009801D01*
X004382Y009754D01*
X004274Y009615D02*
X003533Y009615D01*
X003542Y009516D02*
X004250Y009516D01*
X004250Y009418D02*
X003552Y009418D01*
X003562Y009319D02*
X004250Y009319D01*
X004250Y009221D02*
X003571Y009221D01*
X003581Y009122D02*
X004250Y009122D01*
X004250Y009024D02*
X003600Y009024D01*
X003632Y008925D02*
X004250Y008925D01*
X004257Y008827D02*
X003664Y008827D01*
X003696Y008728D02*
X004301Y008728D01*
X004423Y008630D02*
X003728Y008630D01*
X003759Y008531D02*
X010052Y008531D01*
X010087Y008630D02*
X009396Y008630D01*
X009518Y008728D02*
X010121Y008728D01*
X010156Y008827D02*
X009561Y008827D01*
X009569Y008925D02*
X010190Y008925D01*
X010219Y009024D02*
X009569Y009024D01*
X009569Y009122D02*
X010231Y009122D01*
X010244Y009221D02*
X009594Y009221D01*
X009715Y009319D02*
X010256Y009319D01*
X010269Y009418D02*
X009758Y009418D01*
X009766Y009516D02*
X010281Y009516D01*
X010289Y009615D02*
X009741Y009615D01*
X009674Y009713D02*
X010289Y009713D01*
X009132Y008630D02*
X008849Y008630D01*
X008972Y008728D02*
X009009Y008728D01*
X008389Y008630D02*
X008205Y008630D01*
X007744Y008630D02*
X007659Y008630D01*
X007395Y008630D02*
X007265Y008630D01*
X007001Y008630D02*
X006916Y008630D01*
X006455Y008630D02*
X006271Y008630D01*
X005811Y008630D02*
X005730Y008630D01*
X005456Y008630D02*
X005331Y008630D01*
X004817Y008630D02*
X004687Y008630D01*
X003920Y008236D02*
X009902Y008236D01*
X009962Y008334D02*
X003864Y008334D01*
X003808Y008433D02*
X010017Y008433D01*
X009842Y008137D02*
X003976Y008137D01*
X004031Y008039D02*
X009781Y008039D01*
X009721Y007940D02*
X004099Y007940D01*
X004184Y007842D02*
X009640Y007842D01*
X009550Y007743D02*
X004270Y007743D01*
X004355Y007645D02*
X009459Y007645D01*
X009369Y007546D02*
X004441Y007546D01*
X004550Y007448D02*
X009273Y007448D01*
X009143Y007349D02*
X004677Y007349D01*
X004804Y007251D02*
X009011Y007251D01*
X008879Y007152D02*
X004931Y007152D01*
X005097Y007054D02*
X008727Y007054D01*
X008524Y006955D02*
X005289Y006955D01*
X005480Y006857D02*
X008321Y006857D01*
X008060Y006758D02*
X005768Y006758D01*
X006095Y006660D02*
X007699Y006660D01*
X005964Y006069D02*
X000450Y006069D01*
X000450Y006167D02*
X005650Y006167D01*
X005328Y006266D02*
X000450Y006266D01*
X000450Y006364D02*
X005126Y006364D01*
X004750Y006558D02*
X004732Y006561D01*
X004585Y006660D02*
X000450Y006660D01*
X000450Y006758D02*
X004460Y006758D01*
X004333Y006857D02*
X000450Y006857D01*
X000450Y006955D02*
X004206Y006955D01*
X004079Y007054D02*
X000450Y007054D01*
X000450Y007152D02*
X003988Y007152D01*
X003903Y007251D02*
X000450Y007251D01*
X000450Y007349D02*
X003817Y007349D01*
X003732Y007448D02*
X000450Y007448D01*
X000450Y007546D02*
X003644Y007546D01*
X003565Y007645D02*
X000450Y007645D01*
X000450Y007743D02*
X003509Y007743D01*
X003454Y007842D02*
X000450Y007842D01*
X000450Y007940D02*
X003398Y007940D01*
X003342Y008039D02*
X000450Y008039D01*
X000450Y008137D02*
X003286Y008137D01*
X003231Y008236D02*
X000450Y008236D01*
X000450Y008334D02*
X003187Y008334D01*
X003161Y008433D02*
X000450Y008433D01*
X000450Y008531D02*
X003129Y008531D01*
X003097Y008630D02*
X000450Y008630D01*
X000450Y008728D02*
X003065Y008728D01*
X003033Y008827D02*
X000450Y008827D01*
X000450Y008925D02*
X003001Y008925D01*
X002986Y009024D02*
X000450Y009024D01*
X000450Y009122D02*
X002978Y009122D01*
X002968Y009221D02*
X000450Y009221D01*
X000450Y009319D02*
X002959Y009319D01*
X002949Y009418D02*
X000450Y009418D01*
X000450Y009516D02*
X002939Y009516D01*
X002927Y009615D02*
X000450Y009615D01*
X000858Y009713D02*
X000942Y009713D01*
X001358Y009713D02*
X001442Y009713D01*
X001858Y009713D02*
X001942Y009713D01*
X002358Y009713D02*
X002442Y009713D01*
X002858Y009713D02*
X002926Y009713D01*
X003748Y009910D02*
X003762Y009910D01*
X004931Y010994D02*
X008920Y010994D01*
X008823Y011092D02*
X005002Y011092D01*
X005159Y011191D02*
X008657Y011191D01*
X008459Y011289D02*
X005356Y011289D01*
X005598Y011388D02*
X008223Y011388D01*
X007910Y011486D02*
X005902Y011486D01*
X006424Y011585D02*
X007441Y011585D01*
X007552Y012176D02*
X008706Y012176D01*
X008787Y012077D02*
X008023Y012077D01*
X008350Y011979D02*
X008942Y011979D01*
X008826Y011782D02*
X009783Y011782D01*
X009684Y011683D02*
X009012Y011683D01*
X009179Y011585D02*
X009595Y011585D01*
X009554Y011486D02*
X009303Y011486D01*
X009383Y011388D02*
X009513Y011388D01*
X009472Y011289D02*
X009444Y011289D01*
X009258Y011979D02*
X010163Y011979D01*
X009926Y011880D02*
X008613Y011880D01*
X008548Y011907D02*
X008548Y011907D01*
X008489Y011930D02*
X008489Y011930D01*
X009413Y012077D02*
X010633Y012077D01*
X010591Y011979D02*
X010537Y011979D01*
X010745Y012176D02*
X009494Y012176D01*
X009535Y012274D02*
X011722Y012274D01*
X011766Y012373D02*
X009550Y012373D01*
X009550Y012471D02*
X011810Y012471D01*
X011852Y012570D02*
X009517Y012570D01*
X009468Y012668D02*
X011888Y012668D01*
X011921Y012767D02*
X009370Y012767D01*
X011017Y012176D02*
X011678Y012176D01*
X011634Y012077D02*
X011129Y012077D01*
X011228Y011976D02*
X011236Y011955D01*
X011279Y011895D01*
X011296Y011880D01*
X011345Y011782D02*
X011480Y011782D01*
X011424Y011683D02*
X011395Y011683D01*
X012203Y013752D02*
X001653Y013752D01*
X001630Y013850D02*
X012226Y013850D01*
X012245Y013949D02*
X001608Y013949D01*
X001591Y014047D02*
X012259Y014047D01*
X012272Y014146D02*
X001577Y014146D01*
X001563Y014244D02*
X012285Y014244D01*
X012299Y014343D02*
X001550Y014343D01*
X001536Y014441D02*
X012312Y014441D01*
X012326Y014540D02*
X001523Y014540D01*
X001509Y014638D02*
X012336Y014638D01*
X012341Y014737D02*
X001502Y014737D01*
X001497Y014835D02*
X012345Y014835D01*
X012349Y014934D02*
X001493Y014934D01*
X001489Y015032D02*
X012354Y015032D01*
X012358Y015131D02*
X001485Y015131D01*
X001480Y015229D02*
X012362Y015229D01*
X012361Y015328D02*
X001477Y015328D01*
X001481Y015426D02*
X012356Y015426D01*
X012351Y015525D02*
X001486Y015525D01*
X001491Y015623D02*
X012345Y015623D01*
X012340Y015722D02*
X001496Y015722D01*
X001501Y015820D02*
X012334Y015820D01*
X012329Y015919D02*
X001506Y015919D01*
X001511Y016017D02*
X012317Y016017D01*
X012309Y016116D02*
X001513Y016116D01*
X001517Y016214D02*
X012309Y016214D01*
X012306Y016313D02*
X001521Y016313D01*
X001525Y016411D02*
X012302Y016411D01*
X012295Y016510D02*
X001533Y016510D01*
X001544Y016608D02*
X012283Y016608D01*
X012271Y016707D02*
X001556Y016707D01*
X001568Y016805D02*
X012259Y016805D01*
X012244Y016904D02*
X001582Y016904D01*
X001601Y017002D02*
X012225Y017002D01*
X012206Y017101D02*
X001619Y017101D01*
X001637Y017199D02*
X012188Y017199D01*
X012164Y017298D02*
X001659Y017298D01*
X001687Y017396D02*
X012139Y017396D01*
X012055Y017692D02*
X001772Y017692D01*
X001806Y017790D02*
X012021Y017790D01*
X011988Y017889D02*
X001839Y017889D01*
X001872Y017987D02*
X002205Y017987D01*
X002106Y018086D02*
X001913Y018086D01*
X001956Y018184D02*
X002036Y018184D01*
X002635Y017987D02*
X011165Y017987D01*
X011106Y018086D02*
X002694Y018086D01*
X003288Y018184D02*
X010512Y018184D01*
X010319Y018283D02*
X003481Y018283D01*
X003580Y018381D02*
X010220Y018381D01*
X010122Y018480D02*
X003678Y018480D01*
X003731Y018578D02*
X006743Y018578D01*
X006810Y018550D02*
X006645Y018619D01*
X006519Y018745D01*
X006450Y018910D01*
X006450Y019090D01*
X006519Y019255D01*
X006645Y019381D01*
X006810Y019450D01*
X006990Y019450D01*
X007155Y019381D01*
X007281Y019255D01*
X007350Y019090D01*
X007350Y018910D01*
X007281Y018745D01*
X007155Y018619D01*
X006990Y018550D01*
X006810Y018550D01*
X007057Y018578D02*
X010069Y018578D01*
X010028Y018677D02*
X007213Y018677D01*
X007294Y018775D02*
X009987Y018775D01*
X009967Y018874D02*
X007335Y018874D01*
X007350Y018972D02*
X009967Y018972D01*
X009967Y019071D02*
X007350Y019071D01*
X007317Y019169D02*
X009967Y019169D01*
X009789Y019268D02*
X007269Y019268D01*
X007170Y019366D02*
X009725Y019366D01*
X009707Y019465D02*
X004093Y019465D01*
X004078Y019563D02*
X009722Y019563D01*
X009778Y019662D02*
X004022Y019662D01*
X003939Y019760D02*
X009861Y019760D01*
X009977Y019859D02*
X007739Y019859D01*
X007727Y019846D02*
X007844Y019964D01*
X007908Y020117D01*
X007908Y020283D01*
X007844Y020436D01*
X007727Y020554D01*
X007574Y020617D01*
X007408Y020617D01*
X007254Y020554D01*
X007137Y020436D01*
X007073Y020283D01*
X007073Y020117D01*
X007137Y019964D01*
X007254Y019846D01*
X007408Y019783D01*
X007574Y019783D01*
X007727Y019846D01*
X007838Y019957D02*
X010120Y019957D01*
X010324Y020056D02*
X007882Y020056D01*
X007908Y020154D02*
X010432Y020154D01*
X010321Y020253D02*
X007908Y020253D01*
X007880Y020351D02*
X010188Y020351D01*
X010055Y020450D02*
X007831Y020450D01*
X007733Y020548D02*
X009919Y020548D01*
X009755Y020647D02*
X004074Y020647D01*
X004239Y020745D02*
X009587Y020745D01*
X009433Y020836D02*
X009433Y020836D01*
X009417Y020844D02*
X004410Y020844D01*
X004620Y020942D02*
X009207Y020942D01*
X008996Y021041D02*
X004830Y021041D01*
X005092Y021139D02*
X008730Y021139D01*
X008439Y021238D02*
X005375Y021238D01*
X005771Y021336D02*
X008058Y021336D01*
X007485Y021435D02*
X006359Y021435D01*
X006392Y020617D02*
X006226Y020617D01*
X006073Y020554D01*
X005956Y020436D01*
X005892Y020283D01*
X005892Y020117D01*
X005956Y019964D01*
X006073Y019846D01*
X006226Y019783D01*
X006392Y019783D01*
X006546Y019846D01*
X006663Y019964D01*
X006727Y020117D01*
X006727Y020283D01*
X006663Y020436D01*
X006546Y020554D01*
X006392Y020617D01*
X006552Y020548D02*
X007248Y020548D01*
X007150Y020450D02*
X006650Y020450D01*
X006699Y020351D02*
X007101Y020351D01*
X007073Y020253D02*
X006727Y020253D01*
X006727Y020154D02*
X007073Y020154D01*
X007099Y020056D02*
X006701Y020056D01*
X006657Y019957D02*
X007143Y019957D01*
X007242Y019859D02*
X006558Y019859D01*
X006061Y019859D02*
X003823Y019859D01*
X003680Y019957D02*
X005962Y019957D01*
X005918Y020056D02*
X003476Y020056D01*
X003394Y020154D02*
X005892Y020154D01*
X005892Y020253D02*
X003508Y020253D01*
X003640Y020351D02*
X005920Y020351D01*
X005969Y020450D02*
X003773Y020450D01*
X003909Y020548D02*
X006067Y020548D01*
X006630Y019366D02*
X004075Y019366D01*
X004011Y019268D02*
X006531Y019268D01*
X006483Y019169D02*
X003833Y019169D01*
X003833Y019071D02*
X006450Y019071D01*
X006450Y018972D02*
X003833Y018972D01*
X003833Y018874D02*
X006465Y018874D01*
X006506Y018775D02*
X003813Y018775D01*
X003772Y018677D02*
X006587Y018677D01*
X003350Y021424D02*
X002973Y021144D01*
X002966Y021142D01*
X002925Y021108D01*
X002891Y021083D01*
X002887Y021082D01*
X002850Y021047D01*
X002811Y021015D01*
X002806Y021007D01*
X002465Y020695D01*
X002464Y020694D01*
X002421Y020654D01*
X002394Y020629D01*
X002382Y020624D01*
X002351Y020589D01*
X002317Y020558D01*
X002312Y020545D01*
X001990Y020187D01*
X001976Y020179D01*
X001950Y020143D01*
X001921Y020110D01*
X001915Y020095D01*
X001906Y020082D01*
X001896Y020039D01*
X001881Y019997D01*
X001882Y019982D01*
X001878Y019966D01*
X001885Y019922D01*
X001887Y019878D01*
X001894Y019864D01*
X001897Y019848D01*
X001920Y019810D01*
X001939Y019771D01*
X001945Y019766D01*
X001938Y019770D01*
X001896Y019778D01*
X001855Y019790D01*
X001848Y019797D01*
X001720Y019850D01*
X001580Y019850D01*
X001452Y019797D01*
X001400Y019745D01*
X001348Y019797D01*
X001220Y019850D01*
X001080Y019850D01*
X000952Y019797D01*
X000900Y019745D01*
X000848Y019797D01*
X000720Y019850D01*
X000580Y019850D01*
X000452Y019797D01*
X000450Y019795D01*
X000450Y026000D01*
X000459Y026110D01*
X000526Y026318D01*
X000655Y026495D01*
X000832Y026624D01*
X001040Y026691D01*
X001150Y026700D01*
X011355Y026700D01*
X011353Y026698D01*
X011300Y026570D01*
X011300Y026430D01*
X011353Y026302D01*
X011405Y026250D01*
X011353Y026198D01*
X011300Y026070D01*
X011300Y025930D01*
X011353Y025802D01*
X011405Y025750D01*
X011353Y025698D01*
X011300Y025570D01*
X011300Y025430D01*
X011353Y025302D01*
X011405Y025250D01*
X011353Y025198D01*
X011300Y025070D01*
X011300Y024930D01*
X011353Y024802D01*
X011405Y024750D01*
X011353Y024698D01*
X011300Y024570D01*
X011300Y024430D01*
X011353Y024302D01*
X011405Y024250D01*
X011353Y024198D01*
X011300Y024070D01*
X011300Y023930D01*
X011353Y023802D01*
X011405Y023750D01*
X011353Y023698D01*
X011300Y023570D01*
X011300Y023430D01*
X011353Y023302D01*
X011405Y023250D01*
X011353Y023198D01*
X011300Y023070D01*
X011300Y022930D01*
X011353Y022802D01*
X011405Y022750D01*
X011353Y022698D01*
X011300Y022570D01*
X011300Y022430D01*
X011353Y022302D01*
X011405Y022250D01*
X011353Y022198D01*
X011300Y022070D01*
X011300Y021930D01*
X011353Y021802D01*
X011405Y021750D01*
X011353Y021698D01*
X011300Y021570D01*
X011300Y021430D01*
X011353Y021302D01*
X011405Y021250D01*
X011353Y021198D01*
X011300Y021070D01*
X011300Y020930D01*
X011353Y020802D01*
X011405Y020750D01*
X011366Y020711D01*
X011221Y020850D01*
X011215Y020862D01*
X011178Y020891D01*
X011144Y020924D01*
X011134Y020928D01*
X011103Y020952D01*
X011059Y020988D01*
X011056Y020989D01*
X010682Y021283D01*
X010676Y021292D01*
X010636Y021319D01*
X010598Y021349D01*
X010592Y021351D01*
X010551Y021376D01*
X010505Y021406D01*
X010500Y021407D01*
X010099Y021654D01*
X010094Y021660D01*
X010048Y021685D01*
X010013Y021707D01*
X010011Y021709D01*
X010004Y021712D01*
X010003Y021713D01*
X010003Y021713D01*
X009964Y021732D01*
X009919Y021757D01*
X009911Y021758D01*
X009477Y021970D01*
X009469Y021978D01*
X009424Y021996D01*
X009380Y022017D01*
X009374Y022018D01*
X009330Y022034D01*
X009279Y022054D01*
X009274Y022054D01*
X008826Y022215D01*
X008819Y022220D01*
X008770Y022235D01*
X008727Y022250D01*
X008727Y022251D01*
X008725Y022251D01*
X008721Y022252D01*
X008720Y022252D01*
X008676Y022263D01*
X008626Y022278D01*
X008618Y022277D01*
X008149Y022392D01*
X008136Y022400D01*
X008091Y022406D01*
X008048Y022417D01*
X008034Y022415D01*
X007992Y022420D01*
X007935Y022429D01*
X007933Y022428D01*
X007462Y022489D01*
X007451Y022495D01*
X007403Y022497D01*
X007356Y022503D01*
X007349Y022501D01*
X007303Y022502D01*
X007249Y022504D01*
X007244Y022503D01*
X006770Y022509D01*
X006761Y022512D01*
X006711Y022510D01*
X006660Y022511D01*
X006655Y022509D01*
X006611Y022505D01*
X006556Y022503D01*
X006551Y022501D01*
X006081Y022465D01*
X006071Y022468D01*
X006021Y022461D01*
X005972Y022457D01*
X005970Y022456D01*
X005921Y022447D01*
X005870Y022439D01*
X005863Y022435D01*
X005401Y022345D01*
X005393Y022346D01*
X005343Y022333D01*
X005296Y022324D01*
X005293Y022325D01*
X005246Y022309D01*
X005199Y022297D01*
X005190Y022291D01*
X004741Y022143D01*
X004729Y022143D01*
X004685Y022125D01*
X004640Y022110D01*
X004632Y022104D01*
X004596Y022087D01*
X004544Y022066D01*
X004542Y022063D01*
X004115Y021873D01*
X004102Y021871D01*
X004061Y021848D01*
X004019Y021829D01*
X004012Y021822D01*
X003976Y021801D01*
X003927Y021774D01*
X003925Y021771D01*
X003534Y021541D01*
X003531Y021540D01*
X003482Y021510D01*
X003446Y021489D01*
X003435Y021486D01*
X003398Y021459D01*
X003358Y021435D01*
X003350Y021424D01*
X003358Y021435D02*
X000450Y021435D01*
X000450Y021533D02*
X003519Y021533D01*
X003688Y021632D02*
X000450Y021632D01*
X000450Y021730D02*
X003855Y021730D01*
X004018Y021829D02*
X000450Y021829D01*
X000450Y021927D02*
X004237Y021927D01*
X004457Y022026D02*
X000450Y022026D01*
X000450Y022124D02*
X004682Y022124D01*
X004982Y022223D02*
X000450Y022223D01*
X000450Y022321D02*
X005282Y022321D01*
X005783Y022420D02*
X000450Y022420D01*
X000450Y022518D02*
X011300Y022518D01*
X011304Y022420D02*
X007999Y022420D01*
X008440Y022321D02*
X011345Y022321D01*
X011378Y022223D02*
X008812Y022223D01*
X009078Y022124D02*
X011323Y022124D01*
X011300Y022026D02*
X009352Y022026D01*
X009565Y021927D02*
X011301Y021927D01*
X011342Y021829D02*
X009766Y021829D01*
X009968Y021730D02*
X011385Y021730D01*
X011326Y021632D02*
X010135Y021632D01*
X010295Y021533D02*
X011300Y021533D01*
X011300Y021435D02*
X010455Y021435D01*
X010614Y021336D02*
X011339Y021336D01*
X011393Y021238D02*
X010740Y021238D01*
X010865Y021139D02*
X011329Y021139D01*
X011300Y021041D02*
X010991Y021041D01*
X011116Y020942D02*
X011300Y020942D01*
X011336Y020844D02*
X011228Y020844D01*
X011330Y020745D02*
X011400Y020745D01*
X011895Y020750D02*
X011947Y020802D01*
X012000Y020930D01*
X012000Y021070D01*
X011947Y021198D01*
X011895Y021250D01*
X011947Y021302D01*
X012000Y021430D01*
X012000Y021570D01*
X011947Y021698D01*
X011895Y021750D01*
X011947Y021802D01*
X012000Y021930D01*
X012000Y022070D01*
X011947Y022198D01*
X011895Y022250D01*
X011947Y022302D01*
X012000Y022430D01*
X012000Y022570D01*
X011947Y022698D01*
X011895Y022750D01*
X011947Y022802D01*
X012000Y022930D01*
X012000Y023070D01*
X011947Y023198D01*
X011895Y023250D01*
X011947Y023302D01*
X012000Y023430D01*
X012000Y023570D01*
X011947Y023698D01*
X011895Y023750D01*
X011947Y023802D01*
X012000Y023930D01*
X012000Y024070D01*
X011947Y024198D01*
X011895Y024250D01*
X011947Y024302D01*
X012000Y024430D01*
X012000Y024570D01*
X011947Y024698D01*
X011895Y024750D01*
X011947Y024802D01*
X012000Y024930D01*
X012000Y025070D01*
X011947Y025198D01*
X011895Y025250D01*
X011947Y025302D01*
X012000Y025430D01*
X012000Y025570D01*
X011947Y025698D01*
X011895Y025750D01*
X011947Y025802D01*
X012000Y025930D01*
X012000Y026070D01*
X011947Y026198D01*
X011895Y026250D01*
X011947Y026302D01*
X012000Y026430D01*
X012000Y026570D01*
X011947Y026698D01*
X011945Y026700D01*
X016813Y026700D01*
X016833Y026650D01*
X016800Y026570D01*
X016800Y026430D01*
X016823Y026375D01*
X016800Y026320D01*
X016800Y026260D01*
X016769Y026252D01*
X016747Y026235D01*
X016591Y026161D01*
X016566Y026156D01*
X016537Y026136D01*
X016506Y026121D01*
X016489Y026102D01*
X016350Y026006D01*
X016325Y025996D01*
X016302Y025972D01*
X016275Y025954D01*
X016260Y025931D01*
X016142Y025813D01*
X016121Y025800D01*
X016100Y025771D01*
X016075Y025746D01*
X016066Y025723D01*
X015972Y025593D01*
X015951Y025575D01*
X015937Y025545D01*
X015918Y025518D01*
X015911Y025492D01*
X015838Y025340D01*
X015823Y025321D01*
X015813Y025287D01*
X015797Y025255D01*
X015796Y025230D01*
X015747Y025066D01*
X015732Y025038D01*
X015730Y025009D01*
X015722Y024982D01*
X015725Y024951D01*
X015711Y024781D01*
X015707Y024770D01*
X015707Y024722D01*
X015703Y024674D01*
X015707Y024663D01*
X015707Y021816D01*
X015703Y021804D01*
X015707Y021757D01*
X015707Y021697D01*
X015713Y021683D01*
X015725Y021533D01*
X012000Y021533D01*
X012000Y021435D02*
X015738Y021435D01*
X015732Y021445D02*
X015747Y021417D01*
X015796Y021248D01*
X015798Y021222D01*
X015813Y021191D01*
X015822Y021159D01*
X015839Y021138D01*
X015911Y020991D01*
X015916Y020967D01*
X015937Y020938D01*
X015953Y020906D01*
X015971Y020890D01*
X016065Y020757D01*
X016075Y020733D01*
X016099Y020709D01*
X016119Y020681D01*
X016141Y020667D01*
X016260Y020548D01*
X012000Y020548D01*
X012000Y020570D02*
X011947Y020698D01*
X011895Y020750D01*
X011900Y020745D02*
X016070Y020745D01*
X016004Y020844D02*
X011964Y020844D01*
X012000Y020942D02*
X015934Y020942D01*
X015887Y021041D02*
X012000Y021041D01*
X011971Y021139D02*
X015838Y021139D01*
X015797Y021238D02*
X011907Y021238D01*
X011961Y021336D02*
X015770Y021336D01*
X015732Y021445D02*
X015730Y021474D01*
X015722Y021502D01*
X015725Y021533D01*
X015717Y021632D02*
X011974Y021632D01*
X011915Y021730D02*
X015707Y021730D01*
X015707Y021829D02*
X011958Y021829D01*
X011999Y021927D02*
X015707Y021927D01*
X015707Y022026D02*
X012000Y022026D01*
X011977Y022124D02*
X015707Y022124D01*
X015707Y022223D02*
X011922Y022223D01*
X011955Y022321D02*
X015707Y022321D01*
X015707Y022420D02*
X011996Y022420D01*
X012000Y022518D02*
X015707Y022518D01*
X015707Y022617D02*
X011981Y022617D01*
X011930Y022715D02*
X015707Y022715D01*
X015707Y022814D02*
X011952Y022814D01*
X011992Y022912D02*
X015707Y022912D01*
X015707Y023011D02*
X012000Y023011D01*
X011984Y023109D02*
X015707Y023109D01*
X015707Y023208D02*
X011937Y023208D01*
X011948Y023306D02*
X015707Y023306D01*
X015707Y023405D02*
X011989Y023405D01*
X012000Y023503D02*
X015707Y023503D01*
X015707Y023602D02*
X011987Y023602D01*
X011945Y023700D02*
X015707Y023700D01*
X015707Y023799D02*
X011944Y023799D01*
X011986Y023897D02*
X015707Y023897D01*
X015707Y023996D02*
X012000Y023996D01*
X011990Y024094D02*
X015707Y024094D01*
X015707Y024193D02*
X011949Y024193D01*
X011936Y024291D02*
X015707Y024291D01*
X015707Y024390D02*
X011983Y024390D01*
X012000Y024488D02*
X015707Y024488D01*
X015707Y024587D02*
X011993Y024587D01*
X011952Y024685D02*
X015704Y024685D01*
X015712Y024784D02*
X011929Y024784D01*
X011980Y024882D02*
X015720Y024882D01*
X015722Y024981D02*
X012000Y024981D01*
X011996Y025079D02*
X015751Y025079D01*
X015780Y025178D02*
X011955Y025178D01*
X011921Y025276D02*
X015807Y025276D01*
X015855Y025375D02*
X011977Y025375D01*
X012000Y025473D02*
X015902Y025473D01*
X015950Y025572D02*
X011999Y025572D01*
X011958Y025670D02*
X016027Y025670D01*
X016098Y025769D02*
X011914Y025769D01*
X011974Y025867D02*
X016196Y025867D01*
X016292Y025966D02*
X012000Y025966D01*
X012000Y026064D02*
X016434Y026064D01*
X016594Y026163D02*
X011962Y026163D01*
X011906Y026261D02*
X016800Y026261D01*
X016817Y026360D02*
X011971Y026360D01*
X012000Y026458D02*
X016800Y026458D01*
X016800Y026557D02*
X012000Y026557D01*
X011965Y026655D02*
X016831Y026655D01*
X017467Y026650D02*
X017487Y026700D01*
X027650Y026700D01*
X027760Y026691D01*
X027968Y026624D01*
X028145Y026495D01*
X028274Y026318D01*
X028341Y026110D01*
X028350Y026000D01*
X028350Y022200D01*
X028280Y022200D01*
X028152Y022147D01*
X028053Y022048D01*
X028033Y022000D01*
X027930Y022000D01*
X027802Y021947D01*
X027703Y021848D01*
X027683Y021800D01*
X027580Y021800D01*
X027452Y021747D01*
X027353Y021648D01*
X027333Y021600D01*
X027230Y021600D01*
X027102Y021547D01*
X027003Y021448D01*
X026983Y021400D01*
X026880Y021400D01*
X026752Y021347D01*
X026653Y021248D01*
X026630Y021191D01*
X026625Y021202D01*
X026614Y021213D01*
X026606Y021227D01*
X026571Y021254D01*
X026434Y021388D01*
X026421Y021410D01*
X026392Y021430D01*
X026367Y021454D01*
X026343Y021464D01*
X026201Y021563D01*
X026183Y021583D01*
X026153Y021597D01*
X026126Y021616D01*
X026099Y021622D01*
X025948Y021692D01*
X025929Y021707D01*
X025894Y021717D01*
X025862Y021732D01*
X025837Y021733D01*
X025679Y021777D01*
X025656Y021790D01*
X025622Y021793D01*
X025589Y021802D01*
X025563Y021799D01*
X025402Y021816D01*
X025377Y021824D01*
X025343Y021822D01*
X025309Y021825D01*
X025284Y021818D01*
X025116Y021807D01*
X025088Y021811D01*
X025057Y021803D01*
X025025Y021800D01*
X025000Y021788D01*
X024832Y021744D01*
X024805Y021743D01*
X024775Y021730D01*
X024744Y021722D01*
X024722Y021705D01*
X024571Y021635D01*
X024557Y021633D01*
X024518Y021610D01*
X024476Y021591D01*
X024466Y021580D01*
X024188Y021419D01*
X023916Y021263D01*
X023865Y021233D01*
X023814Y021204D01*
X023813Y021204D01*
X023546Y021049D01*
X023279Y020897D01*
X023278Y020897D01*
X023227Y020868D01*
X023177Y020839D01*
X023176Y020838D01*
X022589Y020497D01*
X022318Y020342D01*
X022317Y020342D01*
X022266Y020312D01*
X022215Y020283D01*
X022215Y020282D01*
X021992Y020153D01*
X021989Y020152D01*
X021976Y020144D01*
X021895Y020097D01*
X021881Y020079D01*
X021761Y019997D01*
X021732Y019984D01*
X021713Y019963D01*
X021689Y019947D01*
X021672Y019920D01*
X021554Y019797D01*
X021534Y019784D01*
X021514Y019754D01*
X021489Y019728D01*
X021480Y019706D01*
X021384Y019568D01*
X021363Y019548D01*
X021350Y019519D01*
X021332Y019493D01*
X021326Y019465D01*
X021258Y019310D01*
X021241Y019288D01*
X021234Y019256D01*
X021220Y019226D01*
X021219Y019199D01*
X021181Y019043D01*
X021171Y019024D01*
X021167Y018985D01*
X021158Y018948D01*
X021161Y018927D01*
X021144Y018764D01*
X021136Y018737D01*
X021139Y018705D01*
X021135Y018673D01*
X021143Y018646D01*
X021158Y018470D01*
X021102Y018447D01*
X021090Y018435D01*
X020945Y018612D01*
X020942Y018619D01*
X020907Y018658D01*
X020895Y018672D01*
X020893Y018678D01*
X020881Y018690D01*
X020874Y018698D01*
X020870Y018700D01*
X020856Y018714D01*
X020822Y018751D01*
X020814Y018755D01*
X020582Y018981D01*
X020579Y018986D01*
X020539Y019023D01*
X020526Y019035D01*
X020522Y019044D01*
X020502Y019059D01*
X020500Y019061D01*
X020499Y019061D01*
X020484Y019073D01*
X020448Y019106D01*
X020437Y019110D01*
X020176Y019313D01*
X020171Y019320D01*
X020129Y019349D01*
X020112Y019363D01*
X020109Y019367D01*
X020100Y019372D01*
X020089Y019381D01*
X020084Y019382D01*
X020065Y019394D01*
X020022Y019424D01*
X020014Y019425D01*
X019747Y019591D01*
X019746Y019592D01*
X019696Y019623D01*
X019681Y019632D01*
X019671Y019644D01*
X019631Y019663D01*
X019593Y019686D01*
X019577Y019688D01*
X019279Y019831D01*
X019274Y019836D01*
X019225Y019857D01*
X019208Y019865D01*
X019202Y019871D01*
X019183Y019877D01*
X019177Y019880D01*
X019174Y019880D01*
X019155Y019887D01*
X019109Y019907D01*
X019099Y019907D01*
X018789Y020016D01*
X018779Y020024D01*
X018733Y020036D01*
X018688Y020052D01*
X018678Y020051D01*
X018659Y020056D01*
X018605Y020070D01*
X018601Y020070D01*
X018280Y020145D01*
X018267Y020153D01*
X018222Y020159D01*
X018179Y020169D01*
X018165Y020167D01*
X018145Y020169D01*
X018090Y020177D01*
X018086Y020176D01*
X018000Y020185D01*
X018000Y020212D01*
X018024Y020223D01*
X018060Y020233D01*
X018078Y020247D01*
X018232Y020317D01*
X018259Y020323D01*
X018285Y020342D01*
X018315Y020355D01*
X018334Y020375D01*
X018474Y020473D01*
X018499Y020483D01*
X018523Y020506D01*
X018550Y020525D01*
X018564Y020548D01*
X022677Y020548D01*
X022846Y020647D02*
X018663Y020647D01*
X018682Y020665D02*
X018702Y020678D01*
X018724Y020707D01*
X018749Y020733D01*
X018758Y020755D01*
X018856Y020888D01*
X018876Y020906D01*
X018890Y020936D01*
X018910Y020963D01*
X018917Y020989D01*
X018991Y021140D01*
X019008Y021163D01*
X019017Y021194D01*
X019031Y021222D01*
X019032Y021250D01*
X019078Y021417D01*
X019091Y021440D01*
X019094Y021474D01*
X019103Y021506D01*
X019100Y021533D01*
X024385Y021533D01*
X024555Y021632D02*
X019110Y021632D01*
X019114Y021680D02*
X019122Y021697D01*
X019122Y021754D01*
X019126Y021799D01*
X019122Y021813D01*
X019122Y024665D01*
X019126Y024679D01*
X019122Y024724D01*
X019122Y024770D01*
X019116Y024783D01*
X019100Y024951D01*
X019103Y024978D01*
X019094Y025009D01*
X019091Y025042D01*
X019078Y025066D01*
X019033Y025228D01*
X019031Y025255D01*
X019017Y025285D01*
X019008Y025317D01*
X018991Y025338D01*
X018916Y025494D01*
X018909Y025522D01*
X018890Y025547D01*
X018877Y025575D01*
X018855Y025594D01*
X018758Y025725D01*
X018749Y025746D01*
X018722Y025773D01*
X018700Y025803D01*
X018681Y025814D01*
X018564Y025931D01*
X018550Y025954D01*
X018523Y025972D01*
X018499Y025996D01*
X018474Y026006D01*
X018336Y026102D01*
X018319Y026121D01*
X018287Y026136D01*
X018259Y026156D01*
X018234Y026161D01*
X018078Y026235D01*
X018056Y026251D01*
X018024Y026260D01*
X017994Y026274D01*
X017967Y026276D01*
X017785Y026325D01*
X017747Y026341D01*
X017728Y026341D01*
X017709Y026346D01*
X017669Y026341D01*
X017628Y026341D01*
X017610Y026333D01*
X017590Y026330D01*
X017555Y026310D01*
X017518Y026295D01*
X017504Y026281D01*
X017500Y026279D01*
X017500Y026320D01*
X017477Y026375D01*
X017500Y026430D01*
X017500Y026570D01*
X017467Y026650D01*
X017469Y026655D02*
X027871Y026655D01*
X028060Y026557D02*
X017500Y026557D01*
X017500Y026458D02*
X028172Y026458D01*
X028243Y026360D02*
X017483Y026360D01*
X018022Y026261D02*
X028292Y026261D01*
X028324Y026163D02*
X018231Y026163D01*
X018391Y026064D02*
X028345Y026064D01*
X028350Y025966D02*
X018533Y025966D01*
X018628Y025867D02*
X028350Y025867D01*
X028350Y025769D02*
X018727Y025769D01*
X018799Y025670D02*
X028350Y025670D01*
X028350Y025572D02*
X018879Y025572D01*
X018926Y025473D02*
X028350Y025473D01*
X028350Y025375D02*
X018974Y025375D01*
X019021Y025276D02*
X028350Y025276D01*
X028350Y025178D02*
X019047Y025178D01*
X019075Y025079D02*
X028350Y025079D01*
X028350Y024981D02*
X019102Y024981D01*
X019106Y024882D02*
X028350Y024882D01*
X028350Y024784D02*
X019116Y024784D01*
X019125Y024685D02*
X028350Y024685D01*
X028350Y024587D02*
X019122Y024587D01*
X019122Y024488D02*
X028350Y024488D01*
X028350Y024390D02*
X019122Y024390D01*
X019122Y024291D02*
X028350Y024291D01*
X028350Y024193D02*
X019122Y024193D01*
X019122Y024094D02*
X028350Y024094D01*
X028350Y023996D02*
X019122Y023996D01*
X019122Y023897D02*
X028350Y023897D01*
X028350Y023799D02*
X019122Y023799D01*
X019122Y023700D02*
X028350Y023700D01*
X028350Y023602D02*
X019122Y023602D01*
X019122Y023503D02*
X028350Y023503D01*
X028350Y023405D02*
X019122Y023405D01*
X019122Y023306D02*
X028350Y023306D01*
X028350Y023208D02*
X019122Y023208D01*
X019122Y023109D02*
X028350Y023109D01*
X028350Y023011D02*
X019122Y023011D01*
X019122Y022912D02*
X028350Y022912D01*
X028350Y022814D02*
X019122Y022814D01*
X019122Y022715D02*
X028350Y022715D01*
X028350Y022617D02*
X019122Y022617D01*
X019122Y022518D02*
X028350Y022518D01*
X028350Y022420D02*
X019122Y022420D01*
X019122Y022321D02*
X028350Y022321D01*
X028350Y022223D02*
X019122Y022223D01*
X019122Y022124D02*
X028129Y022124D01*
X028044Y022026D02*
X019122Y022026D01*
X019122Y021927D02*
X027782Y021927D01*
X027695Y021829D02*
X019122Y021829D01*
X019122Y021730D02*
X024776Y021730D01*
X024215Y021435D02*
X019088Y021435D01*
X019100Y021533D02*
X019114Y021680D01*
X019056Y021336D02*
X024044Y021336D01*
X023916Y021263D02*
X023916Y021263D01*
X023872Y021238D02*
X019032Y021238D01*
X018990Y021139D02*
X023702Y021139D01*
X023532Y021041D02*
X018942Y021041D01*
X018895Y020942D02*
X023358Y020942D01*
X023185Y020844D02*
X018823Y020844D01*
X018754Y020745D02*
X023016Y020745D01*
X022506Y020450D02*
X018441Y020450D01*
X018564Y020548D02*
X018682Y020665D01*
X018306Y020351D02*
X022334Y020351D01*
X022163Y020253D02*
X018089Y020253D01*
X018258Y020154D02*
X021994Y020154D01*
X021847Y020056D02*
X018660Y020056D01*
X018957Y019957D02*
X021704Y019957D01*
X021613Y019859D02*
X019222Y019859D01*
X019428Y019760D02*
X021518Y019760D01*
X021449Y019662D02*
X019633Y019662D01*
X019792Y019563D02*
X021379Y019563D01*
X021326Y019465D02*
X019951Y019465D01*
X020109Y019366D02*
X021282Y019366D01*
X021236Y019268D02*
X020234Y019268D01*
X020361Y019169D02*
X021212Y019169D01*
X021188Y019071D02*
X020487Y019071D01*
X020591Y018972D02*
X021164Y018972D01*
X021156Y018874D02*
X020692Y018874D01*
X020793Y018775D02*
X021146Y018775D01*
X021136Y018677D02*
X020893Y018677D01*
X020973Y018578D02*
X021149Y018578D01*
X021157Y018480D02*
X021054Y018480D01*
X021786Y017341D02*
X021800Y017328D01*
X021824Y017318D01*
X021966Y017219D01*
X021984Y017199D01*
X022014Y017185D01*
X022041Y017166D01*
X022068Y017160D01*
X022219Y017090D01*
X022238Y017075D01*
X022273Y017065D01*
X022305Y017050D01*
X022329Y017049D01*
X022488Y017005D01*
X022511Y016992D01*
X022545Y016989D01*
X022578Y016980D01*
X022604Y016983D01*
X022770Y016966D01*
X022794Y016958D01*
X022828Y016960D01*
X022862Y016957D01*
X022887Y016964D01*
X023055Y016975D01*
X023083Y016971D01*
X023114Y016979D01*
X023146Y016981D01*
X023171Y016994D01*
X023336Y017037D01*
X023362Y017038D01*
X023393Y017052D01*
X023427Y017060D01*
X023447Y017076D01*
X023588Y017139D01*
X023606Y017141D01*
X023647Y017165D01*
X023691Y017185D01*
X023704Y017198D01*
X024613Y017725D01*
X024879Y017877D01*
X024880Y017877D01*
X024931Y017906D01*
X024982Y017935D01*
X024983Y017936D01*
X025203Y018062D01*
X025204Y018062D01*
X025255Y018092D01*
X025306Y018121D01*
X025307Y018122D01*
X026173Y018624D01*
X026186Y018627D01*
X026224Y018654D01*
X026264Y018677D01*
X026272Y018688D01*
X026410Y018785D01*
X026436Y018796D01*
X026458Y018819D01*
X026484Y018838D01*
X026499Y018861D01*
X026620Y018985D01*
X026643Y019001D01*
X026662Y019028D01*
X026684Y019051D01*
X026695Y019077D01*
X026788Y019216D01*
X026808Y019234D01*
X026821Y019265D01*
X026840Y019293D01*
X026845Y019319D01*
X026913Y019472D01*
X026929Y019494D01*
X026937Y019526D01*
X026951Y019556D01*
X026951Y019583D01*
X026990Y019742D01*
X027001Y019763D01*
X027004Y019799D01*
X027013Y019834D01*
X027009Y019858D01*
X027023Y020025D01*
X027031Y020049D01*
X027028Y020084D01*
X027031Y020118D01*
X027023Y020143D01*
X027009Y020314D01*
X027013Y020339D01*
X027004Y020373D01*
X027002Y020408D01*
X026990Y020430D01*
X026943Y020619D01*
X026936Y020663D01*
X026929Y020676D01*
X026925Y020691D01*
X026918Y020700D01*
X027020Y020700D01*
X027148Y020753D01*
X027247Y020852D01*
X027267Y020900D01*
X027370Y020900D01*
X027498Y020953D01*
X027597Y021052D01*
X027617Y021100D01*
X027720Y021100D01*
X027848Y021153D01*
X027947Y021252D01*
X027967Y021300D01*
X028070Y021300D01*
X028198Y021353D01*
X028297Y021452D01*
X028317Y021500D01*
X028350Y021500D01*
X028350Y009600D01*
X028345Y009600D01*
X028248Y009697D01*
X028120Y009750D01*
X028045Y009750D01*
X027948Y009847D01*
X027820Y009900D01*
X027817Y009900D01*
X027797Y009948D01*
X027698Y010047D01*
X027570Y010100D01*
X027495Y010100D01*
X027448Y010147D01*
X027320Y010200D01*
X027295Y010200D01*
X027198Y010297D01*
X027070Y010350D01*
X026930Y010350D01*
X026802Y010297D01*
X026703Y010198D01*
X026650Y010070D01*
X026650Y009930D01*
X026703Y009802D01*
X026802Y009703D01*
X026930Y009650D01*
X026955Y009650D01*
X027052Y009553D01*
X027180Y009500D01*
X027255Y009500D01*
X027302Y009453D01*
X027430Y009400D01*
X027433Y009400D01*
X027453Y009352D01*
X027552Y009253D01*
X027680Y009200D01*
X027755Y009200D01*
X027852Y009103D01*
X027980Y009050D01*
X028055Y009050D01*
X028152Y008953D01*
X028280Y008900D01*
X028350Y008900D01*
X028350Y005000D01*
X028341Y004890D01*
X028274Y004682D01*
X028145Y004505D01*
X027968Y004376D01*
X027760Y004309D01*
X027650Y004300D01*
X017487Y004300D01*
X017500Y004330D01*
X017500Y004470D01*
X017447Y004598D01*
X017348Y004697D01*
X017231Y004745D01*
X017235Y004746D01*
X017272Y004766D01*
X017310Y004782D01*
X017323Y004795D01*
X017339Y004804D01*
X017365Y004837D01*
X017395Y004867D01*
X017402Y004883D01*
X017413Y004897D01*
X017414Y004902D01*
X017416Y004896D01*
X017427Y004883D01*
X017433Y004867D01*
X017464Y004836D01*
X017490Y004803D01*
X017506Y004795D01*
X017518Y004782D01*
X017557Y004766D01*
X017595Y004745D01*
X017612Y004743D01*
X017628Y004737D01*
X017671Y004737D01*
X017714Y004732D01*
X017730Y004737D01*
X017747Y004737D01*
X017787Y004753D01*
X017970Y004806D01*
X017994Y004807D01*
X018026Y004822D01*
X018060Y004832D01*
X018080Y004847D01*
X018234Y004920D01*
X018259Y004925D01*
X018287Y004945D01*
X018319Y004960D01*
X018336Y004979D01*
X018473Y005074D01*
X018496Y005083D01*
X018521Y005108D01*
X018550Y005127D01*
X018563Y005149D01*
X018680Y005263D01*
X018702Y005276D01*
X018722Y005304D01*
X018747Y005328D01*
X018757Y005352D01*
X018856Y005487D01*
X018876Y005504D01*
X018890Y005535D01*
X018910Y005562D01*
X018917Y005588D01*
X018991Y005739D01*
X019008Y005762D01*
X019017Y005792D01*
X019031Y005820D01*
X019032Y005849D01*
X019078Y006015D01*
X019091Y006038D01*
X019094Y006072D01*
X019103Y006105D01*
X019100Y006131D01*
X019115Y006283D01*
X019122Y006300D01*
X019122Y006353D01*
X019126Y006397D01*
X019122Y006412D01*
X019122Y009268D01*
X019126Y009282D01*
X019122Y009327D01*
X019122Y009372D01*
X019116Y009386D01*
X019100Y009549D01*
X019103Y009575D01*
X019094Y009607D01*
X019091Y009641D01*
X019078Y009664D01*
X019032Y009831D01*
X019031Y009859D01*
X019017Y009888D01*
X019008Y009918D01*
X018991Y009941D01*
X018917Y010092D01*
X018910Y010118D01*
X018890Y010145D01*
X018876Y010175D01*
X018856Y010193D01*
X018757Y010328D01*
X018747Y010351D01*
X018722Y010375D01*
X018702Y010403D01*
X018680Y010417D01*
X018563Y010531D01*
X018550Y010552D01*
X018521Y010572D01*
X018496Y010596D01*
X018473Y010606D01*
X018336Y010701D01*
X018319Y010719D01*
X018287Y010734D01*
X018259Y010754D01*
X018234Y010760D01*
X018080Y010832D01*
X018060Y010848D01*
X018026Y010858D01*
X018013Y010864D01*
X018019Y010867D01*
X018167Y010886D01*
X018174Y010884D01*
X018225Y010894D01*
X018277Y010900D01*
X018284Y010904D01*
X018426Y010930D01*
X018437Y010928D01*
X018484Y010940D01*
X018532Y010949D01*
X018542Y010955D01*
X018692Y010994D01*
X018702Y010993D01*
X018749Y011009D01*
X018797Y011021D01*
X018805Y011027D01*
X018948Y011075D01*
X018958Y011075D01*
X019004Y011094D01*
X019052Y011109D01*
X019059Y011116D01*
X019201Y011173D01*
X019211Y011174D01*
X019255Y011196D01*
X019301Y011214D01*
X019309Y011222D01*
X019443Y011288D01*
X019452Y011289D01*
X019497Y011314D01*
X019543Y011337D01*
X019549Y011343D01*
X019681Y011418D01*
X019686Y011419D01*
X019733Y011447D01*
X019780Y011474D01*
X019784Y011478D01*
X019916Y011558D01*
X019926Y011560D01*
X019966Y011589D01*
X020009Y011614D01*
X020015Y011623D01*
X020145Y011714D01*
X020153Y011716D01*
X020194Y011749D01*
X020236Y011778D01*
X020240Y011785D01*
X020363Y011881D01*
X020374Y011885D01*
X020410Y011918D01*
X020447Y011948D01*
X020453Y011958D01*
X020569Y012064D01*
X020577Y012068D01*
X020613Y012104D01*
X020651Y012139D01*
X020655Y012147D01*
X020764Y012259D01*
X020772Y012262D01*
X020806Y012301D01*
X020842Y012338D01*
X020845Y012346D01*
X020947Y012463D01*
X020956Y012468D01*
X020987Y012507D01*
X021020Y012545D01*
X021023Y012554D01*
X021087Y012639D01*
X021122Y012624D01*
X021108Y012456D01*
X021101Y012434D01*
X021103Y012397D01*
X021100Y012360D01*
X021107Y012338D01*
X021119Y012173D01*
X021115Y012145D01*
X021123Y012114D01*
X021125Y012083D01*
X021137Y012057D01*
X021180Y011893D01*
X021180Y011869D01*
X021195Y011836D01*
X021204Y011801D01*
X021218Y011782D01*
X021286Y011627D01*
X021291Y011600D01*
X021310Y011573D01*
X021323Y011543D01*
X021343Y011524D01*
X021437Y011384D01*
X021447Y011358D01*
X021470Y011335D01*
X021488Y011308D01*
X021511Y011292D01*
X021632Y011169D01*
X021647Y011145D01*
X021673Y011126D01*
X021696Y011103D01*
X021722Y011092D01*
X019000Y011092D01*
X019245Y011191D02*
X021611Y011191D01*
X021514Y011289D02*
X019451Y011289D01*
X019627Y011388D02*
X021434Y011388D01*
X021368Y011486D02*
X019797Y011486D01*
X019961Y011585D02*
X021302Y011585D01*
X021261Y011683D02*
X020101Y011683D01*
X020238Y011782D02*
X021218Y011782D01*
X021180Y011880D02*
X020361Y011880D01*
X020476Y011979D02*
X021158Y011979D01*
X021128Y012077D02*
X020586Y012077D01*
X020683Y012176D02*
X021119Y012176D01*
X021112Y012274D02*
X020782Y012274D01*
X020868Y012373D02*
X021101Y012373D01*
X021110Y012471D02*
X020959Y012471D01*
X021034Y012570D02*
X021118Y012570D01*
X021719Y013759D02*
X021808Y013983D01*
X021818Y013995D01*
X021830Y014038D01*
X021847Y014079D01*
X021847Y014095D01*
X021941Y014423D01*
X021943Y014425D01*
X021957Y014480D01*
X021963Y014499D01*
X021969Y014510D01*
X021977Y014555D01*
X021989Y014600D01*
X021987Y014614D01*
X022045Y014954D01*
X022049Y014960D01*
X022056Y015012D01*
X022059Y015034D01*
X022062Y015038D01*
X022063Y015054D01*
X022064Y015065D01*
X022064Y015068D01*
X022065Y015090D01*
X022072Y015141D01*
X022069Y015149D01*
X022094Y015490D01*
X022098Y015501D01*
X022098Y015550D01*
X022100Y015578D01*
X022101Y015580D01*
X022101Y015585D01*
X022102Y015598D01*
X022099Y015605D01*
X022098Y015631D01*
X022098Y015683D01*
X022095Y015691D01*
X022077Y016018D01*
X022078Y016019D01*
X022074Y016078D01*
X022073Y016098D01*
X022076Y016113D01*
X022069Y016157D01*
X022066Y016201D01*
X022059Y016215D01*
X022003Y016561D01*
X022005Y016576D01*
X021993Y016619D01*
X021986Y016664D01*
X021979Y016675D01*
X021973Y016697D01*
X021958Y016750D01*
X021956Y016754D01*
X021861Y017074D01*
X021861Y017079D01*
X021844Y017131D01*
X021837Y017156D01*
X021836Y017169D01*
X021818Y017209D01*
X021804Y017251D01*
X021794Y017263D01*
X021767Y017322D01*
X021786Y017341D01*
X021778Y017298D02*
X021853Y017298D01*
X021822Y017199D02*
X021984Y017199D01*
X021854Y017101D02*
X022196Y017101D01*
X022493Y017002D02*
X021882Y017002D01*
X021911Y016904D02*
X028350Y016904D01*
X028350Y017002D02*
X023202Y017002D01*
X023503Y017101D02*
X028350Y017101D01*
X028350Y017199D02*
X023706Y017199D01*
X023876Y017298D02*
X028350Y017298D01*
X028350Y017396D02*
X024045Y017396D01*
X024215Y017495D02*
X028350Y017495D01*
X028350Y017593D02*
X024385Y017593D01*
X024555Y017692D02*
X028350Y017692D01*
X028350Y017790D02*
X024727Y017790D01*
X024901Y017889D02*
X028350Y017889D01*
X028350Y017987D02*
X025072Y017987D01*
X025244Y018086D02*
X028350Y018086D01*
X028350Y018184D02*
X025414Y018184D01*
X025584Y018283D02*
X028350Y018283D01*
X028350Y018381D02*
X025754Y018381D01*
X025923Y018480D02*
X028350Y018480D01*
X028350Y018578D02*
X026093Y018578D01*
X026263Y018677D02*
X028350Y018677D01*
X028350Y018775D02*
X026396Y018775D01*
X026511Y018874D02*
X028350Y018874D01*
X028350Y018972D02*
X026607Y018972D01*
X026692Y019071D02*
X028350Y019071D01*
X028350Y019169D02*
X026757Y019169D01*
X026823Y019268D02*
X028350Y019268D01*
X028350Y019366D02*
X026866Y019366D01*
X026910Y019465D02*
X028350Y019465D01*
X028350Y019563D02*
X026951Y019563D01*
X026971Y019662D02*
X028350Y019662D01*
X028350Y019760D02*
X027000Y019760D01*
X027009Y019859D02*
X028350Y019859D01*
X028350Y019957D02*
X027018Y019957D01*
X027030Y020056D02*
X028350Y020056D01*
X028350Y020154D02*
X027022Y020154D01*
X027014Y020253D02*
X028350Y020253D01*
X028350Y020351D02*
X027010Y020351D01*
X026985Y020450D02*
X028350Y020450D01*
X028350Y020548D02*
X026961Y020548D01*
X026939Y020647D02*
X028350Y020647D01*
X028350Y020745D02*
X027128Y020745D01*
X027239Y020844D02*
X028350Y020844D01*
X028350Y020942D02*
X027471Y020942D01*
X027586Y021041D02*
X028350Y021041D01*
X028350Y021139D02*
X027814Y021139D01*
X027933Y021238D02*
X028350Y021238D01*
X028350Y021336D02*
X028157Y021336D01*
X028280Y021435D02*
X028350Y021435D01*
X027435Y021730D02*
X025865Y021730D01*
X026078Y021632D02*
X027346Y021632D01*
X027088Y021533D02*
X026244Y021533D01*
X026387Y021435D02*
X026998Y021435D01*
X026741Y021336D02*
X026488Y021336D01*
X026592Y021238D02*
X026649Y021238D01*
X026640Y020883D02*
X026648Y020864D01*
X026634Y020866D01*
X026630Y020865D01*
X026635Y020876D01*
X026640Y020883D01*
X024717Y020561D02*
X024661Y020426D01*
X024661Y020074D01*
X024796Y019750D01*
X025044Y019501D01*
X025369Y019367D01*
X025449Y019367D01*
X025443Y019363D01*
X025157Y019200D01*
X025106Y019171D01*
X025054Y019142D01*
X025054Y019141D01*
X024152Y018621D01*
X024152Y018621D01*
X024101Y018592D01*
X024049Y018562D01*
X024049Y018562D01*
X023762Y018395D01*
X023407Y018190D01*
X023483Y018374D01*
X023483Y018726D01*
X023349Y019050D01*
X023100Y019299D01*
X022776Y019433D01*
X022760Y019433D01*
X023062Y019607D01*
X023349Y019771D01*
X023351Y019771D01*
X023401Y019801D01*
X023451Y019829D01*
X023452Y019831D01*
X023736Y019998D01*
X024404Y020383D01*
X024692Y020547D01*
X024694Y020547D01*
X024717Y020561D01*
X024712Y020548D02*
X024696Y020548D01*
X024671Y020450D02*
X024521Y020450D01*
X024661Y020351D02*
X024349Y020351D01*
X024178Y020253D02*
X024661Y020253D01*
X024661Y020154D02*
X024007Y020154D01*
X023836Y020056D02*
X024669Y020056D01*
X024710Y019957D02*
X023667Y019957D01*
X023500Y019859D02*
X024751Y019859D01*
X024792Y019760D02*
X023330Y019760D01*
X023157Y019662D02*
X024884Y019662D01*
X024983Y019563D02*
X022985Y019563D01*
X022814Y019465D02*
X025133Y019465D01*
X025275Y019268D02*
X023131Y019268D01*
X023230Y019169D02*
X025102Y019169D01*
X025157Y019200D02*
X025157Y019200D01*
X024931Y019071D02*
X023328Y019071D01*
X023381Y018972D02*
X024761Y018972D01*
X024590Y018874D02*
X023422Y018874D01*
X023463Y018775D02*
X024419Y018775D01*
X024248Y018677D02*
X023483Y018677D01*
X023483Y018578D02*
X024077Y018578D01*
X023908Y018480D02*
X023483Y018480D01*
X023483Y018381D02*
X023738Y018381D01*
X023567Y018283D02*
X023445Y018283D01*
X022937Y019366D02*
X025448Y019366D01*
X028350Y016805D02*
X021941Y016805D01*
X021970Y016707D02*
X028350Y016707D01*
X028350Y016608D02*
X021996Y016608D01*
X022011Y016510D02*
X028350Y016510D01*
X028350Y016411D02*
X022027Y016411D01*
X022043Y016313D02*
X028350Y016313D01*
X028350Y016214D02*
X022060Y016214D01*
X022076Y016116D02*
X028350Y016116D01*
X028350Y016017D02*
X022077Y016017D01*
X022083Y015919D02*
X028350Y015919D01*
X028350Y015820D02*
X022088Y015820D01*
X022093Y015722D02*
X028350Y015722D01*
X028350Y015623D02*
X022098Y015623D01*
X022098Y015525D02*
X028350Y015525D01*
X028350Y015426D02*
X022089Y015426D01*
X022082Y015328D02*
X028350Y015328D01*
X028350Y015229D02*
X022075Y015229D01*
X022070Y015131D02*
X028350Y015131D01*
X028350Y015032D02*
X022059Y015032D01*
X022042Y014934D02*
X028350Y014934D01*
X028350Y014835D02*
X022025Y014835D01*
X022008Y014737D02*
X028350Y014737D01*
X028350Y014638D02*
X021991Y014638D01*
X021975Y014540D02*
X028350Y014540D01*
X028350Y014441D02*
X021947Y014441D01*
X021918Y014343D02*
X028350Y014343D01*
X028350Y014244D02*
X021889Y014244D01*
X021861Y014146D02*
X028350Y014146D01*
X028350Y014047D02*
X023339Y014047D01*
X023333Y014050D02*
X023302Y014051D01*
X023136Y014091D01*
X023115Y014102D01*
X023078Y014105D01*
X023043Y014114D01*
X023020Y014110D01*
X022854Y014124D01*
X022827Y014133D01*
X022795Y014129D01*
X022764Y014132D01*
X022736Y014123D01*
X022572Y014106D01*
X022546Y014109D01*
X022513Y014100D01*
X022479Y014097D01*
X022456Y014084D01*
X022298Y014040D01*
X022273Y014039D01*
X022241Y014024D01*
X022207Y014014D01*
X022187Y013999D01*
X022038Y013930D01*
X022013Y013925D01*
X021984Y013905D01*
X021952Y013890D01*
X021935Y013872D01*
X021796Y013776D01*
X021772Y013767D01*
X021749Y013746D01*
X021748Y013747D01*
X021719Y013759D01*
X021737Y013752D02*
X021755Y013752D01*
X021755Y013850D02*
X021904Y013850D01*
X021795Y013949D02*
X022079Y013949D01*
X021834Y014047D02*
X022324Y014047D01*
X023333Y014050D02*
X023359Y014038D01*
X023387Y014031D01*
X023412Y014012D01*
X023561Y013942D01*
X023574Y013940D01*
X023615Y013917D01*
X023657Y013897D01*
X023666Y013887D01*
X023944Y013726D01*
X024215Y013570D01*
X024216Y013570D01*
X024267Y013541D01*
X024318Y013511D01*
X024318Y013511D01*
X024904Y013171D01*
X025171Y013019D01*
X025173Y013019D01*
X025223Y012990D01*
X025274Y012961D01*
X025275Y012960D01*
X025542Y012804D01*
X025813Y012649D01*
X025814Y012649D01*
X025865Y012619D01*
X025916Y012590D01*
X025917Y012589D01*
X026138Y012461D01*
X026150Y012458D01*
X026183Y012435D01*
X026236Y012404D01*
X026247Y012390D01*
X026371Y012303D01*
X026399Y012291D01*
X026420Y012269D01*
X026444Y012252D01*
X026461Y012226D01*
X026577Y012104D01*
X026598Y012090D01*
X026618Y012061D01*
X026643Y012035D01*
X026652Y012012D01*
X026744Y011878D01*
X026764Y011859D01*
X026777Y011829D01*
X026796Y011803D01*
X026801Y011775D01*
X026869Y011623D01*
X026884Y011604D01*
X026893Y011569D01*
X026907Y011537D01*
X026908Y011512D01*
X026949Y011356D01*
X026961Y011335D01*
X026964Y011299D01*
X026973Y011264D01*
X026970Y011240D01*
X026987Y011075D01*
X026996Y011048D01*
X026993Y011016D01*
X026996Y010984D01*
X026988Y010957D01*
X026974Y010787D01*
X026978Y010762D01*
X026969Y010728D01*
X026966Y010692D01*
X026955Y010670D01*
X026906Y010475D01*
X026896Y010424D01*
X026891Y010417D01*
X026890Y010410D01*
X026858Y010368D01*
X026830Y010324D01*
X026823Y010320D01*
X026819Y010314D01*
X026774Y010287D01*
X026730Y010258D01*
X026723Y010257D01*
X026716Y010253D01*
X026665Y010245D01*
X026613Y010235D01*
X026606Y010236D01*
X026601Y010235D01*
X026604Y010228D01*
X026611Y010220D01*
X026627Y010173D01*
X026645Y010128D01*
X026645Y010117D01*
X026649Y010106D01*
X026645Y010057D01*
X026645Y010008D01*
X026641Y009998D01*
X026640Y009987D01*
X026618Y009943D01*
X026600Y009898D01*
X026592Y009890D01*
X026587Y009881D01*
X026550Y009848D01*
X026407Y009706D01*
X026393Y009683D01*
X026366Y009664D01*
X026342Y009641D01*
X026317Y009630D01*
X026175Y009531D01*
X026157Y009511D01*
X026126Y009497D01*
X026098Y009477D01*
X026073Y009471D01*
X025917Y009398D01*
X025897Y009382D01*
X025864Y009373D01*
X025833Y009358D01*
X025807Y009357D01*
X025647Y009312D01*
X025624Y009299D01*
X025590Y009296D01*
X025558Y009287D01*
X025532Y009290D01*
X025366Y009273D01*
X025341Y009265D01*
X025307Y009267D01*
X025273Y009264D01*
X025248Y009271D01*
X025084Y009282D01*
X025058Y009278D01*
X025025Y009286D01*
X024990Y009289D01*
X024967Y009300D01*
X024796Y009340D01*
X024765Y009342D01*
X024739Y009354D01*
X024710Y009361D01*
X024685Y009379D01*
X024541Y009446D01*
X024526Y009448D01*
X024484Y009472D01*
X024436Y009494D01*
X024426Y009506D01*
X023519Y010032D01*
X023252Y010184D01*
X023252Y010184D01*
X023201Y010213D01*
X023149Y010242D01*
X023149Y010243D01*
X022928Y010369D01*
X022927Y010369D01*
X022876Y010399D01*
X022825Y010428D01*
X022825Y010429D01*
X021959Y010931D01*
X021945Y010934D01*
X021908Y010961D01*
X021868Y010984D01*
X021859Y010995D01*
X021722Y011092D01*
X021860Y010994D02*
X018704Y010994D01*
X018695Y010994D02*
X018691Y010994D01*
X018339Y010698D02*
X022361Y010698D01*
X022531Y010600D02*
X018488Y010600D01*
X018594Y010501D02*
X022700Y010501D01*
X022870Y010403D02*
X018703Y010403D01*
X018775Y010304D02*
X023042Y010304D01*
X023214Y010206D02*
X018846Y010206D01*
X018913Y010107D02*
X023387Y010107D01*
X023560Y010009D02*
X018957Y010009D01*
X019011Y009910D02*
X023730Y009910D01*
X023899Y009812D02*
X019038Y009812D01*
X019065Y009713D02*
X024069Y009713D01*
X024239Y009615D02*
X019093Y009615D01*
X019103Y009516D02*
X024409Y009516D01*
X024602Y009418D02*
X019113Y009418D01*
X019122Y009319D02*
X024886Y009319D01*
X025673Y009319D02*
X027486Y009319D01*
X027388Y009418D02*
X025959Y009418D01*
X026162Y009516D02*
X027142Y009516D01*
X026991Y009615D02*
X026295Y009615D01*
X026414Y009713D02*
X026792Y009713D01*
X026699Y009812D02*
X026513Y009812D01*
X026605Y009910D02*
X026658Y009910D01*
X026645Y010009D02*
X026650Y010009D01*
X026649Y010107D02*
X026665Y010107D01*
X026711Y010206D02*
X026616Y010206D01*
X026802Y010304D02*
X026819Y010304D01*
X026884Y010403D02*
X028350Y010403D01*
X028350Y010501D02*
X026912Y010501D01*
X026937Y010600D02*
X028350Y010600D01*
X028350Y010698D02*
X026967Y010698D01*
X026975Y010797D02*
X028350Y010797D01*
X028350Y010895D02*
X026983Y010895D01*
X026995Y010994D02*
X028350Y010994D01*
X028350Y011092D02*
X026985Y011092D01*
X026975Y011191D02*
X028350Y011191D01*
X028350Y011289D02*
X026967Y011289D01*
X026941Y011388D02*
X028350Y011388D01*
X028350Y011486D02*
X026915Y011486D01*
X026889Y011585D02*
X028350Y011585D01*
X028350Y011683D02*
X026843Y011683D01*
X026800Y011782D02*
X028350Y011782D01*
X028350Y011880D02*
X026743Y011880D01*
X026675Y011979D02*
X028350Y011979D01*
X028350Y012077D02*
X026607Y012077D01*
X026509Y012176D02*
X028350Y012176D01*
X028350Y012274D02*
X026415Y012274D01*
X026272Y012373D02*
X028350Y012373D01*
X028350Y012471D02*
X026121Y012471D01*
X025951Y012570D02*
X028350Y012570D01*
X028350Y012668D02*
X025780Y012668D01*
X025608Y012767D02*
X028350Y012767D01*
X028350Y012865D02*
X025438Y012865D01*
X025269Y012964D02*
X028350Y012964D01*
X028350Y013062D02*
X025096Y013062D01*
X024922Y013161D02*
X028350Y013161D01*
X028350Y013259D02*
X024752Y013259D01*
X024582Y013358D02*
X028350Y013358D01*
X028350Y013456D02*
X024413Y013456D01*
X024243Y013555D02*
X028350Y013555D01*
X028350Y013653D02*
X024071Y013653D01*
X023899Y013752D02*
X028350Y013752D01*
X028350Y013850D02*
X023730Y013850D01*
X023547Y013949D02*
X028350Y013949D01*
X025373Y011740D02*
X025070Y011914D01*
X024782Y012078D01*
X024780Y012078D01*
X024730Y012108D01*
X024680Y012136D01*
X024679Y012138D01*
X024395Y012305D01*
X023727Y012690D01*
X023441Y012853D01*
X023440Y012853D01*
X023389Y012883D01*
X023380Y012888D01*
X023445Y012732D01*
X023445Y012381D01*
X023310Y012056D01*
X023062Y011808D01*
X022737Y011674D01*
X022683Y011674D01*
X022688Y011671D01*
X022974Y011508D01*
X022975Y011507D01*
X023026Y011478D01*
X023077Y011449D01*
X023078Y011448D01*
X023645Y011121D01*
X023647Y011121D01*
X023697Y011091D01*
X023748Y011062D01*
X023748Y011061D01*
X024031Y010895D01*
X024317Y010732D01*
X024317Y010732D01*
X024369Y010702D01*
X024420Y010673D01*
X024691Y010516D01*
X024623Y010681D01*
X024623Y011032D01*
X024757Y011357D01*
X025006Y011605D01*
X025330Y011740D01*
X025373Y011740D01*
X025300Y011782D02*
X022998Y011782D01*
X023134Y011880D02*
X025129Y011880D01*
X024957Y011979D02*
X023232Y011979D01*
X023319Y012077D02*
X024784Y012077D01*
X024615Y012176D02*
X023360Y012176D01*
X023400Y012274D02*
X024448Y012274D01*
X024278Y012373D02*
X023441Y012373D01*
X023445Y012471D02*
X024107Y012471D01*
X023936Y012570D02*
X023445Y012570D01*
X023445Y012668D02*
X023765Y012668D01*
X023593Y012767D02*
X023431Y012767D01*
X023420Y012865D02*
X023390Y012865D01*
X022760Y011683D02*
X025193Y011683D01*
X024985Y011585D02*
X022839Y011585D01*
X023012Y011486D02*
X024887Y011486D01*
X024788Y011388D02*
X023183Y011388D01*
X023354Y011289D02*
X024729Y011289D01*
X024689Y011191D02*
X023525Y011191D01*
X023696Y011092D02*
X024648Y011092D01*
X024623Y010994D02*
X023863Y010994D01*
X024030Y010895D02*
X024623Y010895D01*
X024623Y010797D02*
X024203Y010797D01*
X024376Y010698D02*
X024623Y010698D01*
X024657Y010600D02*
X024547Y010600D01*
X024420Y010673D02*
X024420Y010673D01*
X022191Y010797D02*
X018156Y010797D01*
X018237Y010895D02*
X022021Y010895D01*
X019122Y009221D02*
X027631Y009221D01*
X027833Y009122D02*
X019122Y009122D01*
X019122Y009024D02*
X028082Y009024D01*
X028220Y008925D02*
X019122Y008925D01*
X019122Y008827D02*
X028350Y008827D01*
X028350Y008728D02*
X019122Y008728D01*
X019122Y008630D02*
X028350Y008630D01*
X028350Y008531D02*
X019122Y008531D01*
X019122Y008433D02*
X028350Y008433D01*
X028350Y008334D02*
X019122Y008334D01*
X019122Y008236D02*
X028350Y008236D01*
X028350Y008137D02*
X019122Y008137D01*
X019122Y008039D02*
X028350Y008039D01*
X028350Y007940D02*
X019122Y007940D01*
X019122Y007842D02*
X028350Y007842D01*
X028350Y007743D02*
X019122Y007743D01*
X019122Y007645D02*
X028350Y007645D01*
X028350Y007546D02*
X019122Y007546D01*
X019122Y007448D02*
X028350Y007448D01*
X028350Y007349D02*
X019122Y007349D01*
X019122Y007251D02*
X028350Y007251D01*
X028350Y007152D02*
X019122Y007152D01*
X019122Y007054D02*
X028350Y007054D01*
X028350Y006955D02*
X019122Y006955D01*
X019122Y006857D02*
X028350Y006857D01*
X028350Y006758D02*
X019122Y006758D01*
X019122Y006660D02*
X028350Y006660D01*
X028350Y006561D02*
X019122Y006561D01*
X019122Y006463D02*
X028350Y006463D01*
X028350Y006364D02*
X019123Y006364D01*
X019113Y006266D02*
X028350Y006266D01*
X028350Y006167D02*
X019103Y006167D01*
X019094Y006069D02*
X028350Y006069D01*
X028350Y005970D02*
X019066Y005970D01*
X019039Y005872D02*
X028350Y005872D01*
X028350Y005773D02*
X019012Y005773D01*
X018959Y005675D02*
X028350Y005675D01*
X028350Y005576D02*
X018914Y005576D01*
X018849Y005478D02*
X028350Y005478D01*
X028350Y005379D02*
X018777Y005379D01*
X018705Y005281D02*
X028350Y005281D01*
X028350Y005182D02*
X018597Y005182D01*
X018496Y005084D02*
X028350Y005084D01*
X028349Y004985D02*
X018344Y004985D01*
X018163Y004887D02*
X028340Y004887D01*
X028308Y004788D02*
X017909Y004788D01*
X017512Y004788D02*
X017316Y004788D01*
X017355Y004690D02*
X028276Y004690D01*
X028207Y004591D02*
X017450Y004591D01*
X017491Y004493D02*
X028128Y004493D01*
X027992Y004394D02*
X017500Y004394D01*
X017424Y004887D02*
X017404Y004887D01*
X016918Y004788D02*
X011250Y004788D01*
X011250Y004690D02*
X016945Y004690D01*
X016850Y004591D02*
X011213Y004591D01*
X011152Y004493D02*
X016809Y004493D01*
X016800Y004394D02*
X011219Y004394D01*
X011222Y004887D02*
X016662Y004887D01*
X016480Y004985D02*
X011160Y004985D01*
X011210Y005084D02*
X016328Y005084D01*
X016227Y005182D02*
X011250Y005182D01*
X011250Y005281D02*
X016118Y005281D01*
X016048Y005379D02*
X011225Y005379D01*
X011167Y005478D02*
X015979Y005478D01*
X015914Y005576D02*
X011207Y005576D01*
X011248Y005675D02*
X015869Y005675D01*
X015818Y005773D02*
X011250Y005773D01*
X011229Y005872D02*
X015789Y005872D01*
X015760Y005970D02*
X011175Y005970D01*
X011204Y006069D02*
X015730Y006069D01*
X015722Y006167D02*
X011244Y006167D01*
X011250Y006266D02*
X015714Y006266D01*
X015706Y006364D02*
X011232Y006364D01*
X011182Y006463D02*
X015707Y006463D01*
X015707Y006561D02*
X011201Y006561D01*
X011241Y006660D02*
X015707Y006660D01*
X015707Y006758D02*
X011250Y006758D01*
X011235Y006857D02*
X015707Y006857D01*
X015707Y006955D02*
X011190Y006955D01*
X011197Y007054D02*
X015707Y007054D01*
X015707Y007152D02*
X011238Y007152D01*
X011250Y007251D02*
X015707Y007251D01*
X015707Y007349D02*
X011238Y007349D01*
X011197Y007448D02*
X015707Y007448D01*
X015707Y007546D02*
X011191Y007546D01*
X011235Y007645D02*
X015707Y007645D01*
X015707Y007743D02*
X011250Y007743D01*
X011241Y007842D02*
X015707Y007842D01*
X015707Y007940D02*
X011200Y007940D01*
X007703Y009754D02*
X007703Y009754D01*
X006414Y009754D02*
X006414Y009754D01*
X006373Y009713D02*
X006353Y009713D01*
X006312Y009754D02*
X006312Y009754D01*
X006312Y009754D01*
X002093Y010350D02*
X002080Y010350D01*
X001952Y010297D01*
X001900Y010245D01*
X001848Y010297D01*
X001720Y010350D01*
X001580Y010350D01*
X001452Y010297D01*
X001400Y010245D01*
X001348Y010297D01*
X001220Y010350D01*
X001080Y010350D01*
X000952Y010297D01*
X000900Y010245D01*
X000848Y010297D01*
X000720Y010350D01*
X000580Y010350D01*
X000452Y010297D01*
X000450Y010295D01*
X000450Y014926D01*
X000451Y014913D01*
X000453Y014861D01*
X000456Y014855D01*
X000460Y014812D01*
X000465Y014754D01*
X000466Y014753D01*
X000518Y014231D01*
X000516Y014226D01*
X000524Y014172D01*
X000528Y014124D01*
X000528Y014120D01*
X000537Y014069D01*
X000544Y014017D01*
X000548Y014011D01*
X000643Y013489D01*
X000642Y013484D01*
X000653Y013431D01*
X000662Y013382D01*
X000662Y013380D01*
X000676Y013329D01*
X000687Y013277D01*
X000691Y013271D01*
X000825Y012758D01*
X000825Y012751D01*
X000841Y012701D01*
X000854Y012651D01*
X000854Y012650D01*
X000854Y012650D01*
X000873Y012600D01*
X000889Y012550D01*
X000893Y012545D01*
X001077Y012048D01*
X001078Y012040D01*
X001098Y011992D01*
X001116Y011943D01*
X001116Y011943D01*
X001139Y011896D01*
X001160Y011848D01*
X001165Y011843D01*
X001395Y011369D01*
X001396Y011362D01*
X001421Y011316D01*
X001444Y011269D01*
X001446Y011267D01*
X001447Y011262D01*
X001474Y011221D01*
X001497Y011178D01*
X001506Y011171D01*
X001794Y010728D01*
X001795Y010720D01*
X001826Y010678D01*
X001854Y010634D01*
X001856Y010633D01*
X001857Y010629D01*
X001888Y010592D01*
X001917Y010553D01*
X001927Y010547D01*
X002093Y010350D01*
X002048Y010403D02*
X000450Y010403D01*
X000450Y010501D02*
X001965Y010501D01*
X001882Y010600D02*
X000450Y010600D01*
X000450Y010698D02*
X001812Y010698D01*
X001749Y010797D02*
X000450Y010797D01*
X000450Y010895D02*
X001685Y010895D01*
X001621Y010994D02*
X000450Y010994D01*
X000450Y011092D02*
X001557Y011092D01*
X001490Y011191D02*
X000450Y011191D01*
X000450Y011289D02*
X001434Y011289D01*
X001387Y011388D02*
X000450Y011388D01*
X000450Y011486D02*
X001339Y011486D01*
X001291Y011585D02*
X000450Y011585D01*
X000450Y011683D02*
X001243Y011683D01*
X001195Y011782D02*
X000450Y011782D01*
X000450Y011880D02*
X001146Y011880D01*
X001103Y011979D02*
X000450Y011979D01*
X000450Y012077D02*
X001067Y012077D01*
X001030Y012176D02*
X000450Y012176D01*
X000450Y012274D02*
X000994Y012274D01*
X000957Y012373D02*
X000450Y012373D01*
X000450Y012471D02*
X000921Y012471D01*
X000882Y012570D02*
X000450Y012570D01*
X000450Y012668D02*
X000849Y012668D01*
X000823Y012767D02*
X000450Y012767D01*
X000450Y012865D02*
X000797Y012865D01*
X000772Y012964D02*
X000450Y012964D01*
X000450Y013062D02*
X000746Y013062D01*
X000720Y013161D02*
X000450Y013161D01*
X000450Y013259D02*
X000694Y013259D01*
X000668Y013358D02*
X000450Y013358D01*
X000450Y013456D02*
X000648Y013456D01*
X000631Y013555D02*
X000450Y013555D01*
X000450Y013653D02*
X000613Y013653D01*
X000595Y013752D02*
X000450Y013752D01*
X000450Y013850D02*
X000577Y013850D01*
X000559Y013949D02*
X000450Y013949D01*
X000450Y014047D02*
X000540Y014047D01*
X000526Y014146D02*
X000450Y014146D01*
X000450Y014244D02*
X000516Y014244D01*
X000507Y014343D02*
X000450Y014343D01*
X000450Y014441D02*
X000497Y014441D01*
X000487Y014540D02*
X000450Y014540D01*
X000450Y014638D02*
X000477Y014638D01*
X000467Y014737D02*
X000450Y014737D01*
X000450Y014835D02*
X000458Y014835D01*
X000450Y016664D02*
X000450Y019205D01*
X000452Y019203D01*
X000580Y019150D01*
X000720Y019150D01*
X000848Y019203D01*
X000900Y019255D01*
X000952Y019203D01*
X001080Y019150D01*
X001220Y019150D01*
X001272Y019172D01*
X001268Y019166D01*
X001268Y019161D01*
X001259Y019145D01*
X001232Y019098D01*
X001232Y019092D01*
X001076Y018793D01*
X001071Y018788D01*
X001049Y018740D01*
X001040Y018723D01*
X001038Y018721D01*
X001033Y018711D01*
X001024Y018693D01*
X001024Y018688D01*
X001016Y018671D01*
X000993Y018621D01*
X000993Y018616D01*
X000863Y018312D01*
X000861Y018310D01*
X000840Y018258D01*
X000832Y018240D01*
X000827Y018234D01*
X000811Y018186D01*
X000793Y018140D01*
X000793Y018130D01*
X000688Y017811D01*
X000687Y017809D01*
X000670Y017754D01*
X000664Y017735D01*
X000658Y017727D01*
X000646Y017679D01*
X000632Y017632D01*
X000633Y017622D01*
X000554Y017291D01*
X000550Y017284D01*
X000540Y017233D01*
X000535Y017214D01*
X000534Y017211D01*
X000533Y017202D01*
X000528Y017182D01*
X000529Y017176D01*
X000526Y017158D01*
X000516Y017104D01*
X000517Y017099D01*
X000466Y016767D01*
X000464Y016763D01*
X000458Y016708D01*
X000455Y016689D01*
X000451Y016682D01*
X000450Y016664D01*
X000450Y016707D02*
X000457Y016707D01*
X000450Y016805D02*
X000472Y016805D01*
X000487Y016904D02*
X000450Y016904D01*
X000450Y017002D02*
X000502Y017002D01*
X000517Y017101D02*
X000450Y017101D01*
X000450Y017199D02*
X000532Y017199D01*
X000555Y017298D02*
X000450Y017298D01*
X000450Y017396D02*
X000579Y017396D01*
X000602Y017495D02*
X000450Y017495D01*
X000450Y017593D02*
X000626Y017593D01*
X000649Y017692D02*
X000450Y017692D01*
X000450Y017790D02*
X000681Y017790D01*
X000714Y017889D02*
X000450Y017889D01*
X000450Y017987D02*
X000746Y017987D01*
X000778Y018086D02*
X000450Y018086D01*
X000450Y018184D02*
X000810Y018184D01*
X000850Y018283D02*
X000450Y018283D01*
X000450Y018381D02*
X000892Y018381D01*
X000935Y018480D02*
X000450Y018480D01*
X000450Y018578D02*
X000977Y018578D01*
X001019Y018677D02*
X000450Y018677D01*
X000450Y018775D02*
X001065Y018775D01*
X001118Y018874D02*
X000450Y018874D01*
X000450Y018972D02*
X001169Y018972D01*
X001220Y019071D02*
X000450Y019071D01*
X000450Y019169D02*
X000534Y019169D01*
X000766Y019169D02*
X001034Y019169D01*
X001266Y019169D02*
X001270Y019169D01*
X001385Y019760D02*
X001415Y019760D01*
X001855Y019790D02*
X001855Y019790D01*
X001895Y019859D02*
X000450Y019859D01*
X000450Y019957D02*
X001880Y019957D01*
X001900Y020056D02*
X000450Y020056D01*
X000450Y020154D02*
X001958Y020154D01*
X002049Y020253D02*
X000450Y020253D01*
X000450Y020351D02*
X002137Y020351D01*
X002226Y020450D02*
X000450Y020450D01*
X000450Y020548D02*
X002313Y020548D01*
X002412Y020647D02*
X000450Y020647D01*
X000450Y020745D02*
X002520Y020745D01*
X002628Y020844D02*
X000450Y020844D01*
X000450Y020942D02*
X002735Y020942D01*
X002842Y021041D02*
X000450Y021041D01*
X000450Y021139D02*
X002963Y021139D01*
X003099Y021238D02*
X000450Y021238D01*
X000450Y021336D02*
X003232Y021336D01*
X000915Y019760D02*
X000885Y019760D01*
X000450Y022617D02*
X011319Y022617D01*
X011370Y022715D02*
X000450Y022715D01*
X000450Y022814D02*
X011348Y022814D01*
X011308Y022912D02*
X000450Y022912D01*
X000450Y023011D02*
X011300Y023011D01*
X011316Y023109D02*
X000450Y023109D01*
X000450Y023208D02*
X011363Y023208D01*
X011351Y023306D02*
X000450Y023306D01*
X000450Y023405D02*
X011311Y023405D01*
X011300Y023503D02*
X000450Y023503D01*
X000450Y023602D02*
X011313Y023602D01*
X011355Y023700D02*
X000450Y023700D01*
X000450Y023799D02*
X011356Y023799D01*
X011314Y023897D02*
X000450Y023897D01*
X000450Y023996D02*
X011300Y023996D01*
X011310Y024094D02*
X000450Y024094D01*
X000450Y024193D02*
X011351Y024193D01*
X011364Y024291D02*
X000450Y024291D01*
X000450Y024390D02*
X011317Y024390D01*
X011300Y024488D02*
X000450Y024488D01*
X000450Y024587D02*
X011307Y024587D01*
X011348Y024685D02*
X000450Y024685D01*
X000450Y024784D02*
X011371Y024784D01*
X011320Y024882D02*
X000450Y024882D01*
X000450Y024981D02*
X011300Y024981D01*
X011304Y025079D02*
X000450Y025079D01*
X000450Y025178D02*
X011345Y025178D01*
X011379Y025276D02*
X000450Y025276D01*
X000450Y025375D02*
X011323Y025375D01*
X011300Y025473D02*
X000450Y025473D01*
X000450Y025572D02*
X011301Y025572D01*
X011342Y025670D02*
X000450Y025670D01*
X000450Y025769D02*
X011386Y025769D01*
X011326Y025867D02*
X000450Y025867D01*
X000450Y025966D02*
X011300Y025966D01*
X011300Y026064D02*
X000455Y026064D01*
X000476Y026163D02*
X011338Y026163D01*
X011394Y026261D02*
X000508Y026261D01*
X000557Y026360D02*
X011329Y026360D01*
X011300Y026458D02*
X000628Y026458D01*
X000740Y026557D02*
X011300Y026557D01*
X011335Y026655D02*
X000929Y026655D01*
X011968Y020647D02*
X016161Y020647D01*
X016260Y020548D02*
X016275Y020525D01*
X016302Y020506D01*
X016325Y020483D01*
X016350Y020473D01*
X016490Y020375D01*
X016509Y020355D01*
X016539Y020342D01*
X016566Y020323D01*
X016593Y020317D01*
X016747Y020247D01*
X016765Y020233D01*
X016801Y020223D01*
X016801Y020222D01*
X016800Y020220D01*
X016800Y020191D01*
X016652Y020175D01*
X016648Y020177D01*
X016593Y020169D01*
X016570Y020167D01*
X016555Y020169D01*
X016514Y020159D01*
X016471Y020153D01*
X016456Y020144D01*
X016114Y020060D01*
X016102Y020061D01*
X016057Y020045D01*
X016030Y020039D01*
X016029Y020039D01*
X016028Y020038D01*
X016010Y020034D01*
X016004Y020029D01*
X015980Y020020D01*
X015930Y020003D01*
X015925Y019999D01*
X015610Y019877D01*
X015599Y019877D01*
X015555Y019856D01*
X015527Y019846D01*
X015525Y019845D01*
X015522Y019843D01*
X015509Y019839D01*
X015504Y019834D01*
X015479Y019821D01*
X015432Y019799D01*
X015427Y019793D01*
X015123Y019632D01*
X015105Y019628D01*
X015071Y019604D01*
X015034Y019585D01*
X015022Y019571D01*
X015005Y019559D01*
X014956Y019525D01*
X014956Y019525D01*
X014685Y019336D01*
X014678Y019334D01*
X014637Y019302D01*
X014615Y019287D01*
X014609Y019285D01*
X014598Y019275D01*
X014593Y019272D01*
X014592Y019271D01*
X014572Y019253D01*
X014532Y019222D01*
X014527Y019213D01*
X014271Y018988D01*
X014262Y018984D01*
X014226Y018948D01*
X014210Y018934D01*
X014208Y018933D01*
X014203Y018927D01*
X014189Y018915D01*
X014186Y018909D01*
X014172Y018894D01*
X014134Y018856D01*
X014132Y018850D01*
X013904Y018602D01*
X013899Y018599D01*
X013864Y018558D01*
X013846Y018538D01*
X013839Y018534D01*
X013828Y018518D01*
X013828Y018518D01*
X013828Y018518D01*
X013810Y018494D01*
X013779Y018456D01*
X013775Y018446D01*
X013574Y018171D01*
X013565Y018165D01*
X013538Y018123D01*
X013509Y018083D01*
X013507Y018073D01*
X013501Y018065D01*
X013492Y018016D01*
X013481Y017967D01*
X013482Y017957D01*
X013480Y017947D01*
X013491Y017899D01*
X013499Y017849D01*
X013504Y017841D01*
X013506Y017831D01*
X013535Y017790D01*
X013541Y017780D01*
X013468Y017785D01*
X013355Y017747D01*
X013265Y017669D01*
X013224Y017588D01*
X013222Y017586D01*
X013198Y017534D01*
X013176Y017490D01*
X013165Y017536D01*
X013166Y017545D01*
X013151Y017594D01*
X013139Y017644D01*
X013134Y017651D01*
X013061Y017898D01*
X013062Y017906D01*
X013044Y017955D01*
X013029Y018006D01*
X013025Y018011D01*
X012941Y018252D01*
X012941Y018259D01*
X012921Y018308D01*
X012904Y018357D01*
X012899Y018363D01*
X012804Y018598D01*
X012803Y018608D01*
X012781Y018653D01*
X012762Y018701D01*
X012756Y018707D01*
X012647Y018937D01*
X012646Y018943D01*
X012621Y018990D01*
X012598Y019038D01*
X012593Y019043D01*
X012473Y019270D01*
X012472Y019278D01*
X012445Y019322D01*
X012421Y019368D01*
X012414Y019373D01*
X012280Y019597D01*
X012277Y019610D01*
X012249Y019647D01*
X012225Y019687D01*
X012214Y019695D01*
X012206Y019706D01*
X012167Y019731D01*
X012129Y019758D01*
X012116Y019762D01*
X012105Y019769D01*
X012058Y019776D01*
X012013Y019787D01*
X012000Y019785D01*
X011987Y019787D01*
X011941Y019776D01*
X011895Y019769D01*
X011884Y019762D01*
X011883Y019762D01*
X011883Y019763D01*
X011889Y019767D01*
X011914Y019814D01*
X011941Y019860D01*
X011942Y019867D01*
X011945Y019873D01*
X011950Y019926D01*
X011958Y019978D01*
X011956Y019985D01*
X011957Y019991D01*
X011941Y020042D01*
X011928Y020094D01*
X011924Y020099D01*
X011922Y020106D01*
X011898Y020135D01*
X011895Y020143D01*
X011871Y020172D01*
X011870Y020174D01*
X011859Y020186D01*
X011847Y020203D01*
X011848Y020203D01*
X011947Y020302D01*
X012000Y020430D01*
X012000Y020570D01*
X012000Y020450D02*
X016383Y020450D01*
X016518Y020351D02*
X011967Y020351D01*
X011898Y020253D02*
X016735Y020253D01*
X016480Y020154D02*
X011886Y020154D01*
X011938Y020056D02*
X016087Y020056D01*
X015817Y019957D02*
X011955Y019957D01*
X011940Y019859D02*
X015560Y019859D01*
X015364Y019760D02*
X012122Y019760D01*
X012241Y019662D02*
X015179Y019662D01*
X015011Y019563D02*
X012300Y019563D01*
X012359Y019465D02*
X014870Y019465D01*
X014728Y019366D02*
X012422Y019366D01*
X012474Y019268D02*
X014589Y019268D01*
X014477Y019169D02*
X012526Y019169D01*
X012579Y019071D02*
X014365Y019071D01*
X014250Y018972D02*
X012631Y018972D01*
X012677Y018874D02*
X014152Y018874D01*
X014063Y018775D02*
X012724Y018775D01*
X012772Y018677D02*
X013973Y018677D01*
X013881Y018578D02*
X012812Y018578D01*
X012852Y018480D02*
X013798Y018480D01*
X013727Y018381D02*
X012892Y018381D01*
X012932Y018283D02*
X013655Y018283D01*
X013583Y018184D02*
X012965Y018184D01*
X012999Y018086D02*
X013511Y018086D01*
X013485Y017987D02*
X013035Y017987D01*
X013064Y017889D02*
X013493Y017889D01*
X013535Y017790D02*
X013093Y017790D01*
X013122Y017692D02*
X013291Y017692D01*
X013227Y017593D02*
X013151Y017593D01*
X013175Y017495D02*
X013178Y017495D01*
X011952Y017987D02*
X011595Y017987D01*
X011694Y018086D02*
X011910Y018086D01*
X011868Y018184D02*
X011764Y018184D01*
X012896Y016534D02*
X012901Y016533D01*
X012909Y016528D01*
X012958Y016521D01*
X012979Y016512D01*
X012999Y016512D01*
X013008Y016510D01*
X013018Y016512D01*
X013055Y016507D01*
X013076Y016512D01*
X013168Y016512D01*
X013193Y016504D01*
X013219Y016506D01*
X013229Y016505D01*
X013221Y016479D01*
X013215Y016470D01*
X013207Y016428D01*
X013196Y016388D01*
X013197Y016377D01*
X013195Y016366D01*
X013192Y016362D01*
X013184Y016315D01*
X013175Y016268D01*
X013176Y016263D01*
X013174Y016252D01*
X013169Y016242D01*
X013166Y016200D01*
X013160Y016159D01*
X013162Y016148D01*
X013121Y015618D01*
X013117Y015608D01*
X013117Y015603D01*
X013115Y015598D01*
X013117Y015560D01*
X013114Y015523D01*
X013117Y015513D01*
X013117Y015502D01*
X013119Y015498D01*
X013123Y015390D01*
X013123Y015390D01*
X013124Y015381D01*
X013121Y015370D01*
X013126Y015329D01*
X013127Y015288D01*
X013132Y015277D01*
X013197Y014754D01*
X013195Y014744D01*
X013203Y014702D01*
X013208Y014659D01*
X013213Y014650D01*
X013216Y014639D01*
X013215Y014633D01*
X013226Y014588D01*
X013235Y014542D01*
X013239Y014537D01*
X013241Y014527D01*
X013241Y014515D01*
X013254Y014476D01*
X013259Y014455D01*
X013233Y014455D01*
X013195Y014460D01*
X013189Y014459D01*
X013154Y014459D01*
X013116Y014464D01*
X013110Y014463D01*
X013083Y014463D01*
X013048Y014468D01*
X013037Y014466D01*
X013021Y014468D01*
X012996Y014463D01*
X012971Y014463D01*
X012939Y014449D01*
X012918Y014445D01*
X012919Y014448D01*
X012922Y014455D01*
X012927Y014507D01*
X012934Y014559D01*
X012934Y014560D01*
X012936Y014612D01*
X012941Y014665D01*
X012939Y014671D01*
X012962Y015210D01*
X012966Y015222D01*
X012964Y015269D01*
X012966Y015316D01*
X012963Y015326D01*
X012960Y015374D01*
X012957Y015432D01*
X012957Y015434D01*
X012927Y015970D01*
X012930Y015981D01*
X012924Y016029D01*
X012921Y016077D01*
X012916Y016088D01*
X012912Y016116D01*
X012903Y016411D01*
X013202Y016411D01*
X013184Y016313D02*
X012906Y016313D01*
X012903Y016411D02*
X012905Y016417D01*
X012901Y016470D01*
X012901Y016476D01*
X012902Y016481D01*
X012900Y016502D01*
X012899Y016523D01*
X012897Y016529D01*
X012896Y016534D01*
X012900Y016510D02*
X013036Y016510D01*
X013066Y016510D02*
X013177Y016510D01*
X013167Y016214D02*
X012909Y016214D01*
X012912Y016116D02*
X013160Y016116D01*
X013152Y016017D02*
X012925Y016017D01*
X012930Y015919D02*
X013144Y015919D01*
X013137Y015820D02*
X012935Y015820D01*
X012941Y015722D02*
X013129Y015722D01*
X013122Y015623D02*
X012946Y015623D01*
X012952Y015525D02*
X013114Y015525D01*
X013122Y015426D02*
X012958Y015426D01*
X012962Y015328D02*
X013126Y015328D01*
X013138Y015229D02*
X012966Y015229D01*
X012958Y015131D02*
X013150Y015131D01*
X013162Y015032D02*
X012954Y015032D01*
X012950Y014934D02*
X013175Y014934D01*
X013187Y014835D02*
X012946Y014835D01*
X012941Y014737D02*
X013196Y014737D01*
X013216Y014638D02*
X012938Y014638D01*
X012931Y014540D02*
X013237Y014540D01*
X014925Y014956D02*
X014962Y015024D01*
X015009Y015100D01*
X015058Y015163D01*
X015118Y015223D01*
X015182Y015278D01*
X015238Y015317D01*
X015261Y015327D01*
X015278Y015344D01*
X015298Y015357D01*
X015301Y015361D01*
X015305Y015364D01*
X015318Y015384D01*
X015335Y015401D01*
X015344Y015423D01*
X015358Y015443D01*
X015359Y015448D01*
X015362Y015452D01*
X015366Y015476D01*
X015376Y015498D01*
X015376Y015523D01*
X015381Y015546D01*
X015380Y015551D01*
X015381Y015556D01*
X015376Y015580D01*
X015376Y015604D01*
X015366Y015626D01*
X015362Y015650D01*
X015359Y015654D01*
X015358Y015659D01*
X015344Y015679D01*
X015335Y015701D01*
X015318Y015718D01*
X015305Y015739D01*
X015301Y015742D01*
X015298Y015746D01*
X015278Y015759D01*
X015261Y015776D01*
X015238Y015785D01*
X015180Y015826D01*
X015114Y015880D01*
X015060Y015936D01*
X015005Y016007D01*
X014955Y016080D01*
X014920Y016144D01*
X015018Y016144D01*
X015342Y016278D01*
X015591Y016527D01*
X015673Y016727D01*
X016087Y016727D01*
X016100Y016733D01*
X016100Y016490D01*
X016146Y016380D01*
X016620Y015906D01*
X016519Y015805D01*
X016450Y015640D01*
X016450Y015460D01*
X016519Y015295D01*
X016645Y015169D01*
X016810Y015100D01*
X016990Y015100D01*
X017100Y015146D01*
X017100Y014990D01*
X017118Y014947D01*
X016990Y015000D01*
X016810Y015000D01*
X016645Y014931D01*
X016519Y014805D01*
X016450Y014640D01*
X016450Y014460D01*
X016519Y014295D01*
X016645Y014169D01*
X016810Y014100D01*
X016990Y014100D01*
X017155Y014169D01*
X017281Y014295D01*
X017350Y014460D01*
X017350Y014640D01*
X017324Y014701D01*
X017450Y014576D01*
X017450Y014460D01*
X017519Y014295D01*
X017645Y014169D01*
X017810Y014100D01*
X017990Y014100D01*
X018155Y014169D01*
X018281Y014295D01*
X018350Y014460D01*
X018350Y014640D01*
X018281Y014805D01*
X018155Y014931D01*
X017990Y015000D01*
X017874Y015000D01*
X017749Y015126D01*
X017810Y015100D01*
X017990Y015100D01*
X018155Y015169D01*
X018281Y015295D01*
X018350Y015460D01*
X018350Y015640D01*
X018281Y015805D01*
X018155Y015931D01*
X017990Y016000D01*
X017850Y016000D01*
X017850Y016100D01*
X017990Y016100D01*
X018155Y016169D01*
X018236Y016250D01*
X018276Y016250D01*
X019100Y015426D01*
X019100Y014490D01*
X019137Y014401D01*
X019074Y014250D01*
X019074Y013898D01*
X019156Y013701D01*
X019079Y013698D01*
X018992Y013701D01*
X018911Y013713D01*
X018829Y013734D01*
X018751Y013761D01*
X018672Y013799D01*
X018632Y013821D01*
X018625Y013822D01*
X018619Y013825D01*
X018573Y013827D01*
X018527Y013832D01*
X018521Y013830D01*
X018513Y013830D01*
X018470Y013815D01*
X018426Y013802D01*
X018421Y013798D01*
X018414Y013796D01*
X018380Y013765D01*
X018344Y013736D01*
X018341Y013730D01*
X018336Y013725D01*
X018316Y013684D01*
X018294Y013644D01*
X018293Y013637D01*
X018290Y013630D01*
X018287Y013584D01*
X018277Y013490D01*
X018262Y013404D01*
X018238Y013322D01*
X018206Y013239D01*
X018171Y013166D01*
X018134Y013110D01*
X017899Y013345D01*
X017574Y013480D01*
X017223Y013480D01*
X016898Y013345D01*
X016669Y013115D01*
X016631Y013173D01*
X016593Y013247D01*
X016564Y013321D01*
X016543Y013403D01*
X016527Y013490D01*
X016521Y013582D01*
X016519Y013630D01*
X016517Y013634D01*
X016517Y013638D01*
X016495Y013682D01*
X016475Y013726D01*
X016472Y013729D01*
X016470Y013733D01*
X016433Y013764D01*
X016397Y013797D01*
X016393Y013799D01*
X016390Y013802D01*
X016344Y013817D01*
X016298Y013834D01*
X016294Y013834D01*
X016290Y013835D01*
X016242Y013832D01*
X016193Y013830D01*
X016189Y013828D01*
X016185Y013827D01*
X016141Y013806D01*
X016055Y013766D01*
X015975Y013738D01*
X015893Y013717D01*
X015811Y013705D01*
X015729Y013702D01*
X015645Y013705D01*
X015725Y013897D01*
X015725Y014249D01*
X015591Y014573D01*
X015342Y014822D01*
X015018Y014956D01*
X014925Y014956D01*
X014967Y015032D02*
X017100Y015032D01*
X017100Y015131D02*
X017063Y015131D01*
X016737Y015131D02*
X015033Y015131D01*
X015125Y015229D02*
X016585Y015229D01*
X016505Y015328D02*
X015262Y015328D01*
X015346Y015426D02*
X016464Y015426D01*
X016450Y015525D02*
X015376Y015525D01*
X015368Y015623D02*
X016450Y015623D01*
X016484Y015722D02*
X015316Y015722D01*
X015188Y015820D02*
X016534Y015820D01*
X016607Y015919D02*
X015077Y015919D01*
X014999Y016017D02*
X016509Y016017D01*
X016410Y016116D02*
X014936Y016116D01*
X015187Y016214D02*
X016312Y016214D01*
X016213Y016313D02*
X015376Y016313D01*
X015475Y016411D02*
X016133Y016411D01*
X016100Y016510D02*
X015573Y016510D01*
X015624Y016608D02*
X016100Y016608D01*
X016100Y016707D02*
X015665Y016707D01*
X016027Y017027D02*
X014842Y017027D01*
X015645Y017396D02*
X015811Y017396D01*
X015804Y017397D02*
X015890Y017385D01*
X015948Y017372D01*
X015903Y017327D01*
X015673Y017327D01*
X015644Y017398D01*
X015717Y017400D01*
X015804Y017397D01*
X016027Y017027D02*
X016550Y017550D01*
X016900Y017550D01*
X017100Y017350D01*
X017100Y016750D01*
X016900Y016550D01*
X016400Y016550D02*
X017400Y015550D01*
X017400Y015050D01*
X017900Y014550D01*
X018350Y014540D02*
X019100Y014540D01*
X019100Y014638D02*
X018350Y014638D01*
X018310Y014737D02*
X019100Y014737D01*
X019100Y014835D02*
X018251Y014835D01*
X018150Y014934D02*
X019100Y014934D01*
X019100Y015032D02*
X017842Y015032D01*
X018063Y015131D02*
X019100Y015131D01*
X019100Y015229D02*
X018215Y015229D01*
X018295Y015328D02*
X019100Y015328D01*
X019100Y015426D02*
X018336Y015426D01*
X018350Y015525D02*
X019001Y015525D01*
X018903Y015623D02*
X018350Y015623D01*
X018316Y015722D02*
X018804Y015722D01*
X018706Y015820D02*
X018266Y015820D01*
X018168Y015919D02*
X018607Y015919D01*
X018509Y016017D02*
X017850Y016017D01*
X018027Y016116D02*
X018410Y016116D01*
X018312Y016214D02*
X018200Y016214D01*
X018400Y016550D02*
X017900Y016550D01*
X018236Y016850D02*
X018155Y016931D01*
X017990Y017000D01*
X017810Y017000D01*
X017700Y016954D01*
X017700Y017668D01*
X017900Y017751D01*
X018140Y017991D01*
X018169Y017943D01*
X018206Y017867D01*
X018238Y017785D01*
X018262Y017703D01*
X018276Y017621D01*
X018283Y017529D01*
X018285Y017480D01*
X018287Y017476D01*
X018287Y017472D01*
X018309Y017428D01*
X018329Y017384D01*
X018332Y017381D01*
X018334Y017378D01*
X018371Y017346D01*
X018407Y017313D01*
X018411Y017311D01*
X018414Y017309D01*
X018460Y017293D01*
X018505Y017276D01*
X018510Y017277D01*
X018514Y017275D01*
X018562Y017279D01*
X018611Y017281D01*
X018615Y017282D01*
X018619Y017283D01*
X018662Y017304D01*
X018749Y017344D01*
X018828Y017372D01*
X018914Y017393D01*
X018998Y017406D01*
X019084Y017412D01*
X019159Y017409D01*
X019074Y017203D01*
X019074Y016852D01*
X019208Y016528D01*
X019456Y016279D01*
X019781Y016145D01*
X019886Y016145D01*
X019852Y016078D01*
X019802Y016007D01*
X019750Y015939D01*
X019690Y015880D01*
X019628Y015826D01*
X019580Y015794D01*
X019570Y015804D01*
X018570Y016804D01*
X018460Y016850D01*
X018236Y016850D01*
X018183Y016904D02*
X019074Y016904D01*
X019074Y017002D02*
X017700Y017002D01*
X017700Y017101D02*
X019074Y017101D01*
X019074Y017199D02*
X017700Y017199D01*
X017700Y017298D02*
X018447Y017298D01*
X018324Y017396D02*
X017700Y017396D01*
X017700Y017495D02*
X018284Y017495D01*
X018278Y017593D02*
X017700Y017593D01*
X017756Y017692D02*
X018264Y017692D01*
X018235Y017790D02*
X017939Y017790D01*
X018037Y017889D02*
X018196Y017889D01*
X018142Y017987D02*
X018136Y017987D01*
X018649Y017298D02*
X019113Y017298D01*
X019153Y017396D02*
X018932Y017396D01*
X019093Y016805D02*
X018568Y016805D01*
X018668Y016707D02*
X019134Y016707D01*
X019175Y016608D02*
X018766Y016608D01*
X018865Y016510D02*
X019226Y016510D01*
X019325Y016411D02*
X018963Y016411D01*
X019062Y016313D02*
X019423Y016313D01*
X019614Y016214D02*
X019160Y016214D01*
X019259Y016116D02*
X019871Y016116D01*
X019809Y016017D02*
X019357Y016017D01*
X019456Y015919D02*
X019729Y015919D01*
X019619Y015820D02*
X019554Y015820D01*
X019570Y015804D02*
X019570Y015804D01*
X019400Y015550D02*
X019400Y014550D01*
X019876Y014074D01*
X019958Y014074D01*
X019135Y013752D02*
X018779Y013752D01*
X019094Y013850D02*
X015705Y013850D01*
X015725Y013949D02*
X019074Y013949D01*
X019074Y014047D02*
X015725Y014047D01*
X015725Y014146D02*
X016701Y014146D01*
X016570Y014244D02*
X015725Y014244D01*
X015686Y014343D02*
X016499Y014343D01*
X016458Y014441D02*
X015645Y014441D01*
X015605Y014540D02*
X016450Y014540D01*
X016450Y014638D02*
X015526Y014638D01*
X015427Y014737D02*
X016490Y014737D01*
X016549Y014835D02*
X015310Y014835D01*
X015072Y014934D02*
X016650Y014934D01*
X017350Y014638D02*
X017388Y014638D01*
X017350Y014540D02*
X017450Y014540D01*
X017458Y014441D02*
X017342Y014441D01*
X017301Y014343D02*
X017499Y014343D01*
X017570Y014244D02*
X017230Y014244D01*
X017099Y014146D02*
X017701Y014146D01*
X018099Y014146D02*
X019074Y014146D01*
X019074Y014244D02*
X018230Y014244D01*
X018301Y014343D02*
X019113Y014343D01*
X019120Y014441D02*
X018342Y014441D01*
X018363Y013752D02*
X016448Y013752D01*
X016510Y013653D02*
X018299Y013653D01*
X018284Y013555D02*
X016523Y013555D01*
X016533Y013456D02*
X017166Y013456D01*
X016928Y013358D02*
X016555Y013358D01*
X016588Y013259D02*
X016812Y013259D01*
X016714Y013161D02*
X016639Y013161D01*
X016014Y013752D02*
X015665Y013752D01*
X017631Y013456D02*
X018271Y013456D01*
X018248Y013358D02*
X017869Y013358D01*
X017985Y013259D02*
X018213Y013259D01*
X018167Y013161D02*
X018083Y013161D01*
X019700Y014923D02*
X019700Y015209D01*
X019746Y015163D01*
X019794Y015100D01*
X019842Y015024D01*
X019878Y014957D01*
X019782Y014957D01*
X019700Y014923D01*
X019700Y014934D02*
X019725Y014934D01*
X019700Y015032D02*
X019837Y015032D01*
X019771Y015131D02*
X019700Y015131D01*
X019400Y015550D02*
X018400Y016550D01*
X017400Y016050D02*
X017400Y018500D01*
X016763Y017889D02*
X016600Y017889D01*
X016585Y017859D02*
X016581Y017850D01*
X016801Y017850D01*
X016659Y017992D01*
X016624Y017935D01*
X016585Y017859D01*
X016657Y017987D02*
X016664Y017987D01*
X016650Y017050D02*
X016400Y016800D01*
X016400Y016550D01*
X016712Y022111D02*
X016712Y024389D01*
X016900Y024201D01*
X017224Y024067D01*
X017576Y024067D01*
X017900Y024201D01*
X018112Y024413D01*
X018112Y022087D01*
X017900Y022299D01*
X017576Y022433D01*
X017224Y022433D01*
X016900Y022299D01*
X016712Y022111D01*
X016712Y022124D02*
X016725Y022124D01*
X016712Y022223D02*
X016824Y022223D01*
X016712Y022321D02*
X016954Y022321D01*
X017192Y022420D02*
X016712Y022420D01*
X016712Y022518D02*
X018112Y022518D01*
X018112Y022420D02*
X017608Y022420D01*
X017846Y022321D02*
X018112Y022321D01*
X018112Y022223D02*
X017976Y022223D01*
X018075Y022124D02*
X018112Y022124D01*
X018112Y022617D02*
X016712Y022617D01*
X016712Y022715D02*
X018112Y022715D01*
X018112Y022814D02*
X016712Y022814D01*
X016712Y022912D02*
X018112Y022912D01*
X018112Y023011D02*
X016712Y023011D01*
X016712Y023109D02*
X018112Y023109D01*
X018112Y023208D02*
X016712Y023208D01*
X016712Y023306D02*
X018112Y023306D01*
X018112Y023405D02*
X016712Y023405D01*
X016712Y023503D02*
X018112Y023503D01*
X018112Y023602D02*
X016712Y023602D01*
X016712Y023700D02*
X018112Y023700D01*
X018112Y023799D02*
X016712Y023799D01*
X016712Y023897D02*
X018112Y023897D01*
X018112Y023996D02*
X016712Y023996D01*
X016712Y024094D02*
X017159Y024094D01*
X016921Y024193D02*
X016712Y024193D01*
X016712Y024291D02*
X016810Y024291D01*
X017641Y024094D02*
X018112Y024094D01*
X018112Y024193D02*
X017879Y024193D01*
X017990Y024291D02*
X018112Y024291D01*
X018112Y024390D02*
X018088Y024390D01*
X027181Y010304D02*
X028350Y010304D01*
X028350Y010206D02*
X027289Y010206D01*
X027488Y010107D02*
X028350Y010107D01*
X028350Y010009D02*
X027736Y010009D01*
X027813Y009910D02*
X028350Y009910D01*
X028350Y009812D02*
X027983Y009812D01*
X028209Y009713D02*
X028350Y009713D01*
X028350Y009615D02*
X028330Y009615D01*
X018112Y009013D02*
X018112Y006687D01*
X017900Y006899D01*
X017576Y007033D01*
X017224Y007033D01*
X016900Y006899D01*
X016712Y006711D01*
X016712Y008989D01*
X016900Y008801D01*
X017224Y008667D01*
X017576Y008667D01*
X017900Y008801D01*
X018112Y009013D01*
X018112Y008925D02*
X018024Y008925D01*
X018112Y008827D02*
X017925Y008827D01*
X018112Y008728D02*
X017723Y008728D01*
X018112Y008630D02*
X016712Y008630D01*
X016712Y008728D02*
X017077Y008728D01*
X016875Y008827D02*
X016712Y008827D01*
X016712Y008925D02*
X016776Y008925D01*
X016712Y008531D02*
X018112Y008531D01*
X018112Y008433D02*
X016712Y008433D01*
X016712Y008334D02*
X018112Y008334D01*
X018112Y008236D02*
X016712Y008236D01*
X016712Y008137D02*
X018112Y008137D01*
X018112Y008039D02*
X016712Y008039D01*
X016712Y007940D02*
X018112Y007940D01*
X018112Y007842D02*
X016712Y007842D01*
X016712Y007743D02*
X018112Y007743D01*
X018112Y007645D02*
X016712Y007645D01*
X016712Y007546D02*
X018112Y007546D01*
X018112Y007448D02*
X016712Y007448D01*
X016712Y007349D02*
X018112Y007349D01*
X018112Y007251D02*
X016712Y007251D01*
X016712Y007152D02*
X018112Y007152D01*
X018112Y007054D02*
X016712Y007054D01*
X016712Y006955D02*
X017036Y006955D01*
X016858Y006857D02*
X016712Y006857D01*
X016712Y006758D02*
X016759Y006758D01*
X017764Y006955D02*
X018112Y006955D01*
X018112Y006857D02*
X017942Y006857D01*
X018041Y006758D02*
X018112Y006758D01*
X001969Y010304D02*
X001831Y010304D01*
X001469Y010304D02*
X001331Y010304D01*
X000969Y010304D02*
X000831Y010304D01*
X000469Y010304D02*
X000450Y010304D01*
D14*
X014759Y014841D02*
X014780Y014910D01*
X014817Y014998D01*
X014862Y015082D01*
X014915Y015166D01*
X014971Y015239D01*
X015039Y015307D01*
X015112Y015369D01*
X015158Y015401D01*
X015173Y015401D01*
X015183Y015412D01*
X015198Y015415D01*
X015218Y015443D01*
X015247Y015464D01*
X015250Y015478D01*
X015261Y015489D01*
X015261Y015504D01*
X015269Y015517D01*
X015263Y015551D01*
X015269Y015586D01*
X015261Y015598D01*
X015261Y015613D01*
X015250Y015624D01*
X015247Y015639D01*
X015218Y015659D01*
X015198Y015688D01*
X015183Y015690D01*
X015173Y015701D01*
X015158Y015701D01*
X015110Y015734D01*
X015036Y015795D01*
X016671Y015795D01*
X016643Y015767D02*
X015071Y015767D01*
X015105Y015738D02*
X016615Y015738D01*
X016616Y015740D02*
X016565Y015617D01*
X016565Y015483D01*
X016616Y015360D01*
X016710Y015266D01*
X016833Y015215D01*
X016967Y015215D01*
X017090Y015266D01*
X017184Y015360D01*
X017215Y015435D01*
X017215Y014973D01*
X017567Y014621D01*
X017565Y014617D01*
X017565Y014483D01*
X017616Y014360D01*
X017710Y014266D01*
X017833Y014215D01*
X017967Y014215D01*
X018090Y014266D01*
X018184Y014360D01*
X018235Y014483D01*
X018235Y014617D01*
X018184Y014740D01*
X018090Y014834D01*
X017967Y014885D01*
X017833Y014885D01*
X017829Y014883D01*
X017585Y015127D01*
X017585Y015435D01*
X017616Y015360D01*
X017710Y015266D01*
X017833Y015215D01*
X017967Y015215D01*
X018090Y015266D01*
X018184Y015360D01*
X018235Y015483D01*
X018235Y015617D01*
X018184Y015740D01*
X018090Y015834D01*
X017967Y015885D01*
X017833Y015885D01*
X017710Y015834D01*
X017616Y015740D01*
X017574Y015638D01*
X017488Y015724D01*
X017590Y015766D01*
X017684Y015860D01*
X017735Y015983D01*
X017735Y016117D01*
X017684Y016240D01*
X017590Y016334D01*
X017585Y016336D01*
X017585Y016435D01*
X017616Y016360D01*
X017710Y016266D01*
X017833Y016215D01*
X017967Y016215D01*
X018090Y016266D01*
X018184Y016360D01*
X018186Y016365D01*
X018323Y016365D01*
X019215Y015473D01*
X019215Y014473D01*
X019269Y014419D01*
X019190Y014227D01*
X019190Y013921D01*
X019306Y013639D01*
X019331Y013614D01*
X019269Y013600D01*
X019172Y013587D01*
X019079Y013583D01*
X018982Y013587D01*
X018888Y013600D01*
X018796Y013624D01*
X018707Y013655D01*
X018647Y013683D01*
X018629Y013705D01*
X018593Y013709D01*
X018560Y013725D01*
X018534Y013716D01*
X018506Y013719D01*
X018478Y013696D01*
X018443Y013684D01*
X018431Y013658D01*
X018409Y013641D01*
X018405Y013605D01*
X018390Y013572D01*
X018399Y013545D01*
X018391Y013474D01*
X018374Y013377D01*
X018347Y013285D01*
X018311Y013193D01*
X018271Y013109D01*
X018221Y013032D01*
X018162Y012956D01*
X018106Y012897D01*
X018050Y013032D01*
X017834Y013248D01*
X017551Y013364D01*
X017246Y013364D01*
X016964Y013248D01*
X016748Y013032D01*
X016694Y012901D01*
X016643Y012955D01*
X016584Y013034D01*
X016532Y013115D01*
X016488Y013199D01*
X016454Y013286D01*
X016430Y013378D01*
X016413Y013475D01*
X016408Y013545D01*
X016418Y013573D01*
X016404Y013605D01*
X016401Y013640D01*
X016379Y013659D01*
X016366Y013686D01*
X016334Y013698D01*
X016308Y013721D01*
X016278Y013719D01*
X016250Y013729D01*
X016218Y013715D01*
X016184Y013712D01*
X016164Y013690D01*
X016098Y013659D01*
X016008Y013628D01*
X015916Y013604D01*
X015822Y013590D01*
X015729Y013587D01*
X015629Y013591D01*
X015535Y013601D01*
X015472Y013617D01*
X015493Y013638D01*
X015610Y013920D01*
X015610Y014226D01*
X015493Y014508D01*
X015277Y014724D01*
X014995Y014841D01*
X014759Y014841D01*
X014764Y014857D02*
X016766Y014857D01*
X016710Y014834D02*
X016616Y014740D01*
X016565Y014617D01*
X016565Y014483D01*
X016616Y014360D01*
X016710Y014266D01*
X016833Y014215D01*
X016967Y014215D01*
X017090Y014266D01*
X017184Y014360D01*
X017235Y014483D01*
X017235Y014617D01*
X017184Y014740D01*
X017090Y014834D01*
X016967Y014885D01*
X016833Y014885D01*
X016710Y014834D01*
X016705Y014829D02*
X015025Y014829D01*
X015093Y014800D02*
X016676Y014800D01*
X016648Y014772D02*
X015162Y014772D01*
X015231Y014743D02*
X016620Y014743D01*
X016606Y014715D02*
X015286Y014715D01*
X015315Y014686D02*
X016594Y014686D01*
X016582Y014658D02*
X015343Y014658D01*
X015371Y014630D02*
X016570Y014630D01*
X016565Y014601D02*
X015400Y014601D01*
X015428Y014573D02*
X016565Y014573D01*
X016565Y014544D02*
X015457Y014544D01*
X015485Y014516D02*
X016565Y014516D01*
X016565Y014488D02*
X015502Y014488D01*
X015513Y014459D02*
X016575Y014459D01*
X016587Y014431D02*
X015525Y014431D01*
X015537Y014402D02*
X016599Y014402D01*
X016610Y014374D02*
X015549Y014374D01*
X015560Y014345D02*
X016631Y014345D01*
X016659Y014317D02*
X015572Y014317D01*
X015584Y014289D02*
X016688Y014289D01*
X016724Y014260D02*
X015596Y014260D01*
X015607Y014232D02*
X016793Y014232D01*
X017007Y014232D02*
X017793Y014232D01*
X017724Y014260D02*
X017076Y014260D01*
X017112Y014289D02*
X017688Y014289D01*
X017659Y014317D02*
X017141Y014317D01*
X017169Y014345D02*
X017631Y014345D01*
X017610Y014374D02*
X017190Y014374D01*
X017201Y014402D02*
X017599Y014402D01*
X017587Y014431D02*
X017213Y014431D01*
X017225Y014459D02*
X017575Y014459D01*
X017565Y014488D02*
X017235Y014488D01*
X017235Y014516D02*
X017565Y014516D01*
X017565Y014544D02*
X017235Y014544D01*
X017235Y014573D02*
X017565Y014573D01*
X017565Y014601D02*
X017235Y014601D01*
X017230Y014630D02*
X017559Y014630D01*
X017530Y014658D02*
X017218Y014658D01*
X017206Y014686D02*
X017502Y014686D01*
X017474Y014715D02*
X017194Y014715D01*
X017180Y014743D02*
X017445Y014743D01*
X017417Y014772D02*
X017152Y014772D01*
X017124Y014800D02*
X017388Y014800D01*
X017360Y014829D02*
X017095Y014829D01*
X017034Y014857D02*
X017331Y014857D01*
X017303Y014885D02*
X014772Y014885D01*
X014781Y014914D02*
X017275Y014914D01*
X017246Y014942D02*
X014793Y014942D01*
X014805Y014971D02*
X017218Y014971D01*
X017215Y014999D02*
X014817Y014999D01*
X014833Y015028D02*
X017215Y015028D01*
X017215Y015056D02*
X014848Y015056D01*
X014864Y015084D02*
X017215Y015084D01*
X017215Y015113D02*
X014882Y015113D01*
X014899Y015141D02*
X017215Y015141D01*
X017215Y015170D02*
X014918Y015170D01*
X014940Y015198D02*
X017215Y015198D01*
X017215Y015226D02*
X016994Y015226D01*
X017063Y015255D02*
X017215Y015255D01*
X017215Y015283D02*
X017107Y015283D01*
X017135Y015312D02*
X017215Y015312D01*
X017215Y015340D02*
X017164Y015340D01*
X017187Y015369D02*
X017215Y015369D01*
X017215Y015397D02*
X017199Y015397D01*
X017211Y015425D02*
X017215Y015425D01*
X017585Y015425D02*
X017589Y015425D01*
X017585Y015397D02*
X017601Y015397D01*
X017613Y015369D02*
X017585Y015369D01*
X017585Y015340D02*
X017636Y015340D01*
X017665Y015312D02*
X017585Y015312D01*
X017585Y015283D02*
X017693Y015283D01*
X017737Y015255D02*
X017585Y015255D01*
X017585Y015226D02*
X017806Y015226D01*
X017994Y015226D02*
X019215Y015226D01*
X019215Y015198D02*
X017585Y015198D01*
X017585Y015170D02*
X019215Y015170D01*
X019215Y015141D02*
X017585Y015141D01*
X017599Y015113D02*
X019215Y015113D01*
X019215Y015084D02*
X017627Y015084D01*
X017656Y015056D02*
X019215Y015056D01*
X019215Y015028D02*
X017684Y015028D01*
X017712Y014999D02*
X019215Y014999D01*
X019215Y014971D02*
X017741Y014971D01*
X017769Y014942D02*
X019215Y014942D01*
X019215Y014914D02*
X017798Y014914D01*
X017826Y014885D02*
X019215Y014885D01*
X019215Y014857D02*
X018034Y014857D01*
X018095Y014829D02*
X019215Y014829D01*
X019215Y014800D02*
X018124Y014800D01*
X018152Y014772D02*
X019215Y014772D01*
X019215Y014743D02*
X018180Y014743D01*
X018194Y014715D02*
X019215Y014715D01*
X019215Y014686D02*
X018206Y014686D01*
X018218Y014658D02*
X019215Y014658D01*
X019215Y014630D02*
X018230Y014630D01*
X018235Y014601D02*
X019215Y014601D01*
X019215Y014573D02*
X018235Y014573D01*
X018235Y014544D02*
X019215Y014544D01*
X019215Y014516D02*
X018235Y014516D01*
X018235Y014488D02*
X019215Y014488D01*
X019229Y014459D02*
X018225Y014459D01*
X018213Y014431D02*
X019258Y014431D01*
X019262Y014402D02*
X018201Y014402D01*
X018190Y014374D02*
X019250Y014374D01*
X019239Y014345D02*
X018169Y014345D01*
X018141Y014317D02*
X019227Y014317D01*
X019215Y014289D02*
X018112Y014289D01*
X018076Y014260D02*
X019203Y014260D01*
X019192Y014232D02*
X018007Y014232D01*
X018466Y013692D02*
X016351Y013692D01*
X016377Y013663D02*
X018433Y013663D01*
X018409Y013635D02*
X016402Y013635D01*
X016404Y013606D02*
X018405Y013606D01*
X018393Y013578D02*
X016416Y013578D01*
X016410Y013550D02*
X018397Y013550D01*
X018396Y013521D02*
X016410Y013521D01*
X016412Y013493D02*
X018393Y013493D01*
X018390Y013464D02*
X016415Y013464D01*
X016420Y013436D02*
X018384Y013436D01*
X018379Y013408D02*
X016425Y013408D01*
X016430Y013379D02*
X018374Y013379D01*
X018366Y013351D02*
X017585Y013351D01*
X017653Y013322D02*
X018358Y013322D01*
X018349Y013294D02*
X017722Y013294D01*
X017791Y013265D02*
X018339Y013265D01*
X018328Y013237D02*
X017844Y013237D01*
X017873Y013209D02*
X018317Y013209D01*
X018305Y013180D02*
X017901Y013180D01*
X017930Y013152D02*
X018291Y013152D01*
X018278Y013123D02*
X017958Y013123D01*
X017986Y013095D02*
X018262Y013095D01*
X018243Y013066D02*
X018015Y013066D01*
X018043Y013038D02*
X018225Y013038D01*
X018203Y013010D02*
X018059Y013010D01*
X018071Y012981D02*
X018182Y012981D01*
X018159Y012953D02*
X018082Y012953D01*
X018094Y012924D02*
X018132Y012924D01*
X018764Y013635D02*
X019310Y013635D01*
X019296Y013663D02*
X018689Y013663D01*
X018640Y013692D02*
X019285Y013692D01*
X019273Y013720D02*
X018571Y013720D01*
X018547Y013720D02*
X016308Y013720D01*
X016297Y013720D02*
X016274Y013720D01*
X016231Y013720D02*
X015527Y013720D01*
X015515Y013692D02*
X016166Y013692D01*
X016107Y013663D02*
X015503Y013663D01*
X015490Y013635D02*
X016028Y013635D01*
X015926Y013606D02*
X015513Y013606D01*
X015539Y013749D02*
X019261Y013749D01*
X019249Y013777D02*
X015551Y013777D01*
X015562Y013805D02*
X019237Y013805D01*
X019226Y013834D02*
X015574Y013834D01*
X015586Y013862D02*
X019214Y013862D01*
X019202Y013891D02*
X015598Y013891D01*
X015609Y013919D02*
X019190Y013919D01*
X019190Y013948D02*
X015610Y013948D01*
X015610Y013976D02*
X019190Y013976D01*
X019190Y014004D02*
X015610Y014004D01*
X015610Y014033D02*
X019190Y014033D01*
X019190Y014061D02*
X015610Y014061D01*
X015610Y014090D02*
X019190Y014090D01*
X019190Y014118D02*
X015610Y014118D01*
X015610Y014146D02*
X019190Y014146D01*
X019190Y014175D02*
X015610Y014175D01*
X015610Y014203D02*
X019190Y014203D01*
X019585Y014751D02*
X019585Y015443D01*
X019603Y015416D01*
X019619Y015413D01*
X019631Y015401D01*
X019646Y015401D01*
X019692Y015369D01*
X019765Y015307D01*
X019832Y015239D01*
X019889Y015166D01*
X019942Y015082D01*
X019987Y014998D01*
X020024Y014910D01*
X020045Y014842D01*
X019805Y014842D01*
X019585Y014751D01*
X019585Y014772D02*
X019635Y014772D01*
X019585Y014800D02*
X019704Y014800D01*
X019772Y014829D02*
X019585Y014829D01*
X019585Y014857D02*
X020040Y014857D01*
X020032Y014885D02*
X019585Y014885D01*
X019585Y014914D02*
X020023Y014914D01*
X020011Y014942D02*
X019585Y014942D01*
X019585Y014971D02*
X019999Y014971D01*
X019987Y014999D02*
X019585Y014999D01*
X019585Y015028D02*
X019971Y015028D01*
X019956Y015056D02*
X019585Y015056D01*
X019585Y015084D02*
X019940Y015084D01*
X019922Y015113D02*
X019585Y015113D01*
X019585Y015141D02*
X019905Y015141D01*
X019886Y015170D02*
X019585Y015170D01*
X019585Y015198D02*
X019864Y015198D01*
X019842Y015226D02*
X019585Y015226D01*
X019585Y015255D02*
X019817Y015255D01*
X019788Y015283D02*
X019585Y015283D01*
X019585Y015312D02*
X019759Y015312D01*
X019726Y015340D02*
X019585Y015340D01*
X019585Y015369D02*
X019693Y015369D01*
X019652Y015397D02*
X019585Y015397D01*
X019585Y015425D02*
X019597Y015425D01*
X019565Y015646D02*
X019477Y015735D01*
X019477Y015735D01*
X018477Y016735D01*
X018186Y016735D01*
X018184Y016740D01*
X018090Y016834D01*
X017967Y016885D01*
X017833Y016885D01*
X017710Y016834D01*
X017616Y016740D01*
X017585Y016665D01*
X017585Y017745D01*
X017835Y017849D01*
X018051Y018065D01*
X018111Y018208D01*
X018162Y018154D01*
X018220Y018080D01*
X018270Y017998D01*
X018311Y017913D01*
X018347Y017822D01*
X018374Y017729D01*
X018391Y017635D01*
X018396Y017565D01*
X018385Y017537D01*
X018400Y017505D01*
X018403Y017471D01*
X018425Y017451D01*
X018438Y017424D01*
X018470Y017412D01*
X018496Y017389D01*
X018526Y017391D01*
X018554Y017381D01*
X018586Y017396D01*
X018620Y017398D01*
X018640Y017421D01*
X018706Y017451D01*
X018795Y017482D01*
X018892Y017506D01*
X018985Y017520D01*
X019082Y017527D01*
X019176Y017524D01*
X019273Y017510D01*
X019339Y017496D01*
X019306Y017463D01*
X019189Y017181D01*
X019189Y016875D01*
X017991Y016875D01*
X018059Y016847D02*
X019200Y016847D01*
X019189Y016875D02*
X019306Y016593D01*
X019522Y016377D01*
X019804Y016260D01*
X020052Y016260D01*
X020032Y016192D01*
X019995Y016103D01*
X019951Y016019D01*
X019895Y015939D01*
X019836Y015863D01*
X019769Y015795D01*
X019697Y015734D01*
X019648Y015701D01*
X019631Y015701D01*
X019621Y015690D01*
X019606Y015688D01*
X019586Y015660D01*
X019565Y015646D01*
X019559Y015653D02*
X019575Y015653D01*
X019601Y015681D02*
X019530Y015681D01*
X019502Y015710D02*
X019661Y015710D01*
X019702Y015738D02*
X019473Y015738D01*
X019445Y015767D02*
X019735Y015767D01*
X019768Y015795D02*
X019417Y015795D01*
X019388Y015823D02*
X019797Y015823D01*
X019825Y015852D02*
X019360Y015852D01*
X019331Y015880D02*
X019850Y015880D01*
X019872Y015909D02*
X019303Y015909D01*
X019275Y015937D02*
X019894Y015937D01*
X019914Y015965D02*
X019246Y015965D01*
X019218Y015994D02*
X019933Y015994D01*
X019952Y016022D02*
X019189Y016022D01*
X019161Y016051D02*
X019967Y016051D01*
X019982Y016079D02*
X019132Y016079D01*
X019104Y016108D02*
X019996Y016108D01*
X020008Y016136D02*
X019076Y016136D01*
X019047Y016164D02*
X020020Y016164D01*
X020032Y016193D02*
X019019Y016193D01*
X018990Y016221D02*
X020041Y016221D01*
X020049Y016250D02*
X018962Y016250D01*
X018933Y016278D02*
X019760Y016278D01*
X019691Y016307D02*
X018905Y016307D01*
X018877Y016335D02*
X019622Y016335D01*
X019554Y016363D02*
X018848Y016363D01*
X018820Y016392D02*
X019507Y016392D01*
X019478Y016420D02*
X018791Y016420D01*
X018763Y016449D02*
X019450Y016449D01*
X019421Y016477D02*
X018735Y016477D01*
X018706Y016505D02*
X019393Y016505D01*
X019364Y016534D02*
X018678Y016534D01*
X018649Y016562D02*
X019336Y016562D01*
X019308Y016591D02*
X018621Y016591D01*
X018592Y016619D02*
X019295Y016619D01*
X019283Y016648D02*
X018564Y016648D01*
X018536Y016676D02*
X019271Y016676D01*
X019259Y016704D02*
X018507Y016704D01*
X018479Y016733D02*
X019248Y016733D01*
X019236Y016761D02*
X018162Y016761D01*
X018134Y016790D02*
X019224Y016790D01*
X019212Y016818D02*
X018106Y016818D01*
X017809Y016875D02*
X017585Y016875D01*
X017585Y016903D02*
X019189Y016903D01*
X019189Y016932D02*
X017585Y016932D01*
X017585Y016960D02*
X019189Y016960D01*
X019189Y016989D02*
X017585Y016989D01*
X017585Y017017D02*
X019189Y017017D01*
X019189Y017045D02*
X017585Y017045D01*
X017585Y017074D02*
X019189Y017074D01*
X019189Y017102D02*
X017585Y017102D01*
X017585Y017131D02*
X019189Y017131D01*
X019189Y017159D02*
X017585Y017159D01*
X017585Y017188D02*
X019192Y017188D01*
X019203Y017216D02*
X017585Y017216D01*
X017585Y017244D02*
X019215Y017244D01*
X019227Y017273D02*
X017585Y017273D01*
X017585Y017301D02*
X019239Y017301D01*
X019250Y017330D02*
X017585Y017330D01*
X017585Y017358D02*
X019262Y017358D01*
X019274Y017387D02*
X018566Y017387D01*
X018540Y017387D02*
X017585Y017387D01*
X017585Y017415D02*
X018462Y017415D01*
X018429Y017443D02*
X017585Y017443D01*
X017585Y017472D02*
X018402Y017472D01*
X018400Y017500D02*
X017585Y017500D01*
X017585Y017529D02*
X018389Y017529D01*
X018393Y017557D02*
X017585Y017557D01*
X017585Y017585D02*
X018394Y017585D01*
X018392Y017614D02*
X017585Y017614D01*
X017585Y017642D02*
X018389Y017642D01*
X018384Y017671D02*
X017585Y017671D01*
X017585Y017699D02*
X018379Y017699D01*
X018374Y017728D02*
X017585Y017728D01*
X017611Y017756D02*
X018366Y017756D01*
X018358Y017784D02*
X017679Y017784D01*
X017748Y017813D02*
X018349Y017813D01*
X018339Y017841D02*
X017817Y017841D01*
X017856Y017870D02*
X018328Y017870D01*
X018317Y017898D02*
X017884Y017898D01*
X017913Y017927D02*
X018305Y017927D01*
X018291Y017955D02*
X017941Y017955D01*
X017970Y017983D02*
X018278Y017983D01*
X018262Y018012D02*
X017998Y018012D01*
X018026Y018040D02*
X018244Y018040D01*
X018227Y018069D02*
X018053Y018069D01*
X018064Y018097D02*
X018206Y018097D01*
X018184Y018125D02*
X018076Y018125D01*
X018088Y018154D02*
X018162Y018154D01*
X018135Y018182D02*
X018100Y018182D01*
X017215Y017745D02*
X017215Y017497D01*
X017085Y017627D01*
X016977Y017735D01*
X016473Y017735D01*
X016413Y017675D01*
X016423Y017728D01*
X016447Y017820D01*
X016480Y017907D01*
X016524Y017992D01*
X016577Y018077D01*
X016635Y018155D01*
X016688Y018211D01*
X016688Y018211D01*
X016749Y018065D01*
X016965Y017849D01*
X017215Y017745D01*
X017215Y017728D02*
X016984Y017728D01*
X017012Y017699D02*
X017215Y017699D01*
X017215Y017671D02*
X017041Y017671D01*
X017069Y017642D02*
X017215Y017642D01*
X017215Y017614D02*
X017098Y017614D01*
X017126Y017585D02*
X017215Y017585D01*
X017215Y017557D02*
X017155Y017557D01*
X017183Y017529D02*
X017215Y017529D01*
X017211Y017500D02*
X017215Y017500D01*
X017189Y017756D02*
X016430Y017756D01*
X016437Y017784D02*
X017121Y017784D01*
X017052Y017813D02*
X016445Y017813D01*
X016455Y017841D02*
X016983Y017841D01*
X016944Y017870D02*
X016466Y017870D01*
X016476Y017898D02*
X016916Y017898D01*
X016887Y017927D02*
X016490Y017927D01*
X016505Y017955D02*
X016859Y017955D01*
X016830Y017983D02*
X016520Y017983D01*
X016536Y018012D02*
X016802Y018012D01*
X016774Y018040D02*
X016554Y018040D01*
X016572Y018069D02*
X016747Y018069D01*
X016736Y018097D02*
X016592Y018097D01*
X016613Y018125D02*
X016724Y018125D01*
X016712Y018154D02*
X016634Y018154D01*
X016661Y018182D02*
X016700Y018182D01*
X016466Y017728D02*
X016423Y017728D01*
X016417Y017699D02*
X016438Y017699D01*
X016151Y017417D02*
X016153Y017414D01*
X015950Y017212D01*
X015597Y017212D01*
X015493Y017462D01*
X015470Y017485D01*
X015527Y017498D01*
X015624Y017512D01*
X015717Y017515D01*
X015814Y017512D01*
X015910Y017498D01*
X016000Y017478D01*
X016089Y017444D01*
X016151Y017417D01*
X016152Y017415D02*
X015513Y017415D01*
X015524Y017387D02*
X016125Y017387D01*
X016097Y017358D02*
X015536Y017358D01*
X015548Y017330D02*
X016068Y017330D01*
X016040Y017301D02*
X015560Y017301D01*
X015571Y017273D02*
X016011Y017273D01*
X015983Y017244D02*
X015583Y017244D01*
X015595Y017216D02*
X015954Y017216D01*
X016017Y017472D02*
X015483Y017472D01*
X015501Y017443D02*
X016090Y017443D01*
X015895Y017500D02*
X015542Y017500D01*
X016193Y016932D02*
X016270Y016932D01*
X016299Y016960D02*
X016222Y016960D01*
X016212Y016950D02*
X016315Y017053D01*
X016315Y016983D01*
X016317Y016979D01*
X016215Y016877D01*
X016215Y016473D01*
X016812Y015876D01*
X016710Y015834D01*
X016616Y015740D01*
X016604Y015710D02*
X015145Y015710D01*
X015203Y015681D02*
X016592Y015681D01*
X016580Y015653D02*
X015227Y015653D01*
X015250Y015624D02*
X016568Y015624D01*
X016565Y015596D02*
X015262Y015596D01*
X015266Y015568D02*
X016565Y015568D01*
X016565Y015539D02*
X015265Y015539D01*
X015265Y015511D02*
X016565Y015511D01*
X016565Y015482D02*
X015254Y015482D01*
X015233Y015454D02*
X016577Y015454D01*
X016589Y015425D02*
X015206Y015425D01*
X015152Y015397D02*
X016601Y015397D01*
X016613Y015369D02*
X015111Y015369D01*
X015078Y015340D02*
X016636Y015340D01*
X016665Y015312D02*
X015045Y015312D01*
X015015Y015283D02*
X016693Y015283D01*
X016737Y015255D02*
X014987Y015255D01*
X014962Y015226D02*
X016806Y015226D01*
X016700Y015823D02*
X015009Y015823D01*
X015036Y015795D02*
X014973Y015861D01*
X014913Y015939D01*
X014857Y016020D01*
X014814Y016098D01*
X014780Y016186D01*
X014759Y016259D01*
X014995Y016259D01*
X015277Y016376D01*
X015493Y016592D01*
X015597Y016842D01*
X016104Y016842D01*
X016212Y016950D01*
X016250Y016989D02*
X016315Y016989D01*
X016315Y017017D02*
X016279Y017017D01*
X016307Y017045D02*
X016315Y017045D01*
X016242Y016903D02*
X016165Y016903D01*
X016137Y016875D02*
X016215Y016875D01*
X016215Y016847D02*
X016108Y016847D01*
X016215Y016818D02*
X015587Y016818D01*
X015575Y016790D02*
X016215Y016790D01*
X016215Y016761D02*
X015563Y016761D01*
X015551Y016733D02*
X016215Y016733D01*
X016215Y016704D02*
X015540Y016704D01*
X015528Y016676D02*
X016215Y016676D01*
X016215Y016648D02*
X015516Y016648D01*
X015504Y016619D02*
X016215Y016619D01*
X016215Y016591D02*
X015492Y016591D01*
X015463Y016562D02*
X016215Y016562D01*
X016215Y016534D02*
X015435Y016534D01*
X015407Y016505D02*
X016215Y016505D01*
X016215Y016477D02*
X015378Y016477D01*
X015350Y016449D02*
X016240Y016449D01*
X016268Y016420D02*
X015321Y016420D01*
X015293Y016392D02*
X016297Y016392D01*
X016325Y016363D02*
X015247Y016363D01*
X015178Y016335D02*
X016353Y016335D01*
X016382Y016307D02*
X015110Y016307D01*
X015041Y016278D02*
X016410Y016278D01*
X016439Y016250D02*
X014761Y016250D01*
X014770Y016221D02*
X016467Y016221D01*
X016496Y016193D02*
X014778Y016193D01*
X014789Y016164D02*
X016524Y016164D01*
X016552Y016136D02*
X014800Y016136D01*
X014810Y016108D02*
X016581Y016108D01*
X016609Y016079D02*
X014824Y016079D01*
X014840Y016051D02*
X016638Y016051D01*
X016666Y016022D02*
X014855Y016022D01*
X014875Y015994D02*
X016695Y015994D01*
X016723Y015965D02*
X014894Y015965D01*
X014914Y015937D02*
X016751Y015937D01*
X016780Y015909D02*
X014936Y015909D01*
X014958Y015880D02*
X016808Y015880D01*
X016753Y015852D02*
X014982Y015852D01*
X016585Y016665D02*
X016585Y016715D01*
X016606Y016715D01*
X016585Y016665D01*
X016585Y016676D02*
X016590Y016676D01*
X016585Y016704D02*
X016601Y016704D01*
X017215Y016435D02*
X017215Y016336D01*
X017210Y016334D01*
X017116Y016240D01*
X017074Y016138D01*
X016988Y016224D01*
X017090Y016266D01*
X017184Y016360D01*
X017215Y016435D01*
X017215Y016420D02*
X017209Y016420D01*
X017215Y016392D02*
X017197Y016392D01*
X017185Y016363D02*
X017215Y016363D01*
X017213Y016335D02*
X017159Y016335D01*
X017183Y016307D02*
X017130Y016307D01*
X017154Y016278D02*
X017102Y016278D01*
X017126Y016250D02*
X017050Y016250D01*
X017108Y016221D02*
X016990Y016221D01*
X017019Y016193D02*
X017097Y016193D01*
X017085Y016164D02*
X017047Y016164D01*
X017587Y016335D02*
X017641Y016335D01*
X017617Y016307D02*
X017670Y016307D01*
X017646Y016278D02*
X017698Y016278D01*
X017674Y016250D02*
X017750Y016250D01*
X017692Y016221D02*
X017818Y016221D01*
X017715Y016164D02*
X018524Y016164D01*
X018552Y016136D02*
X017727Y016136D01*
X017735Y016108D02*
X018581Y016108D01*
X018609Y016079D02*
X017735Y016079D01*
X017735Y016051D02*
X018638Y016051D01*
X018666Y016022D02*
X017735Y016022D01*
X017735Y015994D02*
X018695Y015994D01*
X018723Y015965D02*
X017728Y015965D01*
X017716Y015937D02*
X018751Y015937D01*
X018780Y015909D02*
X017704Y015909D01*
X017692Y015880D02*
X017822Y015880D01*
X017753Y015852D02*
X017675Y015852D01*
X017700Y015823D02*
X017647Y015823D01*
X017671Y015795D02*
X017619Y015795D01*
X017643Y015767D02*
X017590Y015767D01*
X017615Y015738D02*
X017522Y015738D01*
X017502Y015710D02*
X017604Y015710D01*
X017592Y015681D02*
X017530Y015681D01*
X017559Y015653D02*
X017580Y015653D01*
X017978Y015880D02*
X018808Y015880D01*
X018837Y015852D02*
X018047Y015852D01*
X018100Y015823D02*
X018865Y015823D01*
X018894Y015795D02*
X018129Y015795D01*
X018157Y015767D02*
X018922Y015767D01*
X018950Y015738D02*
X018185Y015738D01*
X018196Y015710D02*
X018979Y015710D01*
X019007Y015681D02*
X018208Y015681D01*
X018220Y015653D02*
X019036Y015653D01*
X019064Y015624D02*
X018232Y015624D01*
X018235Y015596D02*
X019092Y015596D01*
X019121Y015568D02*
X018235Y015568D01*
X018235Y015539D02*
X019149Y015539D01*
X019178Y015511D02*
X018235Y015511D01*
X018235Y015482D02*
X019206Y015482D01*
X019215Y015454D02*
X018223Y015454D01*
X018211Y015425D02*
X019215Y015425D01*
X019215Y015397D02*
X018199Y015397D01*
X018187Y015369D02*
X019215Y015369D01*
X019215Y015340D02*
X018164Y015340D01*
X018135Y015312D02*
X019215Y015312D01*
X019215Y015283D02*
X018107Y015283D01*
X018063Y015255D02*
X019215Y015255D01*
X018496Y016193D02*
X017703Y016193D01*
X017615Y016363D02*
X017585Y016363D01*
X017585Y016392D02*
X017603Y016392D01*
X017591Y016420D02*
X017585Y016420D01*
X017585Y016676D02*
X017590Y016676D01*
X017585Y016704D02*
X017601Y016704D01*
X017613Y016733D02*
X017585Y016733D01*
X017585Y016761D02*
X017638Y016761D01*
X017666Y016790D02*
X017585Y016790D01*
X017585Y016818D02*
X017694Y016818D01*
X017741Y016847D02*
X017585Y016847D01*
X017982Y016221D02*
X018467Y016221D01*
X018439Y016250D02*
X018050Y016250D01*
X018102Y016278D02*
X018410Y016278D01*
X018382Y016307D02*
X018130Y016307D01*
X018159Y016335D02*
X018353Y016335D01*
X018325Y016363D02*
X018185Y016363D01*
X018635Y017415D02*
X019286Y017415D01*
X019298Y017443D02*
X018689Y017443D01*
X018765Y017472D02*
X019315Y017472D01*
X019318Y017500D02*
X018867Y017500D01*
X016915Y017273D02*
X016823Y017365D01*
X016765Y017365D01*
X016840Y017334D01*
X016915Y017259D01*
X016915Y017273D01*
X016901Y017273D01*
X016887Y017301D02*
X016872Y017301D01*
X016859Y017330D02*
X016844Y017330D01*
X016830Y017358D02*
X016781Y017358D01*
X018863Y013606D02*
X019296Y013606D01*
X017213Y013351D02*
X016438Y013351D01*
X016445Y013322D02*
X017144Y013322D01*
X017075Y013294D02*
X016452Y013294D01*
X016462Y013265D02*
X017007Y013265D01*
X016953Y013237D02*
X016473Y013237D01*
X016484Y013209D02*
X016925Y013209D01*
X016896Y013180D02*
X016498Y013180D01*
X016513Y013152D02*
X016868Y013152D01*
X016839Y013123D02*
X016527Y013123D01*
X016545Y013095D02*
X016811Y013095D01*
X016783Y013066D02*
X016563Y013066D01*
X016582Y013038D02*
X016754Y013038D01*
X016738Y013010D02*
X016603Y013010D01*
X016624Y012981D02*
X016727Y012981D01*
X016715Y012953D02*
X016645Y012953D01*
X016672Y012924D02*
X016703Y012924D01*
M02*
